<?xml version="1.0" standalone="no"?>
<!DOCTYPE svg PUBLIC "-//W3C//DTD SVG 1.1//EN" "http://www.w3.org/Graphics/SVG/1.1/DTD/svg11.dtd" >
<svg xmlns="http://www.w3.org/2000/svg">
<metadata>
This is a custom SVG webfont generated by Font Squirrel.
Copyright   : Copyright c 2005 Parachute wwwparachutegr  All rights reserved
Designer    : Panos Vassiliou
Foundry     : Parachute Worldwide
Foundry URL : httpwwwparachutegr
</metadata>
<defs>
<font id="PFSquareSansProBold" horiz-adv-x="1142" >
<font-face units-per-em="2048" ascent="1536" descent="-512" />
<missing-glyph horiz-adv-x="602" />
<glyph unicode=" "  horiz-adv-x="602" />
<glyph unicode="&#x09;" horiz-adv-x="602" />
<glyph unicode="&#xa0;" horiz-adv-x="602" />
<glyph unicode="!" horiz-adv-x="600" d="M141 129q0 70 35 108.5t123 38.5q92 0 125 -37.5t33 -109.5q0 -68 -34 -108.5t-124 -40.5q-96 0 -127 39.5t-31 109.5zM156 1315q-2 43 41 43h213q23 0 32 -9.5t9 -33.5l-27 -877q-2 -43 -39 -43h-164q-37 0 -37 43z" />
<glyph unicode="&#x22;" horiz-adv-x="751" d="M109 1325q0 33 34 33h170q33 0 33 -33l-22 -428q0 -29 -33 -29h-133q-27 0 -27 29zM408 1325q-2 14 8 23.5t26 9.5h168q33 0 33 -33l-20 -428q-4 -29 -33 -29h-133q-29 0 -29 29z" />
<glyph unicode="#" horiz-adv-x="1290" d="M59 475l33 127q10 37 51 37h179l36 154h-182q-39 0 -29 36l35 125q10 39 51 39h177l79 326q6 25 13.5 32t27.5 7h158q39 0 29 -41l-80 -324h174l80 326q8 25 14 32t27 7h160q39 0 28 -39l-82 -326h185q23 0 28.5 -9t-0.5 -30l-32 -125q-12 -37 -48 -36h-182l-39 -154h185 q39 0 28 -39l-35 -125q-12 -37 -47 -37h-182l-98 -399q-10 -39 -39 -39h-152q-45 0 -37 41l99 397h-174l-99 -399q-10 -39 -39 -39h-151q-45 0 -37 41l98 397h-184q-39 0 -27 37zM549 639h174l39 154h-176z" />
<glyph unicode="$" horiz-adv-x="1222" d="M121 944q0 168 100.5 270.5t278.5 124.5v170q0 39 39 39h153q37 0 37 -39v-168q170 -12 272 -53q45 -16 54.5 -32.5t3.5 -51.5l-23 -108q-6 -27 -16 -38t-27.5 -12.5t-44.5 3.5q-166 23 -315 22q-178 0 -178 -119q0 -63 35.5 -84.5t144.5 -44.5q92 -20 141 -32.5t123 -44 t112 -70.5t67.5 -107.5t29.5 -158.5q0 -342 -379 -402v-168q0 -39 -37 -39h-153q-39 0 -39 39v160q-207 12 -318 57q-31 12 -45 24.5t-15 27t3 32.5l25 117q8 35 23 42t54 -1q225 -29 353 -29q199 0 198 125q0 70 -39 97.5t-147 48.5q-86 18 -140.5 33.5t-125 47 t-109.5 70.5t-67.5 103.5t-28.5 148.5z" />
<glyph unicode="%" horiz-adv-x="1959" d="M55 944q0 47 5.5 93t28 113t60 116t112.5 84.5t175.5 35.5t175 -28.5t114.5 -70.5t64.5 -105.5t30.5 -117.5t6 -120q0 -469 -391 -469q-102 0 -177 33t-112.5 79t-59 115.5t-27 121.5t-5.5 120zM315 930q0 -115 26 -178.5t95 -63.5q76 0 104.5 60.5t28.5 181.5 q0 129 -26.5 186.5t-106.5 57.5q-70 0 -95.5 -63.5t-25.5 -180.5zM584 -16l565 1423q12 27 33 27h180q27 0 16 -31l-563 -1426q-8 -25 -31 -24h-180q-30 0 -20 31zM1130 455q0 49 5.5 95t28 113.5t60.5 115.5t112.5 84t175 36t175 -28.5t114.5 -71.5t64.5 -105.5t31 -117 t6.5 -121.5q0 -467 -392 -467q-102 0 -176.5 32.5t-112.5 78.5t-59.5 116t-27 121t-5.5 119zM1391 442q0 -115 25.5 -178t94.5 -63q76 0 105 60.5t29 180.5q0 127 -27 185.5t-107 58.5q-72 0 -96 -62.5t-24 -181.5z" />
<glyph unicode="&#x26;" horiz-adv-x="1527" d="M80 371q0 268 299 446q-84 131 -84 232q0 145 94 240t262 95q158 0 253 -89t95 -222q0 -104 -68.5 -194.5t-185.5 -141.5q121 -176 263 -303q137 164 172 383q8 51 18 57q8 4 39 5h141q39 0 50.5 -13.5t9.5 -58.5q-6 -139 -77 -296t-155 -255q113 -94 236 -166 q25 -14 24.5 -28.5t-16.5 -38.5l-74 -119q-29 -39 -78 -17q-133 61 -305 205q-184 -117 -448 -117q-207 0 -336 99.5t-129 296.5zM365 391q0 -86 56 -133t142 -47q119 -4 234 61q-182 182 -283 338q-149 -100 -149 -219zM555 1059q0 -51 51 -123q117 70 117 135 q0 33 -23.5 55.5t-60.5 22.5q-39 0 -61.5 -27.5t-22.5 -62.5z" />
<glyph unicode="'" horiz-adv-x="466" d="M113 1325q0 33 37 33h167q33 0 33 -33l-22 -428q0 -29 -31 -29h-133q-29 0 -29 29z" />
<glyph unicode="(" horiz-adv-x="696" d="M102 625q0 430 285 815q23 29 39 31t41 -15l119 -67q27 -14 29.5 -28.5t-17.5 -49.5q-180 -299 -180 -686q0 -397 180 -705q14 -25 16 -38t-4 -21t-24 -19l-117 -67q-27 -16 -43 -14.5t-39 30.5q-285 379 -285 834z" />
<glyph unicode=")" horiz-adv-x="698" d="M93 -129q-3 14 16 49q182 305 182 705q0 389 -182 686q-18 35 -15.5 49t27.5 29l119 67q27 16 43 14t39 -30q283 -381 282 -815q0 -457 -282 -834q-23 -29 -39.5 -31t-42.5 15l-119 67q-25 15 -28 29z" />
<glyph unicode="*" horiz-adv-x="888" d="M77 1104q-3 12 11 43l33 63q16 29 33.5 30t42.5 -13l137 -58l10 144q2 31 11.5 39t43.5 8h82q57 0 60 -49l8 -146l145 68q20 10 27.5 11t15.5 -4t19 -23l41 -62q27 -37 -2 -55l-142 -96l131 -97q27 -18 29 -31.5t-16 -37.5l-33 -58q-16 -25 -31.5 -26.5t-40.5 10.5 l-141 65l-12 -139q-2 -25 -5.5 -33t-12.5 -11t-32 -3h-96q-29 0 -37 7t-10 40l-14 139l-135 -59q-45 -23 -66 10l-47 70q-18 31 22 59l119 90l-121 76q-24 17 -27 29z" />
<glyph unicode="+" horiz-adv-x="1222" d="M147 592v143q0 43 41 43h287v283q0 43 45 43h185q41 0 40 -43v-283h289q25 0 34 -9t9 -32v-145q0 -43 -43 -43h-289v-301q0 -25 -9 -33t-29 -8h-187q-27 0 -36 8t-9 33v301h-287q-41 0 -41 43z" />
<glyph unicode="," horiz-adv-x="487" d="M36 -233.5q1 12.5 30 40.5q68 68 67 152q0 68 -47 121q-29 31 -29 49t35 47l133 103q35 20 52.5 15t46.5 -32q86 -82 86 -196q0 -129 -67 -238t-157 -162q-45 -25 -75 10l-54 54q-22 24 -21 36.5z" />
<glyph unicode="-" horiz-adv-x="841" d="M63 578v155q0 41 43 41h639q25 0 34 -9t9 -30v-157q0 -25 -9 -34t-34 -9h-639q-43 0 -43 43z" />
<glyph unicode="." horiz-adv-x="473" d="M72 135q0 154 164 154q94 0 128.5 -39t34.5 -115q0 -70 -34.5 -112.5t-128.5 -42.5q-96 0 -130 42.5t-34 112.5z" />
<glyph unicode="/" horiz-adv-x="653" d="M16 -84q242 1018 353 1468q6 35 43 35h190q39 0 33 -49l-346 -1464q-6 -33 -43 -33h-195q-45 0 -35 43z" />
<glyph unicode="0" horiz-adv-x="1222" d="M61 698q0 59 6.5 115.5t22.5 141.5t54 154t95.5 133.5t151.5 100t215 35.5q143 0 250 -44t165 -109.5t93 -161.5t45 -179t10 -186q0 -717 -563 -716q-106 0 -191 26.5t-141.5 66.5t-97.5 103.5t-62.5 121.5t-33.5 136t-15.5 135t-3.5 127zM389 680q0 -201 46 -312.5 t171 -111.5q135 0 185.5 106.5t50.5 317.5q0 221 -48.5 322.5t-187.5 101.5q-125 0 -171 -110.5t-46 -313.5z" />
<glyph unicode="1" horiz-adv-x="1222" d="M209 43v180q0 41 43 41h217v791h-193q-27 0 -38 7t-11 30v100q0 51 39 70l180 75q51 25 129 25h164q47 0 47 -47v-1051h238q41 0 41 -41v-180q0 -23 -8 -33t-33 -10h-772q-43 0 -43 43z" />
<glyph unicode="2" horiz-adv-x="1222" d="M88 43v145q0 49 33 82q274 258 297 281q4 4 50 47t96 90t65 64q111 106 110 209q0 76 -42 106.5t-152 30.5q-135 0 -352 -25q-39 -4 -52.5 3t-19.5 40l-17 115q-6 31 4.5 50t53.5 36q74 31 193.5 45t199.5 14q272 0 395 -99t123 -292q0 -129 -46 -216t-157 -198 q-131 -129 -315 -295l4 -10h494q25 0 33 -10t8 -33v-180q0 -43 -39 -43h-924q-43 0 -43 43z" />
<glyph unicode="3" horiz-adv-x="1222" d="M86 133l23 113q6 31 20 40t53 5q178 -27 334 -33q133 0 199.5 42t66.5 177q0 51 -27.5 78t-92.5 39l-273 49q-37 6 -49 21.5t-12 50.5v78q0 55 24 77q8 8 103.5 91t144.5 126q0 2 -2 7h-440q-43 0 -43 43v178q0 43 43 43h852q45 0 45 -45v-113q0 -78 -45 -121 q0 -6 -238 -215q2 -2 2 -8l129 -31q209 -51 209 -323q0 -291 -145.5 -404.5t-429.5 -113.5q-238 0 -383 59q-47 16 -60.5 36.5t-7.5 53.5z" />
<glyph unicode="4" horiz-adv-x="1222" d="M41 354v158q0 39 22 66l596 743q31 37 82 37h226q41 0 41 -41v-746h135q41 0 41 -41v-182q0 -43 -41 -43h-135v-262q0 -43 -43 -43h-228q-43 0 -43 43v262h-598q-55 0 -55 49zM393 565h305v383l-10 2l-295 -377v-8z" />
<glyph unicode="5" horiz-adv-x="1222" d="M92 131l23 113q6 31 20.5 40t52.5 5q193 -29 332 -29q131 0 196.5 43t65.5 176q0 92 -120 115l-453 78q-53 10 -67.5 36.5t-8.5 77.5l82 500q6 39 25.5 56.5t62.5 17.5h698q43 0 43 -43v-178q0 -43 -45 -43h-507l-31 -193l352 -51q139 -20 220 -109.5t81 -238.5 q0 -291 -146.5 -406.5t-424.5 -115.5q-238 0 -383 59q-47 16 -60.5 36.5t-7.5 53.5z" />
<glyph unicode="6" horiz-adv-x="1222" d="M78 637q0 113 9 202t44 194.5t93.5 176t165 118.5t251.5 48q233 0 385 -57q43 -16 54.5 -33.5t4.5 -50.5l-24 -113q-12 -55 -64 -49q-201 25 -358 25q-115 0 -166 -63.5t-61 -188.5q184 18 317 18q428 0 428 -454q0 -92 -30.5 -166t-83 -122t-124 -81t-149.5 -46 t-162 -13q-104 0 -186 17t-137.5 46t-94 78t-61.5 97t-34 124t-14 138.5t-3 154.5zM401 582q-4 -188 31 -260q41 -74 184 -74q217 0 218 160q0 100 -35 146t-119 46q-101 0 -279 -18z" />
<glyph unicode="7" horiz-adv-x="1222" d="M88 1137v180q0 45 41 45h944q43 0 43 -47v-125q0 -45 -37 -115l-549 -1083q-14 -25 -26 -31t-45 6l-189 84q-20 8 -27 18.5t-5 20.5t12 31l487 975h-608q-41 0 -41 41z" />
<glyph unicode="8" horiz-adv-x="1222" d="M59 391q0 223 199 328q-76 37 -117 108.5t-41 145.5q0 197 136.5 301t369.5 104q229 0 365.5 -98t136.5 -301q0 -68 -44 -143.5t-120 -112.5v-2q100 -43 152.5 -130t52.5 -196q0 -193 -150.5 -303t-398.5 -110q-541 -1 -541 409zM385 420q0 -80 59.5 -123t155.5 -43 q98 0 159.5 46t61.5 116q0 84 -59.5 128t-167.5 66q-209 -38 -209 -190zM426 967q0 -96 182 -136q174 27 174 136q0 68 -48 102.5t-128 34.5q-180 0 -180 -137z" />
<glyph unicode="9" horiz-adv-x="1222" d="M74 938q0 152 83 254t201.5 143t262.5 41q104 0 186 -17.5t137 -46t94 -77.5t61.5 -98.5t35 -124t15.5 -137t3 -154.5q0 -113 -9 -202t-44 -194.5t-93.5 -176t-166 -118.5t-252.5 -48q-240 0 -383 57q-43 14 -55.5 32.5t-2.5 51.5l23 110q8 33 21.5 43.5t41.5 6.5 q201 -25 353 -25q115 0 168 63.5t63 186.5q-162 -16 -317 -16q-426 0 -426 446zM397 944q0 -100 34 -144t120 -44q100 0 276 18q0 199 -28 256q-35 74 -185 74q-217 0 -217 -160z" />
<glyph unicode=":" horiz-adv-x="479" d="M76 135q0 154 164 154q94 0 128.5 -39t34.5 -115q0 -70 -34.5 -112.5t-128.5 -42.5q-98 0 -131 41.5t-33 113.5zM76 776q0 154 164 154q94 0 128.5 -39t34.5 -115q0 -70 -34.5 -112.5t-128.5 -42.5q-98 0 -131 41.5t-33 113.5z" />
<glyph unicode=";" horiz-adv-x="479" d="M36 -233.5q1 12.5 30 40.5q68 68 67 152q0 68 -47 121q-29 31 -29 49t35 47l133 103q35 20 52.5 15t46.5 -32q84 -80 84 -196q0 -129 -66 -238t-156 -162q-43 -23 -77 10l-52 54q-22 24 -21 36.5zM76 776q0 154 164 154q94 0 128.5 -39t34.5 -115q0 -70 -34.5 -112.5 t-128.5 -42.5q-98 0 -131 41.5t-33 113.5z" />
<glyph unicode="&#x3c;" horiz-adv-x="1222" d="M164 596v143q0 31 31 47l831 422q33 16 33 -22v-197q0 -31 -31 -47l-512 -268v-8l514 -265q31 -12 31 -47v-207q0 -37 -35 -18l-829 420q-33 12 -33 47z" />
<glyph unicode="=" horiz-adv-x="1222" d="M147 401v146q0 43 43 43h844q43 0 43 -41v-148q0 -43 -43 -43h-844q-43 0 -43 43zM147 778v146q0 43 43 43h844q43 0 43 -41v-148q0 -43 -43 -43h-844q-43 0 -43 43z" />
<glyph unicode="&#x3e;" horiz-adv-x="1222" d="M166 147v207q0 33 31 47l516 265v8l-514 268q-31 18 -31 47v197q0 39 35 22l831 -422q29 -18 29 -47v-143q0 -35 -31 -47l-829 -420q-37 -19 -37 18z" />
<glyph unicode="?" horiz-adv-x="892" d="M57 1262q-4 31 3.5 42t35.5 25q115 47 283 47q215 0 330.5 -86t115.5 -248q0 -68 -31.5 -127t-61.5 -85.5t-83 -67.5q-86 -63 -123 -118.5t-37 -143.5v-78q0 -45 -34 -45h-203q-23 0 -32 8t-13 33q-6 41 -6 102q0 139 51 221t172 181q68 57 68 102q0 51 -38 73.5 t-126 22.5q-74 0 -197 -12q-37 -4 -47 2t-14 33zM188 131q0 150 160 150q92 0 126 -39t34 -111q0 -152 -160 -151q-94 0 -127 41.5t-33 109.5z" />
<glyph unicode="@" horiz-adv-x="1853" d="M121 719q0 330 238.5 546t601.5 216q377 0 573.5 -206t196.5 -523q0 -219 -116 -338t-280 -119q-193 0 -258 119q-131 -82 -258 -82q-131 0 -189.5 59.5t-58.5 183.5q0 272 326 273q84 2 137 6q0 59 -29.5 78.5t-99 19.5t-200.5 -12q-25 -6 -40.5 -2t-21.5 31l-14 69 q-8 37 35 62q86 47 268 47q190 0 257.5 -73t67.5 -230v-269q0 -80 93 -79q68 0 114.5 65.5t46.5 181.5q0 238 -141 387.5t-401 149.5q-285 0 -458 -158.5t-173 -398.5q0 -258 142.5 -408.5t439.5 -150.5q102 0 258 29q27 6 41 4t20 -21l18 -67q18 -70 -20 -91 q-113 -59 -324 -59q-399 0 -595.5 206t-196.5 554zM788 575q0 -63 66 -63q70 0 178 61q0 16 -1 53.5t-1 55.5h-143q-99 -1 -99 -107z" />
<glyph unicode="A" horiz-adv-x="1265" d="M18 10q-3 4 -2 13q0 11 4 30l396 1250q10 33 25.5 46t54.5 13h258q39 0 53 -13.5t27 -48.5l411 -1251q3 -12 3 -21q0 -28 -27 -28h-254q-33 0 -46.5 14.5t-23.5 48.5l-68 244h-407l-74 -250q-16 -57 -72 -57h-227q-25 0 -31 10zM492 557h266l-62 225l-65 250h-10 l-68 -248z" />
<glyph unicode="B" horiz-adv-x="1269" d="M137 45v1270q0 45 45 45l520 2q207 0 316.5 -100.5t109.5 -278.5q0 -68 -32.5 -143.5t-114.5 -116.5l2 -8q182 -70 182 -312q0 -184 -125 -293.5t-301 -109.5h-555q-47 0 -47 45zM463 272h211q158 0 157 148q0 68 -39.5 110.5t-117.5 42.5h-211v-301zM463 836h196 q61 0 98.5 34.5t37.5 90.5q0 129 -146 129h-186v-254z" />
<glyph unicode="C" horiz-adv-x="1214" d="M119 674q0 702 594 702q233 0 385 -65q35 -16 48 -35t7 -53l-27 -119q-6 -29 -19 -37t-50 -4q-211 23 -314 22q-160 0 -219 -106.5t-59 -298.5q0 -209 58.5 -310.5t217.5 -101.5q115 0 318 23q39 4 51 -3t20 -38l27 -109q3 -12 3 -22q0 -45 -54 -70q-162 -70 -391 -69 q-596 0 -596 694z" />
<glyph unicode="D" horiz-adv-x="1347" d="M137 45v1270q0 45 45 45h447q602 0 602 -676q0 -684 -602 -684h-445q-47 0 -47 45zM461 272h131q301 0 301 398q0 217 -69.5 317t-217.5 100h-145v-815z" />
<glyph unicode="E" d="M139 43v1272q0 47 45 47h813q43 0 43 -45v-187q0 -43 -45 -43h-530v-247h463q47 0 47 -43v-187q0 -43 -47 -43h-463v-295h541q45 0 45 -45v-186q0 -41 -45 -41h-822q-45 0 -45 43z" />
<glyph unicode="F" horiz-adv-x="1075" d="M137 1317q0 45 47 45h797q45 0 45 -45v-187q0 -43 -47 -43h-514v-247h440q45 0 45 -43v-187q0 -43 -45 -43h-440v-522q0 -45 -43 -45h-238q-45 0 -45 45z" />
<glyph unicode="G" horiz-adv-x="1320" d="M121 676q0 700 592 700q238 0 385 -65q57 -23 57 -70q0 -9 -2 -18l-27 -121q-6 -31 -19 -37t-50 -2q-193 25 -307 24q-160 0 -221.5 -107.5t-61.5 -299.5q0 -203 55.5 -309.5t212.5 -106.5q74 0 150 15v245h-140q-47 0 -47 43v172q0 43 47 43h408q20 0 33.5 -12t13.5 -31 q0 -338 -2 -581q0 -86 -63 -111q-178 -68 -428 -67q-139 0 -244 37.5t-169.5 100t-104 155t-54 188.5t-14.5 215z" />
<glyph unicode="H" horiz-adv-x="1325" d="M137 45v1270q0 47 45 47h238q43 0 43 -47v-471h399v471q0 47 45 47h238q43 0 43 -47v-1270q0 -45 -43 -45h-238q-45 0 -45 45v524h-399v-524q0 -45 -43 -45h-238q-45 0 -45 45z" />
<glyph unicode="I" horiz-adv-x="622" d="M147 45v1270q0 47 43 47h240q43 0 43 -47v-1270q0 -45 -43 -45h-240q-43 0 -43 45z" />
<glyph unicode="J" horiz-adv-x="968" d="M16 113l31 133q8 31 17.5 36t37.5 1q123 -14 203 -15q104 0 141 39t37 119v889q0 47 45 47h236q45 0 45 -47q0 -711 -2 -953q0 -381 -447 -380q-158 0 -274 41q-53 18 -66 34q-7 10 -7 28q0 12 3 28z" />
<glyph unicode="K" horiz-adv-x="1267" d="M125 45v1270q0 47 45 47h238q43 0 43 -47v-484h4l147 193l240 297q35 41 92 41h264q31 0 38 -17.5t-11 -39.5l-441 -531l457 -713q12 -22 12 -35q0 -7 -3 -12q-9 -14 -33 -14h-271q-55 0 -90 53l-285 465l-120 -149v-324q0 -45 -43 -45h-238q-45 0 -45 45z" />
<glyph unicode="L" horiz-adv-x="1075" d="M139 43v1272q0 47 45 47h236q45 0 45 -47v-1043h551q37 0 37 -34v-197q0 -41 -45 -41h-824q-45 0 -45 43z" />
<glyph unicode="M" horiz-adv-x="1597" d="M139 45v1272q0 45 43 45h176q39 0 57.5 -10.5t33.5 -38.5l198 -404l152 -317h8l156 321l198 398q16 29 32.5 40t55.5 11h168q41 0 41 -45v-1272q0 -45 -41 -45h-229q-45 0 -45 45v627l-6 2l-72 -160l-129 -264q-31 -53 -86 -53h-100q-57 0 -86 49l-134 274l-71 156l-4 -2 v-629q0 -45 -43 -45h-230q-43 0 -43 45z" />
<glyph unicode="N" horiz-adv-x="1372" d="M135 43v1272q0 45 45 45h168q29 0 48.5 -9.5t27.5 -18.5t22 -32q233 -350 463 -708l2 2h4v719q0 47 46 47h227q43 0 43 -47v-1270q0 -43 -43 -43h-168q-57 0 -88 47q-27 39 -138.5 207t-172.5 258l-162 250h-6v-719q0 -43 -43 -43h-228q-47 0 -47 43z" />
<glyph unicode="O" horiz-adv-x="1411" d="M117 698q0 86 10 165t46 177.5t95.5 169t171 119.5t260.5 49q182 0 306 -58t183.5 -163.5t81 -212t21.5 -246.5q0 -109 -10 -195.5t-46 -189t-97.5 -171t-174 -114.5t-266 -46t-264 47t-171 114.5t-94.5 171t-43 188t-9 195.5zM461 676q0 -215 53 -314.5t188 -99.5 q141 0 198.5 99.5t57.5 314.5q0 225 -56 323.5t-200 98.5q-133 0 -187 -100.5t-54 -321.5z" />
<glyph unicode="P" horiz-adv-x="1161" d="M137 45v1272q0 45 45 45h475q203 0 333 -109.5t130 -314.5q0 -78 -20.5 -148.5t-68.5 -139t-144 -109.5t-230 -41h-194v-455q0 -45 -43 -45h-238q-45 0 -45 45zM463 764h151q82 0 127 42t45 124q0 80 -47 120t-129 40h-147v-326z" />
<glyph unicode="Q" horiz-adv-x="1417" d="M119 698q0 86 9 165t45 178.5t96.5 169t171 118.5t259.5 49q147 0 258 -41t173.5 -104.5t100.5 -156.5t50 -181t12 -197q0 -410 -182 -573l209 -59q31 -8 37 -25q2 -5 2 -11q0 -14 -10 -34l-74 -176q-12 -38 -46 -38q-17 0 -38 9l-461 193q-10 -2 -31 -2q-154 0 -265 47 t-170.5 114.5t-94.5 171t-43 188t-8 195.5zM461 676q0 -215 54 -314.5t187 -99.5q139 0 197.5 99.5t58.5 314.5q0 225 -56 323.5t-200 98.5q-131 0 -186 -101.5t-55 -320.5z" />
<glyph unicode="R" horiz-adv-x="1228" d="M133 45v1272q0 45 47 45h502q117 0 215 -42t165.5 -138.5t67.5 -235.5q0 -115 -54 -216t-169 -155l252 -524q6 -13 6 -23q0 -7 -3 -14q-7 -14 -29 -14h-252q-61 0 -80 45l-209 473h-133v-473q0 -45 -43 -45h-236q-47 0 -47 45zM459 782h164q172 0 172 160q0 145 -168 145 h-168v-305z" />
<glyph unicode="S" horiz-adv-x="1189" d="M94 958q0 199 133 307.5t363 108.5q248 0 391 -59q47 -16 56.5 -33.5t2.5 -52.5l-28 -121q-8 -37 -26.5 -42t-61.5 1q-170 23 -310 23q-178 0 -178 -123q0 -61 36 -85t146 -46q92 -20 142.5 -34t125.5 -46.5t113.5 -73.5t68.5 -111.5t30 -162.5q0 -94 -30 -168t-80 -122 t-119.5 -79t-145.5 -44t-162 -13q-244 0 -403 63q-47 18 -55.5 35.5t-2.5 50.5l25 119q8 37 24.5 44t55.5 -1q229 -29 358 -29q201 0 201 131q0 70 -40 98.5t-151 51.5q-88 18 -142 33.5t-126 48t-111.5 72.5t-69.5 106.5t-30 152.5z" />
<glyph unicode="T" horiz-adv-x="1067" d="M25 1130v187q0 45 45 45h927q45 0 45 -45v-187q0 -43 -45 -43h-303v-1042q0 -45 -43 -45h-235q-45 0 -45 45v1042h-301q-45 0 -45 43z" />
<glyph unicode="U" horiz-adv-x="1343" d="M137 506v809q0 47 45 47h236q43 0 43 -47v-801q0 -252 209 -252q215 0 215 252l-2 801q0 47 47 47h235q43 0 43 -47l-2 -809q0 -143 -39 -244q-59 -143 -194 -211.5t-303 -68.5h-7q-249 0 -387 140q-139 142 -139 384z" />
<glyph unicode="V" horiz-adv-x="1304" d="M35 1311q-7 15 -7 25q0 26 40 26h219q41 0 58 -12.5t26 -44.5l149 -482l131 -444h11l126 448l138 471q18 63 80 64h237q31 0 31 -27q0 -10 -4 -24l-416 -1252q-10 -31 -27.5 -45t-60.5 -14h-231q-70 0 -86 57z" />
<glyph unicode="W" horiz-adv-x="1796" d="M31 1311q-3 12 -4 20q0 31 39 31h233q33 0 49.5 -12.5t24.5 -42.5q129 -518 139 -549l74 -318h8l63 224q4 14 50.5 173.5t50.5 170.5l-96 303q-8 18 -1 34.5t27 16.5h217q66 0 78 -55q147 -559 156 -590l67 -277h11l61 301l133 566q14 55 82 55h221q38 0 38 -29 q0 -10 -5 -24l-330 -1250q-16 -59 -88 -59h-186q-43 0 -60.5 14.5t-27.5 44.5l-94 310l-54 178h-10l-57 -178l-97 -310q-10 -31 -27.5 -45t-58.5 -14h-190q-70 0 -86 57z" />
<glyph unicode="X" horiz-adv-x="1206" d="M32 17l-2 10q0 14 11 30l377 637l-355 609q-12 23 -4.5 41t33.5 18h254q29 0 41 -8t27 -37l94 -182l90 -181l92 191l88 170q23 45 66 45h260q37 2 43 -16.5t-8 -34.5l-365 -615l379 -641q9 -12 9 -24q0 -5 -2 -11q-5 -18 -34 -18h-256q-47 0 -71 43l-101 193l-102 202 l-100 -202l-99 -187q-25 -49 -78 -49h-256q-26 0 -31 17z" />
<glyph unicode="Y" horiz-adv-x="1288" d="M23 1347q6 15 28 15h244q35 0 49 -9.5t31 -39.5l135 -269l121 -245h12l127 248l131 251q12 25 19.5 36.5t22.5 19.5t38 8h246q23 0 29 -14q3 -6 3 -13q0 -9 -6 -18l-462 -817v-455q0 -45 -41 -45h-238q-45 0 -45 45v455l-440 811q-6 13 -7 23q1 7 3 13z" />
<glyph unicode="Z" horiz-adv-x="1126" d="M86 43v166q0 47 27 82l559 796h-500q-45 0 -45 43v187q0 45 45 45h823q18 0 30.5 -12.5t12.5 -30.5l-2 -150q0 -53 -26 -98l-561 -799h548q45 0 45 -43v-184q0 -45 -43 -45h-868q-45 0 -45 43z" />
<glyph unicode="[" horiz-adv-x="602" d="M74 -150v1530q0 43 43 43h364q43 0 43 -41v-168q0 -39 -43 -38h-116v-1125h118q43 0 43 -43v-162q0 -41 -43 -41h-364q-45 0 -45 45z" />
<glyph unicode="\" horiz-adv-x="653" d="M18 1370q-6 49 33 49h191q35 0 45 -35l350 -1468q10 -43 -35 -43h-192q-37 0 -43 33z" />
<glyph unicode="]" horiz-adv-x="602" d="M80 8q0 43 43 43h121v1125h-119q-45 0 -45 38v168q0 41 43 41h366q45 0 46 -43v-1532q0 -43 -46 -43h-366q-43 0 -43 41v162z" />
<glyph unicode="^" horiz-adv-x="1179" d="M49 768q0 10 17 31l368 524q29 37 82 37l168 -2q29 0 43 -4t20.5 -10.5t16.5 -20.5l348 -524q16 -20 15 -31.5t-17 -26.5l-80 -59q-31 -27 -59 2l-381 432l-383 -430q-31 -29 -64 -2l-75 59q-19 15 -19 25z" />
<glyph unicode="_" horiz-adv-x="1024" d="M-37 -139q0 43 43 43h1012q25 0 34 -9.5t9 -31.5v-111q0 -43 -43 -43h-1012q-43 0 -43 41v111z" />
<glyph unicode="`" horiz-adv-x="1097" d="M324 1405q-33 37 4 61l141 109q37 20 59 -12l228 -326q23 -29 -6 -49l-97 -76q-23 -20 -51 8z" />
<glyph unicode="a" horiz-adv-x="1173" d="M80 285q-6 340 393 340h236v32q0 68 -36 94.5t-145 26.5q-88 0 -268 -18q-43 -6 -56.5 0t-21.5 35l-22 106q-4 29 8 45.5t57 34.5q131 49 353 49q141 0 230 -24.5t133 -79t59.5 -119t15.5 -164.5v-324q0 -61 13 -76.5t63 -21.5q27 -2 35 -9t8 -26v-131q0 -41 -60 -53 q-57 -14 -127 -14q-178 0 -211 133l-4 2q-74 -70 -176 -104.5t-190 -34.5q-164 0 -225.5 82t-61.5 219zM395 301q0 -47 19.5 -65.5t72.5 -18.5q96 0 215 72v137h-184q-61 0 -92 -27.5t-31 -97.5z" />
<glyph unicode="b" horiz-adv-x="1128" d="M94 143v1258q0 45 45 45h226q43 0 43 -45v-406q111 35 206 35q131 0 219.5 -37t132.5 -110.5t60 -158.5t16 -208q0 -131 -19 -222t-69.5 -165t-144.5 -110.5t-236 -36.5q-264 0 -417 61q-62 26 -62 100zM408 264q59 -10 135 -10q88 0 133 48t45 198q0 147 -35 203.5 t-117 58.5q-68 0 -161 -23v-475z" />
<glyph unicode="c" horiz-adv-x="978" d="M84 510q0 82 10 149.5t41 139t81 121t136 80t203 30.5q199 0 322 -51q44 -18 44 -61q0 -7 -1 -15l-23 -125q-8 -31 -21.5 -36t-56.5 1q-143 14 -221 15q-102 0 -148.5 -58.5t-46.5 -183.5q0 -147 42 -204.5t149 -57.5q104 0 246 16q20 4 32.5 3t18.5 -9t10 -31l21 -112 q4 -17 3 -31q0 -15 -4 -24q-9 -18 -53 -37q-135 -47 -313 -47q-147 0 -245.5 43t-144.5 122.5t-63.5 163.5t-17.5 199z" />
<glyph unicode="d" horiz-adv-x="1132" d="M82 492q0 133 16.5 224t59.5 166.5t128 112.5t212 37q113 0 221 -33q0 2 2 2v398q0 47 43 47h223q43 0 43 -47v-1356q0 -43 -43 -43h-225q-41 0 -41 41v53h-2q-2 2 -4 2q-150 -113 -291 -112q-100 0 -170 36.5t-106.5 108.5t-51 158t-14.5 205zM399 502q0 -143 28 -189.5 t95.5 -46.5t196.5 62v413q-88 23 -160 23q-90 0 -125 -54t-35 -208z" />
<glyph unicode="e" horiz-adv-x="1091" d="M86 498q0 532 467 532q461 0 465 -467q0 -68 -24.5 -99.5t-88.5 -31.5h-499q6 -113 58 -151.5t163 -38.5q74 0 241 20q25 4 39.5 2t19.5 -11t11 -36l16 -96q4 -23 3 -39t-13 -28.5t-43 -24.5q-135 -47 -330 -47q-147 0 -247.5 40.5t-149.5 117.5t-68.5 161t-19.5 197z M410 616h284q0 174 -141 175q-133 -1 -143 -175z" />
<glyph unicode="f" horiz-adv-x="878" d="M63 813v154q0 45 46 45h88v96q0 170 98 265t299 95q172 0 289 -51q37 -15 37 -52q0 -10 -2 -22l-25 -129q-6 -23 -19.5 -27.5t-48.5 1.5q-113 14 -178 14q-139 0 -139 -139v-51h223q43 0 43 -43v-156q0 -25 -8 -36t-35 -11h-225v-721q0 -45 -43 -45h-223q-45 0 -45 45 v721h-86q-46 0 -46 47z" />
<glyph unicode="g" horiz-adv-x="1130" d="M88 504q0 254 106.5 391t378.5 137q240 0 400 -59q61 -27 61 -103v-835q0 -90 -7 -149.5t-34.5 -124t-79 -101.5t-141.5 -61.5t-219 -24.5q-201 0 -326 47q-63 25 -62 69q0 6 1 13l24 115q6 31 20.5 37t49.5 -2q137 -20 277 -21q111 0 148.5 35t37.5 119v49 q-113 -35 -205 -35q-244 0 -337 130t-93 374zM410 522q0 -147 36.5 -200.5t122.5 -53.5q63 0 154 23v457q-72 12 -135 12q-88 0 -133 -46.5t-45 -191.5z" />
<glyph unicode="h" d="M98 45v1356q0 45 43 45h228q43 0 43 -45v-463q164 92 305 92q109 0 179.5 -33.5t101 -99.5t40 -124t9.5 -146v-582q0 -45 -43 -45h-226q-45 0 -45 45t1 276.5t1 274.5q0 82 -29.5 118t-95.5 36q-63 0 -200 -60v-645q0 -45 -43 -45h-226q-43 0 -43 45z" />
<glyph unicode="i" horiz-adv-x="567" d="M121 1278q0 152 164 152q92 0 126.5 -39t34.5 -113q0 -70 -33.5 -112t-127.5 -42q-96 0 -130 42t-34 112zM125 45v922q0 45 45 45h225q41 0 41 -45v-922q0 -45 -41 -45h-225q-45 0 -45 45z" />
<glyph unicode="j" horiz-adv-x="598" d="M-139 -229q-1 9 -1 15q0 17 4 23q5 7 36 13q160 35 207 68.5t47 142.5v934q0 45 47 45h223q43 0 43 -45v-928q0 -266 -134 -375q-123 -99 -359 -99q-22 0 -46 1q-51 0 -53 45zM150 1278q0 152 161 152q94 0 129 -39t35 -113q0 -154 -164 -154q-96 0 -128.5 42t-32.5 112z " />
<glyph unicode="k" horiz-adv-x="1085" d="M100 45v1356q0 47 45 47h224q43 0 43 -47v-719l6 -2l129 147l123 140q39 45 96 45h233q35 0 41.5 -16.5t-16.5 -39.5l-313 -338l358 -561q9 -15 9 -27q0 -8 -4 -14q-9 -16 -38 -16h-225q-70 0 -98 49l-207 344l-94 -102v-246q0 -45 -43 -45h-224q-45 0 -45 45z" />
<glyph unicode="l" horiz-adv-x="614" d="M123 252v1149q0 45 45 45h223q43 0 43 -45v-1088q0 -41 18.5 -52t69.5 -13q31 -2 37 -6t10 -27l11 -154q2 -29 -33 -45q-57 -27 -164 -26q-133 0 -196.5 62.5t-63.5 199.5z" />
<glyph unicode="m" horiz-adv-x="1726" d="M98 43v922q0 45 43 45h226q45 0 45 -45v-47l2 -3q143 113 301 113q201 0 264 -139q168 139 346 139q70 0 122 -15.5t84 -47t52.5 -65.5t29.5 -86t11 -91t2 -96v-584q0 -43 -41 -43h-225q-45 0 -45 43v539q0 90 -26.5 122.5t-88.5 32.5q-68 0 -182 -59v-635q0 -43 -43 -43 h-225q-43 0 -43 43v545q0 84 -27 116.5t-84 32.5q-74 0 -184 -59v-635q0 -43 -45 -43h-226q-43 0 -43 43z" />
<glyph unicode="n" d="M96 43v922q0 45 45 45h224q43 0 43 -45v-50q2 0 6 -2q68 51 158 83t163 32q84 0 143.5 -24.5t91 -60.5t49 -95.5t21.5 -106.5t4 -116v-582q0 -43 -43 -43h-225q-45 0 -45 43q0 90 1 269.5t1 267.5q0 84 -29.5 120.5t-95.5 36.5q-29 0 -65.5 -10t-80.5 -27.5t-54 -21.5 v-635q0 -43 -43 -43h-224q-45 0 -45 43z" />
<glyph unicode="o" horiz-adv-x="1124" d="M86 520q0 68 8 126.5t37 133t77 126.5t137 88t210 36t212 -30.5t142.5 -79t82 -119t39.5 -136t9 -145.5q0 -82 -7 -143.5t-34.5 -140t-77 -130t-143.5 -87t-223 -35.5q-127 0 -218 35.5t-138 87t-74 130t-33 140t-6 143.5zM401 508q0 -139 33 -198.5t121 -59.5 q98 0 132 59.5t34 198.5t-32 197.5t-130 58.5q-90 0 -124 -62.5t-34 -193.5z" />
<glyph unicode="p" horiz-adv-x="1126" d="M98 -354v1319q0 45 43 45h226q43 0 43 -45v-50l2 -2h2q156 113 291 113q102 0 171.5 -39t106.5 -112.5t51.5 -160.5t14.5 -206q0 -266 -89.5 -397t-326.5 -131q-111 0 -221 30h-2v-364q0 -45 -43 -45h-226q-43 0 -43 45zM410 268q80 -23 159 -22q88 0 123 52t35 206 q0 139 -27.5 187t-95.5 48q-66 0 -194 -59v-412z" />
<glyph unicode="q" horiz-adv-x="1130" d="M86 496q0 258 106.5 396t378.5 138q252 0 402 -59q59 -27 59 -103v-1222q0 -45 -41 -45h-225q-47 0 -47 45v368q-109 -31 -203 -30q-244 0 -337 131t-93 381zM408 514q0 -152 37.5 -209t121.5 -57q57 0 156 24v476q-74 12 -137 12q-86 0 -132 -49.5t-46 -196.5z" />
<glyph unicode="r" horiz-adv-x="841" d="M129 45v922q0 45 45 45h223q45 0 45 -45v-99l4 -4q53 55 141.5 101.5t155.5 56.5q13 1 23 1q17 0 27 -4q14 -7 18 -44l25 -201q1 -9 1 -17q0 -17 -7 -25q-9 -11 -52 -19q-184 -35 -336 -88v-580q0 -45 -43 -45h-225q-45 0 -45 45z" />
<glyph unicode="s" horiz-adv-x="999" d="M80 125l22 98q6 29 19.5 35t46.5 0q154 -27 293 -27q78 0 110.5 17.5t32.5 58.5q0 43 -23.5 59.5t-91.5 24.5q-98 14 -158.5 28.5t-123 47.5t-92 91t-29.5 144q0 158 114.5 243t303.5 85q190 0 317 -45q47 -16 62.5 -32.5t7.5 -51.5l-23 -104q-8 -29 -18 -35t-43 -2 q-184 25 -291 24q-8 0 -14 1q-60 0 -80 -16q-23 -17 -23 -54q0 -25 19.5 -39t40 -19.5t67.5 -13.5q94 -12 153.5 -26.5t122 -48t92.5 -95t30 -154.5q0 -176 -128 -256.5t-325 -80.5q-182 0 -321 45q-51 18 -66 38q-8 11 -8 30q0 13 4 30z" />
<glyph unicode="t" horiz-adv-x="837" d="M49 811v154q0 45 43 45h92v200q0 39 45 54l207 55q11 4 20 4q10 0 17 -5q14 -9 14 -34v-274h209q27 0 35 -10.5t8 -32.5v-156q0 -25 -8 -35t-35 -10h-211l2 -381q0 -63 20.5 -86t104.5 -25q39 0 142 9q33 0 41 -15q6 -8 8 -28l18 -148q2 -8 2 -15q0 -14 -7 -26 q-11 -18 -32 -24q-129 -43 -299 -43q-176 0 -239.5 88t-63.5 237v457h-90q-43 0 -43 45z" />
<glyph unicode="u" horiz-adv-x="1136" d="M94 377v588q0 45 43 45h225q43 0 44 -45v-537q0 -158 124 -158q29 0 64 10.5t79 29t50 20.5v635q0 45 43 45h225q45 0 45 -45v-922q0 -43 -45 -43h-225q-43 0 -43 43v51q-2 0 -2 1t-2 1q-68 -51 -157 -81.5t-165 -30.5q-84 0 -142 22.5t-89 54t-48.5 90t-20.5 104.5 t-3 122z" />
<glyph unicode="v" horiz-adv-x="1116" d="M39 958q-6 15 -6 27q0 27 37 27h225q23 0 33 -2t19 -12.5t15 -32.5l115 -361q76 -254 78 -262h10l82 272l119 355q6 25 19.5 34t48.5 9h210q33 0 40 -13q3 -5 3 -12q0 -11 -6 -26l-338 -898q-23 -63 -90 -63h-190q-41 0 -58.5 13.5t-29.5 49.5z" />
<glyph unicode="w" horiz-adv-x="1554" d="M33 981q0 29 33 29h231q47 0 59 -43l93 -342l71 -263h10l74 232l55 162l-71 209q-6 18 1 31.5t29 13.5h205q31 0 42.5 -8.5t19.5 -40.5q66 -215 108 -367l62 -213h8l65 256l84 326q8 29 17.5 38t32.5 9h229q35 0 35 -24q0 -8 -4 -19l-283 -904q-10 -35 -25.5 -49 t-54.5 -14h-172q-35 0 -49 11.5t-27 47.5l-49 148l-67 201h-7l-75 -207l-51 -142q-10 -31 -25.5 -45t-56.5 -14h-158q-39 0 -55.5 12.5t-26.5 44.5l-305 908q-2 6 -2 16z" />
<glyph unicode="x" horiz-adv-x="1060" d="M15 14q-2 4 -2 9q0 13 14 32l323 461l-303 442q-14 18 -8 36t33 18h239q27 0 38 -6.5t26 -28.5l153 -248l154 246q20 37 55 37h254q44 0 44 -23q0 -12 -13 -31l-315 -442l323 -461q10 -15 10 -27q0 -6 -3 -12q-7 -16 -36 -16h-239q-45 0 -66 35l-168 268l-166 -266 q-23 -37 -71 -37h-242q-27 0 -34 14z" />
<glyph unicode="y" horiz-adv-x="1069" d="M29 961q-6 14 -6 24q0 27 38 27h220q31 0 44 -7.5t21 -35.5l96 -297l86 -281h11l94 285q12 39 45 143.5t49 149.5q14 43 70 43h204q38 0 39 -28q0 -11 -6 -26l-487 -1310q-10 -29 -24.5 -38t-49.5 -9h-197q-31 0 -38 11t6 40l139 375z" />
<glyph unicode="z" horiz-adv-x="964" d="M57 41v131q0 45 31 80l428 512h-387q-43 0 -43 45v160q0 43 43 43h717q25 0 34 -9.5t9 -31.5v-137q0 -43 -31 -80l-422 -504h420q45 0 45 -45v-160q0 -45 -45 -45h-758q-41 0 -41 41z" />
<glyph unicode="{" horiz-adv-x="704" d="M59 563v109q0 29 31 35q33 8 51.5 22t25.5 40t9 46.5t2 63.5v317q0 100 65.5 172t186.5 72q51 0 168 -13q35 -2 35 -41v-133q0 -39 -39 -39l-55 -4q-41 -2 -56.5 -23.5t-15.5 -68.5v-268q0 -74 -29.5 -143.5t-105.5 -94.5v-6q47 -16 75.5 -40.5t40 -59.5t14.5 -60.5 t3 -68.5v-291q0 -45 16.5 -66.5t59.5 -23.5l53 -4q39 -4 39 -39v-131q0 -35 -35 -39q-66 -10 -176 -10q-127 0 -185.5 68.5t-58.5 168.5v346q0 55 -3 81t-21.5 50.5t-59.5 36.5q-35 10 -35 39z" />
<glyph unicode="|" horiz-adv-x="608" d="M168 -182v1564q0 45 45 45h184q41 0 41 -45v-1564q0 -45 -41 -45h-184q-45 0 -45 45z" />
<glyph unicode="}" horiz-adv-x="704" d="M57 -47q0 35 37 39l53 4q43 2 59.5 23.5t16.5 66.5v291q0 43 3 68.5t14.5 60.5t40 59.5t75.5 40.5v6q-76 25 -105.5 94.5t-29.5 143.5v268q0 47 -15.5 68.5t-55.5 23.5l-56 4q-37 0 -37 39v133q0 37 33 41q74 10 168 11q121 0 186.5 -71t65.5 -171v-317q0 -43 2 -63.5 t9 -46.5t25.5 -40t51.5 -22q31 -6 31 -35v-109q0 -29 -33 -39q-59 -16 -72.5 -51t-13.5 -117v-346q0 -100 -58.5 -168.5t-183.5 -68.5q-113 0 -178 10q-33 4 -33 39v131z" />
<glyph unicode="~" horiz-adv-x="1222" d="M133 551q98 227 301 227q74 0 215.5 -50t186.5 -50q59 0 112 78q20 31 56 10l86 -51q20 -12 24 -20.5t-2 -26.5q-55 -123 -129 -171t-172 -48q-53 0 -194.5 53t-190.5 53q-63 0 -135 -84q-2 -2 -7 -8t-6.5 -7t-6.5 -4t-8 -2t-10 3t-15 6l-86 47q-33 16 -19 45z" />
<glyph unicode="&#xa1;" horiz-adv-x="600" d="M141 872q0 68 32 109t126 41q92 0 125 -41t33 -109q0 -72 -33 -110.5t-125 -38.5q-88 0 -123 39.5t-35 109.5zM154 -315l28 880q0 41 37 41h162q37 0 41 -41l27 -880q0 -41 -41 -41h-218q-38 0 -36 41z" />
<glyph unicode="&#xa2;" horiz-adv-x="1222" d="M199 510q0 94 13 170t49 151.5t110.5 125t183.5 65.5v246q0 47 41 47h129q39 0 39 -47v-242q139 -10 225 -47q51 -20 43 -76l-22 -125q-6 -29 -26.5 -35t-51.5 0q-143 14 -219 15q-104 0 -150.5 -58.5t-46.5 -183.5q0 -147 42 -204.5t149 -57.5q109 0 245 16 q31 4 43.5 -2t18.5 -35l20 -112q10 -35 0 -54.5t-53 -37.5q-86 -31 -217 -41v-242q0 -45 -39 -45h-129q-41 0 -41 45v246q-113 14 -186.5 61t-109.5 123t-48 153t-12 181z" />
<glyph unicode="&#xa3;" horiz-adv-x="1222" d="M119 188q0 39 47 76q76 51 96 178q8 35 8 131h-100q-25 0 -35 8.5t-10 32.5v146q0 23 10 31t35 8h94q-2 43 -2 125q0 84 2 123q29 324 420 323q227 0 377 -57q41 -14 35 -53l-23 -146q-6 -45 -45 -39q-166 23 -268 23q-170 0 -187 -142q-8 -92 -2 -157h285q25 0 34 -8.5 t9 -30.5v-146q0 -25 -9 -33t-34 -8h-276q-4 -242 -60 -317q55 0 240.5 -1t279.5 -1q41 0 41 -39v-176q0 -25 -8 -32t-33 -7h-876q-43 0 -43 39q-2 51 -2 149z" />
<glyph unicode="&#xa4;" horiz-adv-x="1101" d="M49 935q0 13 23 34l86 82q29 27 41 25.5t37 -25.5l94 -97q86 49 211 52q137 0 227 -56l113 113q29 23 39 22.5t30 -18.5l94 -94q20 -20 19.5 -31.5t-21.5 -34.5l-120 -119q49 -92 49 -196q0 -123 -56 -227l121 -119q23 -23 25 -35t-19 -37l-81 -84q-25 -25 -40.5 -26 t-35.5 20l-125 123q-104 -51 -219 -49q-106 0 -193 41l-115 -109q-27 -25 -37 -27t-34 19l-92 94q-18 16 -17.5 29.5t25.5 36.5l104 102q-57 113 -57 240q0 109 51 209l-104 106q-23 23 -23 36zM360 588q0 -96 48.5 -148.5t136.5 -52.5q94 0 147 55.5t53 145.5q0 94 -52 147 t-148 53q-88 0 -136.5 -53t-48.5 -147z" />
<glyph unicode="&#xa5;" horiz-adv-x="1226" d="M55 1327q0 31 33 31h234q33 0 47 -9.5t30 -39.5l213 -512h13q35 80 101.5 246.5t102.5 250.5q12 25 19.5 36t22 19.5t36.5 8.5h238q33 0 33 -31q0 -12 -7 -20q-59 -117 -167.5 -333t-143.5 -286h187q25 0 32.5 -7t7.5 -28v-90q0 -23 -8 -30t-32 -7h-875q-41 0 -41 37v90 q0 35 41 35h188l-301 619q-4 8 -4 20zM131 326v88q0 37 41 37h875q25 0 32.5 -8.5t7.5 -28.5v-88q0 -23 -8 -31t-32 -8h-279v-242q0 -45 -41 -45h-233q-43 0 -43 45v242h-279q-41 0 -41 39z" />
<glyph unicode="&#xa6;" horiz-adv-x="608" d="M168 -182v723q0 45 45 45h184q41 0 41 -45v-723q0 -45 -41 -45h-184q-45 0 -45 45zM168 743v635q0 47 45 47h184q41 0 41 -47v-635q0 -45 -41 -45h-184q-45 0 -45 45z" />
<glyph unicode="&#xa7;" horiz-adv-x="933" d="M72 500q0 154 123 284q-123 100 -123 256q0 168 122.5 255t290.5 87q221 0 332 -65q45 -25 33 -66l-35 -106q-12 -39 -35.5 -42t-58.5 9q-135 23 -205 23t-117 -25t-47 -66q0 -23 13.5 -42t38 -36.5t45 -28.5t53.5 -26.5t41 -19.5q12 -6 54 -26.5t59.5 -29t53 -29 t52 -35.5t42 -40.5t37 -49.5t20.5 -57.5t9 -70.5q0 -158 -125 -285q123 -113 123 -256q0 -94 -40 -165.5t-106.5 -109.5t-138 -55.5t-147.5 -17.5q-209 0 -321 66q-45 25 -33 65l35 107q12 39 36.5 42t57.5 -10q131 -23 211 -22.5t123 26t43 70.5q0 43 -59.5 86t-160 87 t-110.5 50q-186 105 -186 269zM346 541q0 -68 176 -142q14 -6 23 -10q49 59 49 123q0 51 -78 96q-6 4 -119 58q-51 -70 -51 -125z" />
<glyph unicode="&#xa8;" horiz-adv-x="1097" d="M213 1264q0 68 31.5 103.5t117.5 35.5q88 0 120 -35t32 -104q0 -68 -31.5 -107t-120.5 -39q-92 0 -120.5 38t-28.5 108zM641 1263.5q0 67.5 33 103.5t117 36q90 0 120.5 -35t30.5 -104.5t-30.5 -107.5t-121 -38t-120 39t-29.5 106.5z" />
<glyph unicode="&#xa9;" horiz-adv-x="1691" d="M119 688q0 299 212 508t513 209q307 0 517 -208t210 -509q0 -299 -213 -508t-514 -209t-513 209t-212 508zM291 688.5q0 -229.5 161.5 -391.5t391 -162t392.5 162t163 391.5t-162 390t-393 160.5q-229 0 -391 -160.5t-162 -390zM496 674q0 416 352 416q137 0 225 -37 q41 -16 35 -52l-14 -71q-8 -29 -43 -23q-84 12 -187 13q-166 0 -166 -242q0 -125 35 -184.5t131 -59.5q94 0 189 10q33 6 43 -22l14 -64q10 -39 -31 -55q-90 -39 -231 -39q-352 0 -352 410z" />
<glyph unicode="&#xaa;" horiz-adv-x="806" d="M45 684q0 119 71.5 167t209.5 48h147v19q0 39 -28.5 55t-106.5 16q-61 0 -154 -10q-33 -4 -39 -4q-23 0 -26 26l-15 70q-10 49 52 70q98 35 241 35q188 0 250 -63.5t62 -203.5v-200q0 -33 8 -42.5t35 -13.5q18 -2 25 -5t10.5 -9t3.5 -21v-86q0 -33 -52 -45q-39 -8 -92 -8 q-121 0 -149 86h-4q-92 -90 -238 -90q-121 0 -165 55.5t-46 153.5zM289 692q0 -27 13 -36t46 -9q47 0 121 39v76h-107q-73 0 -73 -70z" />
<glyph unicode="&#xab;" horiz-adv-x="1136" d="M86 373q-33 41 0 80l221 272q31 35 62 35h243q18 0 23.5 -9.5t-4.5 -19.5l-262 -321l249 -316q8 -8 5.5 -22.5t-17.5 -14.5h-241q-25 0 -60 39zM518 373q-31 39 0 80l221 272q31 35 62 35h243q18 0 23.5 -9.5t-4.5 -19.5l-262 -321l250 -316q8 -8 5 -22.5t-18 -14.5h-241 q-25 0 -60 39z" />
<glyph unicode="&#xac;" horiz-adv-x="1222" d="M147 606v139q0 43 43 43h844q25 0 34 -9t9 -31v-498q0 -25 -10 -33t-33 -8h-178q-25 0 -35 8t-10 33v311h-621q-43 0 -43 45z" />
<glyph unicode="&#xad;" horiz-adv-x="841" d="M63 578v155q0 41 43 41h639q25 0 34 -9t9 -30v-157q0 -25 -9 -34t-34 -9h-639q-43 0 -43 43z" />
<glyph unicode="&#xae;" horiz-adv-x="1099" d="M88 1032.5q0 194.5 137 329.5t334 135q199 0 334 -135t135 -329.5t-137 -330t-332 -135.5q-197 0 -334 135.5t-137 330zM203 1032.5q0 -145.5 104.5 -249t251.5 -103.5q145 0 248.5 103.5t103.5 249t-103 248.5t-249 103q-147 0 -251.5 -103t-104.5 -248.5zM371 799v477 q0 23 22 22h191q70 0 122 -40.5t52 -120.5q0 -104 -82 -142l92 -196q10 -23 -12 -23h-101q-23 0 -34 21q-61 143 -76 172h-41v-170q0 -23 -19 -23h-94q-20 0 -20 23zM504 1079h59q57 0 58 56q0 51 -58 51h-59v-107z" />
<glyph unicode="&#xaf;" horiz-adv-x="1097" d="M209 1198v145q0 43 43 43h625q41 0 41 -40v-148q0 -43 -41 -43h-625q-43 0 -43 43z" />
<glyph unicode="&#xb0;" horiz-adv-x="804" d="M74 1063q0 129 99 223t236.5 94t233.5 -94t96 -223q0 -133 -96 -225.5t-233 -92.5q-154 0 -245 91.5t-91 226.5zM272 1059q0 -55 38 -93t96 -38q53 0 92 39t39 92t-39 92t-92.5 39t-93.5 -39t-40 -92z" />
<glyph unicode="&#xb1;" horiz-adv-x="1222" d="M147 68v131q0 43 43 43h844q25 0 33 -9.5t8 -31.5v-133q0 -23 -8 -33t-33 -10h-844q-43 0 -43 43zM147 680v143q0 41 41 41h287v260q0 43 45 43h185q41 0 40 -43v-260h289q25 0 34 -9t9 -32v-143q0 -25 -9 -34t-34 -9h-289v-285q0 -41 -38 -41h-187q-25 0 -35 8.5 t-10 32.5v285h-287q-41 0 -41 43z" />
<glyph unicode="&#xb2;" horiz-adv-x="829" d="M49 705v102q0 39 29 67l334 302q63 59 63 114q0 35 -24.5 49.5t-79.5 14.5q-90 0 -230 -15q-35 -6 -49 -2t-20 37l-13 80q-2 16 -2 29.5t13.5 26t42.5 22.5q102 39 264 39q362 0 362 -266q0 -82 -33.5 -142.5t-107.5 -130.5q-133 -123 -170 -153h291q35 0 35 -35v-139 q0 -33 -35 -33h-637q-33 0 -33 33z" />
<glyph unicode="&#xb3;" horiz-adv-x="829" d="M47 772l19 86q8 31 18 37t41 0q104 -20 225 -21q80 0 118 20.5t38 92.5q0 39 -66 53l-170 31q-33 6 -45 20.5t-12 47.5v51q0 39 25 55l139 105v2h-275q-35 0 -34 32v140q0 35 34 35h598q35 0 35 -35v-99q0 -45 -35 -75q-18 -14 -66 -52t-73 -61l57 -14q147 -39 148 -230 q0 -182 -103.5 -258t-302.5 -76q-147 0 -243 35q-29 10 -41.5 15.5t-22.5 21.5t-6 41z" />
<glyph unicode="&#xb4;" horiz-adv-x="1097" d="M446 1210l191 353q23 39 57 18l156 -88q43 -23 10 -61l-242 -310q-23 -33 -51 -18l-106 57q-31 18 -15 49z" />
<glyph unicode="&#xb5;" horiz-adv-x="1136" d="M94 -354v1319q0 45 43 45h228q43 0 43 -45v-551q0 -80 28.5 -112t93.5 -32q94 0 193 60v635q0 45 43 45h225q45 0 45 -45v-922q0 -43 -45 -43h-225q-43 0 -43 43v49q-2 2 -2 4q-125 -94 -256 -94q-31 0 -57 6q0 -16 -1 -124.5t-1 -237.5q0 -45 -44 -45h-225q-43 0 -43 45 z" />
<glyph unicode="&#x3bc;" horiz-adv-x="1136" d="M94 -354v1319q0 45 43 45h228q43 0 43 -45v-551q0 -80 28.5 -112t93.5 -32q94 0 193 60v635q0 45 43 45h225q45 0 45 -45v-922q0 -43 -45 -43h-225q-43 0 -43 43v49q-2 2 -2 4q-125 -94 -256 -94q-31 0 -57 6q0 -16 -1 -124.5t-1 -237.5q0 -45 -44 -45h-225q-43 0 -43 45 z" />
<glyph unicode="&#xb6;" horiz-adv-x="1155" d="M49 938q0 203 112.5 313.5t291.5 110.5h589q49 0 50 -47v-158q0 -49 -50 -49h-36v-1278q0 -49 -48 -49h-139q-47 0 -47 49v1280h-178v-1280q0 -49 -47 -49h-137q-51 0 -52 49v748q-143 8 -226 112.5t-83 247.5z" />
<glyph unicode="&#xb7;" horiz-adv-x="479" d="M76 551q0 154 164 154q94 0 128.5 -39t34.5 -115q0 -70 -34.5 -113t-128.5 -43q-98 0 -131 42t-33 114z" />
<glyph unicode="&#xb8;" horiz-adv-x="870" d="M260 -428l19 84q2 14 24 12q82 -12 131 -12q57 0 89 16.5t32 67.5q0 53 -127 59q-14 2 -22 2q-47 4 -31 49l59 168q0 2 6 8.5t13 6.5h102q8 0 10 -6.5t0 -10.5l-45 -114q125 -4 169 -48t44 -116q0 -96 -70.5 -155.5t-209.5 -59.5q-104 0 -174 24q-23 9 -19 25z" />
<glyph unicode="&#xb9;" horiz-adv-x="796" d="M115 707v137q0 33 37 33h127v450h-123q-23 0 -30 7t-7 26v80q0 39 33 51l124 53q33 16 78 17h140q39 0 38 -35v-649h140q35 0 35 -33v-137q0 -35 -35 -35h-520q-20 0 -28.5 7.5t-8.5 27.5z" />
<glyph unicode="&#xba;" horiz-adv-x="776" d="M51 834q0 57 11.5 106t43 106.5t102.5 91t175 33.5q86 0 149.5 -20.5t99.5 -52t57.5 -78.5t28.5 -90t7 -96.5t-5 -94.5t-24.5 -93t-54.5 -87t-101.5 -58.5t-156.5 -23.5q-88 0 -152.5 23.5t-98.5 58.5t-53.5 87t-23.5 93.5t-4 94.5zM295 823q0 -80 18.5 -113.5 t69.5 -33.5q57 0 77.5 33.5t20.5 113.5t-19.5 115t-76.5 35q-51 0 -70.5 -36t-19.5 -114z" />
<glyph unicode="&#xbb;" horiz-adv-x="1136" d="M73 748.5q5 11.5 23 11.5h238q31 0 63 -37l219 -272q33 -37 0 -78l-221 -277q-29 -39 -57 -39h-246q-14 0 -16 13.5t6 21.5l254 318l-260 319q-8 8 -3 19.5zM503 748.5q5 11.5 23 11.5h240q31 0 63 -37l220 -272q31 -39 0 -78l-222 -277q-29 -39 -57 -39h-246 q-14 0 -17 13.5t5 21.5l254 318l-258 319q-10 8 -5 19.5z" />
<glyph unicode="&#xbc;" horiz-adv-x="1945" d="M131 522v137q0 33 37 33h127v451h-123q-23 0 -30 7t-7 26v79q0 39 33 52l125 53q33 16 78 16h139q39 0 39 -35v-649h139q35 0 35 -33v-137q0 -35 -35 -35h-520q-20 0 -28.5 7.5t-8.5 27.5zM567 -16l566 1423q12 27 32 27h181q27 0 16 -31l-563 -1426q-8 -25 -31 -24h-180 q-31 0 -21 31zM1018 223v109q0 33 20 55q25 29 180.5 226.5t190.5 236.5q18 25 31.5 31t38.5 6h184q35 0 35 -33v-463h82q33 0 32 -33v-135q0 -35 -32 -35h-82v-153q0 -35 -35 -35h-182q-20 0 -27.5 6t-7.5 29v153h-393q-35 0 -35 35zM1270 387h180v215h-4z" />
<glyph unicode="&#xbd;" horiz-adv-x="1945" d="M113 522v137q0 33 37 33h126v451h-122q-23 0 -30 7t-7 26v79q0 39 33 52l124 53q33 16 78 16h140q39 0 38 -35v-649h140q35 0 35 -33v-137q0 -35 -35 -35h-520q-20 0 -28.5 7.5t-8.5 27.5zM528 -16l566 1423q12 27 32 27h181q27 0 16 -31l-563 -1426q-10 -25 -31 -24 h-180q-31 0 -21 31zM1128 33v102q0 39 29 68l334 301q63 59 63 114q0 35 -24.5 49.5t-79.5 14.5q-90 0 -229 -14q-35 -6 -49.5 -2t-20.5 36l-12 80q-12 57 53 78q102 39 264 39q362 0 363 -266q0 -82 -34 -142.5t-108 -130.5q-133 -123 -170 -153h291q35 0 35 -35v-139 q0 -33 -35 -33h-637q-33 0 -33 33z" />
<glyph unicode="&#xbe;" horiz-adv-x="1945" d="M80 588l18 86q8 31 18.5 37t41.5 0q104 -20 225 -21q80 0 118 20.5t38 92.5q0 39 -66 53l-170 31q-33 6 -45 20.5t-12 46.5v52q0 39 24 55l140 104v2h-275q-35 0 -35 33v139q0 35 35 35h598q35 0 35 -35v-98q0 -45 -35 -76q-18 -14 -66.5 -52t-72.5 -60l57 -15 q147 -39 148 -229q0 -182 -103.5 -258t-302.5 -76q-147 0 -243 35q-29 10 -41.5 15t-22.5 21.5t-6 41.5zM594 -16l565 1423q12 27 33 27h180q27 0 17 -31l-564 -1426q-10 -25 -30 -24h-181q-30 0 -20 31zM1073 223v109q0 33 21 55q25 29 180.5 226.5t189.5 236.5 q27 37 70 37h184q35 0 35 -33v-463h82q33 0 33 -33v-135q0 -35 -33 -35h-82v-153q0 -35 -35 -35h-182q-20 0 -27.5 6t-7.5 29v153h-393q-35 0 -35 35zM1325 387h180v215h-4z" />
<glyph unicode="&#xbf;" horiz-adv-x="892" d="M59 -43q0 70 32 129t62.5 88t82.5 66q86 63 122.5 118.5t36.5 143.5v78q0 45 35 45h203q23 0 32 -8.5t13 -32.5q6 -41 6 -105q0 -96 -29.5 -169.5t-70.5 -118t-123 -111.5q-68 -51 -68 -103q0 -53 37 -74.5t125 -21.5q106 0 199 13q37 4 47 -2.5t14 -32.5l10 -119 q4 -31 -2 -43t-35 -25q-117 -47 -282 -47q-215 0 -331 85t-116 247zM377 870q0 152 160 152q94 0 125.5 -41t31.5 -111q0 -150 -157 -149q-92 0 -126 38.5t-34 110.5z" />
<glyph unicode="&#xc0;" horiz-adv-x="1265" d="M18.5 10q-6.5 10 1.5 43l396 1250q10 33 25.5 46t54.5 13h258q39 0 53 -13.5t27 -48.5l411 -1251q12 -49 -24 -49h-254q-33 0 -46.5 14.5t-23.5 48.5l-68 244h-407l-74 -250q-16 -57 -72 -57h-227q-24 0 -30.5 10zM244 1694l112 141q27 31 60 4l309 -252q29 -20 6 -47 l-76 -96q-20 -23 -55 -4l-342 194q-45 25 -14 60zM492 557h266l-62 225l-65 250h-10l-68 -248z" />
<glyph unicode="&#xc1;" horiz-adv-x="1265" d="M18.5 10q-6.5 10 1.5 43l396 1250q10 33 25.5 46t54.5 13h258q39 0 53 -13.5t27 -48.5l411 -1251q12 -49 -24 -49h-254q-33 0 -46.5 14.5t-23.5 48.5l-68 244h-407l-74 -250q-16 -57 -72 -57h-227q-24 0 -30.5 10zM492 557h266l-62 225l-65 250h-10l-68 -248zM494 1565 q-18 31 12 49l334 219q39 25 59 -12l94 -152q27 -39 -18 -59l-361 -158q-35 -14 -53 10z" />
<glyph unicode="&#xc2;" horiz-adv-x="1265" d="M18.5 10q-6.5 10 1.5 43l396 1250q10 33 25.5 46t54.5 13h258q39 0 53 -13.5t27 -48.5l411 -1251q12 -49 -24 -49h-254q-33 0 -46.5 14.5t-23.5 48.5l-68 244h-407l-74 -250q-16 -57 -72 -57h-227q-24 0 -30.5 10zM200 1533q-1 9 15 30l252 229l8 8q6 6 8 7t7.5 6.5 t8.5 6.5l9 3q6 2 11 3t12.5 2t15.5 1h131q45 0 82 -31l252 -233q29 -25 -2 -56l-68 -71q-18 -14 -26.5 -12.5t-30.5 16.5l-277 178l-266 -180q-20 -16 -30.5 -17.5t-28.5 15.5l-66 69q-16 17 -17 26zM492 557h266l-62 225l-65 250h-10l-68 -248z" />
<glyph unicode="&#xc3;" horiz-adv-x="1265" d="M18.5 10q-6.5 10 1.5 43l396 1250q10 33 25.5 46t54.5 13h258q39 0 53 -13.5t27 -48.5l411 -1251q12 -49 -24 -49h-254q-33 0 -46.5 14.5t-23.5 48.5l-68 244h-407l-74 -250q-16 -57 -72 -57h-227q-24 0 -30.5 10zM193 1552q90 231 264 232q63 0 178 -50.5t151 -50.5 q68 0 115 78q14 27 55 8l76 -40q29 -14 19 -48q-92 -223 -263 -223q-47 0 -166.5 49t-162.5 49q-70 0 -121 -75q-8 -12 -12 -16.5t-13.5 -3.5t-25.5 9l-78 35q-28 14 -16 47zM492 557h266l-62 225l-65 250h-10l-68 -248z" />
<glyph unicode="&#xc4;" horiz-adv-x="1265" d="M18.5 10q-6.5 10 1.5 43l396 1250q10 33 25.5 46t54.5 13h258q39 0 53 -13.5t27 -48.5l411 -1251q12 -49 -24 -49h-254q-33 0 -46.5 14.5t-23.5 48.5l-68 244h-407l-74 -250q-16 -57 -72 -57h-227q-24 0 -30.5 10zM262 1593q0 68 32 104t118 36q88 0 119.5 -35t31.5 -105 q0 -68 -31.5 -106.5t-119.5 -38.5q-92 0 -121 37.5t-29 107.5zM492 557h266l-62 225l-65 250h-10l-68 -248zM682 1593q0 68 33 104t119 36q88 0 118.5 -35t30.5 -104.5t-30.5 -107.5t-118.5 -38q-92 0 -122 37.5t-30 107.5z" />
<glyph unicode="&#xc5;" horiz-adv-x="1265" d="M18.5 10q-6.5 10 1.5 43l396 1250q10 33 25.5 46t54.5 13h258q39 0 53 -13.5t27 -48.5l411 -1251q12 -49 -24 -49h-254q-33 0 -46.5 14.5t-23.5 48.5l-68 244h-407l-74 -250q-16 -57 -72 -57h-227q-24 0 -30.5 10zM365 1648.5q0 106.5 78.5 177t183 70.5t179.5 -74.5 t75 -172.5q0 -102 -75 -176t-179.5 -74t-183 71.5t-78.5 178zM492 557h266l-62 225l-65 250h-10l-68 -248zM532 1649q0 -45 27 -72t68 -27q37 0 63.5 29t26.5 70q0 39 -26.5 67.5t-63.5 28.5q-39 0 -67 -28.5t-28 -67.5z" />
<glyph unicode="&#xc6;" horiz-adv-x="1904" d="M20 51l674 1260q18 31 36 41t58 10h969q47 0 47 -45v-187q0 -43 -47 -43h-528v-247h463q45 0 45 -43v-187q0 -43 -45 -43h-463v-295h540q43 0 43 -45v-186q0 -41 -45 -41h-821q-45 0 -45 41v266h-407l-140 -260q-29 -47 -82 -47h-231q-48 0 -21 51zM625 557h276v526h-4z " />
<glyph unicode="&#xc7;" horiz-adv-x="1214" d="M119 674q0 702 594 702q233 0 385 -65q35 -16 48 -35t7 -53l-27 -119q-6 -29 -19 -37t-50 -4q-211 23 -314 22q-160 0 -219 -106.5t-59 -298.5q0 -209 58.5 -310.5t217.5 -101.5q115 0 318 23q39 4 51 -3t20 -38l27 -109q16 -61 -51 -92q-162 -70 -391 -69h-17l-30 -78 q125 -4 169 -48t44 -116q0 -96 -71 -155.5t-210 -59.5q-104 0 -174 24q-23 8 -18 25l18 84q2 14 25 12q82 -12 131 -12q57 0 88.5 16.5t31.5 67.5q0 53 -127 59q-14 2 -22 2q-47 4 -31 49l49 142q-452 76 -452 682z" />
<glyph unicode="&#xc8;" d="M139 43v1272q0 47 45 47h813q43 0 43 -45v-187q0 -43 -45 -43h-530v-247h463q47 0 47 -43v-187q0 -43 -47 -43h-463v-295h541q45 0 45 -45v-186q0 -41 -45 -41h-822q-45 0 -45 43zM242 1694l112 141q27 31 60 4l309 -252q29 -20 6 -47l-76 -96q-20 -23 -55 -4l-342 194 q-45 25 -14 60z" />
<glyph unicode="&#xc9;" d="M139 43v1272q0 47 45 47h813q43 0 43 -45v-187q0 -43 -45 -43h-530v-247h463q47 0 47 -43v-187q0 -43 -47 -43h-463v-295h541q45 0 45 -45v-186q0 -41 -45 -41h-822q-45 0 -45 43zM399 1565q-18 31 13 49l333 219q39 25 60 -12l94 -152q27 -39 -18 -59l-361 -158 q-35 -14 -53 10z" />
<glyph unicode="&#xca;" d="M139 43v1272q0 47 45 47h813q43 0 43 -45v-187q0 -43 -45 -43h-530v-247h463q47 0 47 -43v-187q0 -43 -47 -43h-463v-295h541q45 0 45 -45v-186q0 -41 -45 -41h-822q-45 0 -45 43zM175 1535q-1 9 15 30l252 229l9 8q6 6 8 7t7 6.5t8 6.5l9 3q6 2 11.5 3t12.5 2t15 1h131 q45 0 82 -31l252 -233q29 -25 -2 -56l-67 -71q-18 -14 -26.5 -12t-31.5 16l-276 178l-267 -180q-20 -16 -30.5 -17.5t-28.5 15.5l-65 69q-17 17 -18 26z" />
<glyph unicode="&#xcb;" d="M139 43v1272q0 47 45 47h813q43 0 43 -45v-187q0 -43 -45 -43h-530v-247h463q47 0 47 -43v-187q0 -43 -47 -43h-463v-295h541q45 0 45 -45v-186q0 -41 -45 -41h-822q-45 0 -45 43zM231 1595q0 68 32 104t118 36q88 0 119.5 -35t31.5 -105q0 -68 -31.5 -106.5 t-119.5 -38.5q-92 0 -121 37.5t-29 107.5zM651 1595q0 68 33 104t119 36q88 0 118.5 -35t30.5 -104.5t-30.5 -107.5t-118.5 -38q-92 0 -122 37.5t-30 107.5z" />
<glyph unicode="&#xcc;" horiz-adv-x="622" d="M-74 1694l113 141q27 31 59 4l310 -252q29 -20 6 -47l-76 -96q-20 -23 -55 -4l-342 194q-46 25 -15 60zM147 45v1270q0 47 43 47h240q43 0 43 -47v-1270q0 -45 -43 -45h-240q-43 0 -43 45z" />
<glyph unicode="&#xcd;" horiz-adv-x="622" d="M147 45v1270q0 47 43 47h240q43 0 43 -47v-1270q0 -45 -43 -45h-240q-43 0 -43 45zM186 1565q-18 31 13 49l333 219q39 25 60 -12l94 -152q27 -39 -18 -59l-361 -158q-35 -14 -53 10z" />
<glyph unicode="&#xce;" horiz-adv-x="622" d="M-91 1512.5q-1 9.5 15 29.5l252 230l8 8q6 6 8.5 7t7.5 6t8 6l9 3q6 2 11 3t12.5 2t15.5 1h131q45 0 82 -30l252 -234q29 -25 -2 -55l-68 -72q-18 -14 -26.5 -12t-30.5 16l-277 178l-266 -180q-20 -16 -30.5 -17t-28.5 15l-66 70q-16 16 -17 25.5zM147 45v1270 q0 47 43 47h240q43 0 43 -47v-1270q0 -45 -43 -45h-240q-43 0 -43 45z" />
<glyph unicode="&#xcf;" horiz-adv-x="622" d="M-45 1587q0 68 31.5 103.5t117.5 35.5q88 0 120 -34.5t32 -104.5q0 -68 -31.5 -106.5t-120.5 -38.5q-92 0 -120.5 37.5t-28.5 107.5zM147 45v1270q0 47 43 47h240q43 0 43 -47v-1270q0 -45 -43 -45h-240q-43 0 -43 45zM375 1587q0 68 32.5 103.5t118.5 35.5 q88 0 119 -34.5t31 -104t-31 -107.5t-119 -38q-92 0 -121.5 37.5t-29.5 107.5z" />
<glyph unicode="&#xd0;" horiz-adv-x="1347" d="M-20 629v127q0 39 43 39h114v520q0 45 45 45h447q602 0 602 -676q0 -684 -602 -684h-445q-47 0 -47 45v545h-114q-43 0 -43 39zM461 272h131q301 0 301 398q0 217 -69.5 317t-217.5 100h-145v-292h176q41 0 41 -37v-129q0 -39 -41 -39h-176v-318z" />
<glyph unicode="&#xd1;" horiz-adv-x="1372" d="M135 43v1272q0 45 45 45h168q29 0 48.5 -9.5t27.5 -18.5t22 -32q233 -350 463 -708l2 2h4v719q0 47 46 47h227q43 0 43 -47v-1270q0 -43 -43 -43h-168q-57 0 -88 47q-27 39 -138.5 207t-172.5 258l-162 250h-6v-719q0 -43 -43 -43h-228q-47 0 -47 43zM252 1536 q90 231 264 231q61 0 176 -50t154 -50q68 0 115 78q14 27 55 8l76 -41q29 -14 18 -47q-92 -223 -262 -223q-47 0 -167 49t-163 49q-70 0 -121 -76q-8 -12 -12 -16t-13.5 -3t-25.5 9l-78 35q-28 14 -16 47z" />
<glyph unicode="&#xd2;" horiz-adv-x="1411" d="M117 698q0 86 10 165t46 177.5t95.5 169t171 119.5t260.5 49q182 0 306 -58t183.5 -163.5t81 -212t21.5 -246.5q0 -109 -10 -195.5t-46 -189t-97.5 -171t-174 -114.5t-266 -46t-264 47t-171 114.5t-94.5 171t-43 188t-9 195.5zM426 1694l113 141q27 31 59 4l309 -252 q29 -20 6 -47l-75 -96q-20 -23 -56 -4l-342 194q-45 25 -14 60zM461 676q0 -215 53 -314.5t188 -99.5q141 0 198.5 99.5t57.5 314.5q0 225 -56 323.5t-200 98.5q-133 0 -187 -100.5t-54 -321.5z" />
<glyph unicode="&#xd3;" horiz-adv-x="1411" d="M117 698q0 86 10 165t46 177.5t95.5 169t171 119.5t260.5 49q182 0 306 -58t183.5 -163.5t81 -212t21.5 -246.5q0 -109 -10 -195.5t-46 -189t-97.5 -171t-174 -114.5t-266 -46t-264 47t-171 114.5t-94.5 171t-43 188t-9 195.5zM461 676q0 -215 53 -314.5t188 -99.5 q141 0 198.5 99.5t57.5 314.5q0 225 -56 323.5t-200 98.5q-133 0 -187 -100.5t-54 -321.5zM569 1565q-18 31 13 49l333 219q39 25 60 -12l94 -152q27 -39 -18 -59l-361 -158q-35 -14 -53 10z" />
<glyph unicode="&#xd4;" horiz-adv-x="1411" d="M117 698q0 86 10 165t46 177.5t95.5 169t171 119.5t260.5 49q182 0 306 -58t183.5 -163.5t81 -212t21.5 -246.5q0 -109 -10 -195.5t-46 -189t-97.5 -171t-174 -114.5t-266 -46t-264 47t-171 114.5t-94.5 171t-43 188t-9 195.5zM302 1533q-1 9 15 30l252 229l9 8q6 6 8 7 t7 6.5t8 6.5l9 3q6 2 11.5 3t12.5 2t15 1h131q45 0 82 -31l252 -233q29 -25 -2 -56l-68 -71q-18 -14 -26 -12.5t-31 16.5l-276 178l-267 -180q-20 -16 -30.5 -17.5t-28.5 15.5l-66 69q-16 17 -17 26zM461 676q0 -215 53 -314.5t188 -99.5q141 0 198.5 99.5t57.5 314.5 q0 225 -56 323.5t-200 98.5q-133 0 -187 -100.5t-54 -321.5z" />
<glyph unicode="&#xd5;" horiz-adv-x="1411" d="M117 698q0 86 10 165t46 177.5t95.5 169t171 119.5t260.5 49q182 0 306 -58t183.5 -163.5t81 -212t21.5 -246.5q0 -109 -10 -195.5t-46 -189t-97.5 -171t-174 -114.5t-266 -46t-264 47t-171 114.5t-94.5 171t-43 188t-9 195.5zM285 1556q90 231 264 232q61 0 176 -50 t154 -50q68 0 114 77q14 27 56 9l75 -41q29 -14 19 -47q-92 -223 -262 -224q-47 0 -167 49.5t-163 49.5q-70 0 -121 -76q-8 -12 -12 -16.5t-13.5 -3.5t-25.5 10l-78 34q-28 14 -16 47zM461 676q0 -215 53 -314.5t188 -99.5q141 0 198.5 99.5t57.5 314.5q0 225 -56 323.5 t-200 98.5q-133 0 -187 -100.5t-54 -321.5z" />
<glyph unicode="&#xd6;" horiz-adv-x="1411" d="M117 698q0 86 10 165t46 177.5t95.5 169t171 119.5t260.5 49q182 0 306 -58t183.5 -163.5t81 -212t21.5 -246.5q0 -109 -10 -195.5t-46 -189t-97.5 -171t-174 -114.5t-266 -46t-264 47t-171 114.5t-94.5 171t-43 188t-9 195.5zM346 1606q0 68 32 103.5t118 35.5 q88 0 119.5 -35t31.5 -104q0 -68 -31.5 -107t-119.5 -39q-92 0 -121 38t-29 108zM461 676q0 -215 53 -314.5t188 -99.5q141 0 198.5 99.5t57.5 314.5q0 225 -56 323.5t-200 98.5q-133 0 -187 -100.5t-54 -321.5zM766 1606q0 68 32.5 103.5t119.5 35.5q88 0 118.5 -35 t30.5 -104.5t-30.5 -107.5t-118.5 -38q-92 0 -122 38t-30 108z" />
<glyph unicode="&#xd7;" horiz-adv-x="1222" d="M209 373q-29 29 0 59l229 230l-227 229q-31 31 -2 55l119 121q33 33 59 2l229 -229l226 225q29 31 61 0l121 -121q29 -31 0 -59l-227 -226l227 -225q29 -29 0 -61l-121 -119q-29 -29 -59 2l-223 227l-232 -233q-31 -31 -57 0z" />
<glyph unicode="&#xd8;" horiz-adv-x="1411" d="M117 698q0 86 10 165t46 177.5t95.5 169t171 119.5t260.5 49q236 0 381 -104l47 61q18 23 25.5 26t28.5 -11l53 -41q18 -16 18 -24.5t-16 -29.5l-59 -79q115 -164 114 -478q0 -109 -10 -195.5t-46 -189t-97.5 -171t-174 -114.5t-266.5 -46q-219 0 -354 92l-53 -70 q-18 -23 -25.5 -26t-27.5 12l-54 41q-18 16 -18 24t16 29l64 82q-129 167 -129 532zM461 676q0 -125 14 -205l414 547q-57 80 -187 80q-133 0 -187 -100.5t-54 -321.5zM537 328q53 -66 165 -66q141 0 198.5 99.5t57.5 314.5q0 119 -14 192z" />
<glyph unicode="&#xd9;" horiz-adv-x="1343" d="M137 506v809q0 47 45 47h236q43 0 43 -47v-801q0 -252 209 -252q215 0 215 252l-2 801q0 47 47 47h235q43 0 43 -47l-2 -809q0 -143 -39 -244q-59 -143 -194 -211.5t-303 -68.5q-254 -2 -393.5 140t-139.5 384zM342 1673l113 142q27 31 59 4l309 -252q29 -20 6 -47 l-75 -97q-20 -23 -56 -4l-342 195q-45 24 -14 59z" />
<glyph unicode="&#xda;" horiz-adv-x="1343" d="M137 506v809q0 47 45 47h236q43 0 43 -47v-801q0 -252 209 -252q215 0 215 252l-2 801q0 47 47 47h235q43 0 43 -47l-2 -809q0 -143 -39 -244q-59 -143 -194 -211.5t-303 -68.5q-254 -2 -393.5 140t-139.5 384zM545 1544q-18 31 12 49l334 219q39 25 59 -12l94 -151 q27 -39 -18 -60l-360 -157q-35 -14 -54 10z" />
<glyph unicode="&#xdb;" horiz-adv-x="1343" d="M137 506v809q0 47 45 47h236q43 0 43 -47v-801q0 -252 209 -252q215 0 215 252l-2 801q0 47 47 47h235q43 0 43 -47l-2 -809q0 -143 -39 -244q-59 -143 -194 -211.5t-303 -68.5q-254 -2 -393.5 140t-139.5 384zM263 1537q-1 9 16 30l251 229l9 8q6 6 8 7t7 6.5t8 6.5l9 3 q6 2 11.5 3t12.5 2t15 1h131q45 0 82 -31l252 -233q29 -25 -2 -56l-67 -71q-18 -14 -26.5 -12t-31.5 16l-276 178l-266 -180q-20 -16 -30.5 -17.5t-29.5 15.5l-65 69q-17 17 -18 26z" />
<glyph unicode="&#xdc;" horiz-adv-x="1343" d="M137 506v809q0 47 45 47h236q43 0 43 -47v-801q0 -252 209 -252q215 0 215 252l-2 801q0 47 47 47h235q43 0 43 -47l-2 -809q0 -143 -39 -244q-59 -143 -194 -211.5t-303 -68.5q-254 -2 -393.5 140t-139.5 384zM305 1597q0 68 32 104t118 36q88 0 119.5 -35t31.5 -105 q0 -68 -31.5 -106.5t-119.5 -38.5q-92 0 -121 37.5t-29 107.5zM725 1597q0 68 33 104t119 36q88 0 118.5 -35t30.5 -104.5t-30.5 -107.5t-118.5 -38q-92 0 -122 37.5t-30 107.5z" />
<glyph unicode="&#xdd;" horiz-adv-x="1288" d="M22.5 1346.5q6.5 15.5 28.5 15.5h244q35 0 49 -9.5t31 -39.5l135 -269l121 -245h12l127 248l131 251q12 25 19.5 36.5t22.5 19.5t38 8h246q23 0 30 -14.5t-4 -30.5l-462 -817v-455q0 -45 -41 -45h-238q-45 0 -45 45v455l-440 811q-11 20 -4.5 35.5zM504 1544 q-18 31 12 49l334 219q39 25 59 -12l95 -151q27 -39 -19 -60l-360 -157q-35 -14 -54 10z" />
<glyph unicode="&#xde;" horiz-adv-x="1169" d="M133 45v1270q0 47 45 47h236q45 0 45 -47v-187h192q201 0 333 -109.5t132 -313.5q0 -78 -21.5 -149t-69.5 -139.5t-143.5 -108.5t-228.5 -40h-194v-223q0 -45 -43 -45h-238q-45 0 -45 45zM459 530h153q80 0 125 43t45 125q0 158 -176 158h-147v-326z" />
<glyph unicode="&#xdf;" horiz-adv-x="1130" d="M96 10v1024q0 113 41 199t105.5 134t136.5 71.5t143 23.5q201 0 315.5 -95t114.5 -277q0 -59 -26.5 -133t-83.5 -119q117 -45 158.5 -145.5t41.5 -246.5q0 -238 -100 -355.5t-303 -115.5q-45 0 -84 7q-53 10 -51 59l10 147q2 20 8 25.5t35 11.5q94 12 131 64.5t35 173.5 q0 111 -39 163t-139 58q-37 2 -37 35v110q0 37 37 48q117 45 117 184q0 61 -32 101t-95 40q-57 0 -91 -41t-34 -121v-1030q0 -45 -45 -45h-226q-43 0 -43 45z" />
<glyph unicode="&#xe0;" horiz-adv-x="1173" d="M80 285q-6 340 393 340h236v32q0 68 -36 94.5t-145 26.5q-88 0 -268 -18q-43 -6 -56.5 0t-21.5 35l-22 106q-4 29 8 45.5t57 34.5q131 49 353 49q141 0 230 -24.5t133 -79t59.5 -119t15.5 -164.5v-324q0 -61 13 -76.5t63 -21.5q27 -2 35 -9t8 -26v-131q0 -41 -60 -53 q-57 -14 -127 -14q-178 0 -211 133l-4 2q-74 -70 -176 -104.5t-190 -34.5q-164 0 -225.5 82t-61.5 219zM324 1405q-33 37 4 61l141 109q37 20 59 -12l228 -326q23 -29 -6 -49l-97 -76q-23 -20 -51 8zM395 301q0 -47 19.5 -65.5t72.5 -18.5q96 0 215 72v137h-184 q-61 0 -92 -27.5t-31 -97.5z" />
<glyph unicode="&#xe1;" horiz-adv-x="1173" d="M80 285q-6 340 393 340h236v32q0 68 -36 94.5t-145 26.5q-88 0 -268 -18q-43 -6 -56.5 0t-21.5 35l-22 106q-4 29 8 45.5t57 34.5q131 49 353 49q141 0 230 -24.5t133 -79t59.5 -119t15.5 -164.5v-324q0 -61 13 -76.5t63 -21.5q27 -2 35 -9t8 -26v-131q0 -41 -60 -53 q-57 -14 -127 -14q-178 0 -211 133l-4 2q-74 -70 -176 -104.5t-190 -34.5q-164 0 -225.5 82t-61.5 219zM395 301q0 -47 19.5 -65.5t72.5 -18.5q96 0 215 72v137h-184q-61 0 -92 -27.5t-31 -97.5zM473 1210l191 353q23 39 57 18l156 -88q43 -23 10 -61l-242 -310 q-23 -33 -51 -18l-107 57q-30 18 -14 49z" />
<glyph unicode="&#xe2;" horiz-adv-x="1173" d="M80 285q-6 340 393 340h236v32q0 68 -36 94.5t-145 26.5q-88 0 -268 -18q-43 -6 -56.5 0t-21.5 35l-22 106q-4 29 8 45.5t57 34.5q131 49 353 49q141 0 230 -24.5t133 -79t59.5 -119t15.5 -164.5v-324q0 -61 13 -76.5t63 -21.5q27 -2 35 -9t8 -26v-131q0 -41 -60 -53 q-57 -14 -127 -14q-178 0 -211 133l-4 2q-74 -70 -176 -104.5t-190 -34.5q-164 0 -225.5 82t-61.5 219zM172 1153q-27 25 0 53l248 273q14 16 21.5 21t21.5 10.5t39 5.5h131q35 0 49 -6.5t31 -24.5l250 -281q27 -29 0 -53l-72 -68q-27 -23 -60 2l-270 209l-258 -207 q-23 -16 -32 -18t-27 14zM395 301q0 -47 19.5 -65.5t72.5 -18.5q96 0 215 72v137h-184q-61 0 -92 -27.5t-31 -97.5z" />
<glyph unicode="&#xe3;" horiz-adv-x="1173" d="M80 285q-6 340 393 340h236v32q0 68 -36 94.5t-145 26.5q-88 0 -268 -18q-43 -6 -56.5 0t-21.5 35l-22 106q-4 29 8 45.5t57 34.5q131 49 353 49q141 0 230 -24.5t133 -79t59.5 -119t15.5 -164.5v-324q0 -61 13 -76.5t63 -21.5q27 -2 35 -9t8 -26v-131q0 -41 -60 -53 q-57 -14 -127 -14q-178 0 -211 133l-4 2q-74 -70 -176 -104.5t-190 -34.5q-164 0 -225.5 82t-61.5 219zM166 1229q90 231 264 231q61 0 176 -50t154 -50q68 0 114 78q14 27 56 8l76 -41q29 -14 18 -47q-92 -223 -262 -223q-47 0 -167 49t-163 49q-70 0 -121 -76 q-8 -12 -12 -16t-13.5 -3t-25.5 9l-78 35q-28 14 -16 47zM395 301q0 -47 19.5 -65.5t72.5 -18.5q96 0 215 72v137h-184q-61 0 -92 -27.5t-31 -97.5z" />
<glyph unicode="&#xe4;" horiz-adv-x="1173" d="M80 285q-6 340 393 340h236v32q0 68 -36 94.5t-145 26.5q-88 0 -268 -18q-43 -6 -56.5 0t-21.5 35l-22 106q-4 29 8 45.5t57 34.5q131 49 353 49q141 0 230 -24.5t133 -79t59.5 -119t15.5 -164.5v-324q0 -61 13 -76.5t63 -21.5q27 -2 35 -9t8 -26v-131q0 -41 -60 -53 q-57 -14 -127 -14q-178 0 -211 133l-4 2q-74 -70 -176 -104.5t-190 -34.5q-164 0 -225.5 82t-61.5 219zM225 1284q0 68 32 103.5t118 35.5q88 0 119.5 -34.5t31.5 -104.5q0 -68 -31.5 -106.5t-119.5 -38.5q-92 0 -121 37.5t-29 107.5zM395 301q0 -47 19.5 -65.5t72.5 -18.5 q96 0 215 72v137h-184q-61 0 -92 -27.5t-31 -97.5zM653 1284.5q0 67.5 33 103t117 35.5q90 0 120.5 -34.5t30.5 -104.5t-30.5 -107.5t-120.5 -37.5t-120 39t-30 106.5z" />
<glyph unicode="&#xe5;" horiz-adv-x="1173" d="M80 285q-6 340 393 340h236v32q0 68 -36 94.5t-145 26.5q-88 0 -268 -18q-43 -6 -56.5 0t-21.5 35l-22 106q-4 29 8 45.5t57 34.5q131 49 353 49q141 0 230 -24.5t133 -79t59.5 -119t15.5 -164.5v-324q0 -61 13 -76.5t63 -21.5q27 -2 35 -9t8 -26v-131q0 -41 -60 -53 q-57 -14 -127 -14q-178 0 -211 133l-4 2q-74 -70 -176 -104.5t-190 -34.5q-164 0 -225.5 82t-61.5 219zM336 1335.5q0 106.5 79 177t183 70.5t179 -74.5t75 -173.5q0 -102 -75 -176t-179 -74t-183 72t-79 178.5zM395 301q0 -47 19.5 -65.5t72.5 -18.5q96 0 215 72v137h-184 q-61 0 -92 -27.5t-31 -97.5zM504 1335q0 -45 26.5 -71.5t67.5 -26.5q37 0 63.5 28.5t26.5 69.5q0 39 -26.5 68t-63.5 29q-39 0 -66.5 -29t-27.5 -68z" />
<glyph unicode="&#xe6;" horiz-adv-x="1720" d="M90 283q0 176 99.5 253.5t291.5 77.5h238v43q0 68 -36 94.5t-144 26.5q-84 0 -269 -18q-29 -8 -50 -3t-27 36l-23 106q-12 53 63 80q133 49 355 49q227 0 319 -94q109 94 279 94q467 0 467 -471q0 -135 -113 -135h-504q8 -111 57.5 -145.5t161.5 -34.5q109 0 248 20 q29 8 46.5 2t23.5 -43l18 -102q6 -37 -3 -54.5t-52 -35.5q-123 -47 -334 -47q-279 0 -389 143q-172 -141 -422 -141q-176 0 -238.5 80t-62.5 219zM406 297q0 -43 20 -62.5t70 -19.5q43 0 116.5 23.5t122.5 50.5q-12 51 -18 133h-174q-74 0 -105.5 -28.5t-31.5 -96.5z M1044 612h281q-4 172 -139 172q-132 0 -142 -172z" />
<glyph unicode="&#xe7;" horiz-adv-x="978" d="M84 510q0 82 10 149.5t41 139t81 121t136 80t203 30.5q199 0 322 -51q51 -20 43 -76l-23 -125q-8 -31 -21.5 -36t-56.5 1q-143 14 -221 15q-102 0 -148.5 -58.5t-46.5 -183.5q0 -147 42 -204.5t149 -57.5q104 0 246 16q20 4 32.5 3t18.5 -9t10 -31l21 -112 q8 -37 -1.5 -55.5t-52.5 -36.5q-127 -43 -297 -47l-30 -80q125 -4 169 -48t44 -116q0 -96 -71 -155.5t-210 -59.5q-104 0 -174 24q-23 8 -18 25l18 84q2 14 25 12q82 -12 131 -12q57 0 88.5 16.5t31.5 67.5q0 53 -126 59q-14 2 -23 2q-47 4 -31 49l49 140q-90 12 -156.5 48 t-105.5 83t-61.5 114.5t-29.5 131t-7 143.5z" />
<glyph unicode="&#xe8;" horiz-adv-x="1091" d="M86 498q0 532 467 532q461 0 465 -467q0 -68 -24.5 -99.5t-88.5 -31.5h-499q6 -113 58 -151.5t163 -38.5q74 0 241 20q25 4 39.5 2t19.5 -11t11 -36l16 -96q4 -23 3 -39t-13 -28.5t-43 -24.5q-135 -47 -330 -47q-147 0 -247.5 40.5t-149.5 117.5t-68.5 161t-19.5 197z M287 1405q-33 37 4 61l141 109q37 20 60 -12l227 -326q23 -29 -6 -49l-97 -76q-23 -20 -51 8zM410 616h284q0 174 -141 175q-133 -1 -143 -175z" />
<glyph unicode="&#xe9;" horiz-adv-x="1091" d="M86 498q0 532 467 532q461 0 465 -467q0 -68 -24.5 -99.5t-88.5 -31.5h-499q6 -113 58 -151.5t163 -38.5q74 0 241 20q25 4 39.5 2t19.5 -11t11 -36l16 -96q4 -23 3 -39t-13 -28.5t-43 -24.5q-135 -47 -330 -47q-147 0 -247.5 40.5t-149.5 117.5t-68.5 161t-19.5 197z M410 616h284q0 174 -141 175q-133 -1 -143 -175zM446 1210l191 353q23 39 57 18l156 -88q43 -23 10 -61l-242 -310q-23 -33 -51 -18l-106 57q-31 18 -15 49z" />
<glyph unicode="&#xea;" horiz-adv-x="1091" d="M86 498q0 532 467 532q461 0 465 -467q0 -68 -24.5 -99.5t-88.5 -31.5h-499q6 -113 58 -151.5t163 -38.5q74 0 241 20q25 4 39.5 2t19.5 -11t11 -36l16 -96q4 -23 3 -39t-13 -28.5t-43 -24.5q-135 -47 -330 -47q-147 0 -247.5 40.5t-149.5 117.5t-68.5 161t-19.5 197z M162 1153q-27 25 0 53l248 273q33 37 82 37h131q35 0 49 -6.5t30 -24.5l250 -281q27 -29 0 -53l-71 -68q-27 -23 -60 2l-270 209l-258 -207q-23 -16 -32 -18t-28 14zM410 616h284q0 174 -141 175q-133 -1 -143 -175z" />
<glyph unicode="&#xeb;" horiz-adv-x="1091" d="M86 498q0 532 467 532q461 0 465 -467q0 -68 -24.5 -99.5t-88.5 -31.5h-499q6 -113 58 -151.5t163 -38.5q74 0 241 20q25 4 39.5 2t19.5 -11t11 -36l16 -96q4 -23 3 -39t-13 -28.5t-43 -24.5q-135 -47 -330 -47q-147 0 -247.5 40.5t-149.5 117.5t-68.5 161t-19.5 197z M197 1264q0 68 31.5 103.5t117.5 35.5q88 0 120 -35t32 -104q0 -68 -32 -107t-120 -39q-92 0 -120.5 38t-28.5 108zM410 616h284q0 174 -141 175q-133 -1 -143 -175zM625 1263.5q0 67.5 32.5 103.5t116.5 36q90 0 121 -35t31 -104.5t-31 -107.5t-121 -38t-119.5 39 t-29.5 106.5z" />
<glyph unicode="&#xec;" horiz-adv-x="548" d="M-37 1405q-33 37 4 61l142 109q37 20 59 -12l227 -326q23 -29 -6 -49l-96 -76q-23 -20 -51 8zM119 45v922q0 45 45 45h223q43 0 43 -45v-922q0 -45 -43 -45h-223q-45 0 -45 45z" />
<glyph unicode="&#xed;" horiz-adv-x="548" d="M119 45v922q0 45 45 45h223q43 0 43 -45v-922q0 -45 -43 -45h-223q-45 0 -45 45zM199 1210l190 353q23 39 57 18l156 -88q43 -23 10 -61l-241 -310q-23 -33 -52 -18l-106 57q-30 18 -14 49z" />
<glyph unicode="&#xee;" horiz-adv-x="802" d="M6 1153q-27 25 0 53l248 273q33 37 82 37h131q35 0 49 -6.5t31 -24.5l250 -281q27 -29 0 -53l-72 -68q-27 -23 -59 2l-271 209l-258 -207q-23 -16 -32 -18t-27 14zM238 45v922q0 45 45 45h223q43 0 43 -45v-922q0 -45 -43 -45h-223q-45 0 -45 45z" />
<glyph unicode="&#xef;" horiz-adv-x="708" d="M-10 1264q0 68 31.5 103.5t117.5 35.5q88 0 120 -35t32 -104q0 -68 -32 -107t-120 -39q-92 0 -120.5 38t-28.5 108zM197 45v922q0 45 45 45h223q43 0 43 -45v-922q0 -45 -43 -45h-223q-45 0 -45 45zM418 1263.5q0 67.5 32.5 103.5t116.5 36q90 0 121 -35t31 -104.5 t-31 -107.5t-121 -38t-119.5 39t-29.5 106.5z" />
<glyph unicode="&#xf0;" horiz-adv-x="1114" d="M82 485q0 131 41 245t143.5 196t253.5 82q113 0 187 -52l4 7q-35 104 -127 196l-158 -65q-35 -16 -45 8l-21 49q-10 27 21 39l113 49q-49 49 -172 127q-27 16 -11 51l43 74q27 47 74 29q143 -51 289 -170l143 63q37 18 49 -8l21 -45q14 -31 -15 -43l-112 -49 q231 -240 237 -645q0 -98 -9 -178t-38.5 -170.5t-81 -151t-143.5 -100t-217 -39.5q-141 0 -238.5 45t-145.5 123.5t-66.5 158.5t-18.5 174zM391 498q0 -129 33 -190.5t125 -61.5q100 0 134 64.5t34 195.5q0 129 -30 190.5t-130 61.5q-92 0 -129 -66.5t-37 -193.5z" />
<glyph unicode="&#xf1;" d="M96 43v922q0 45 45 45h224q43 0 43 -45v-50q2 0 6 -2q68 51 158 83t163 32q84 0 143.5 -24.5t91 -60.5t49 -95.5t21.5 -106.5t4 -116v-582q0 -43 -43 -43h-225q-45 0 -45 43q0 90 1 269.5t1 267.5q0 84 -29.5 120.5t-95.5 36.5q-29 0 -65.5 -10t-80.5 -27.5t-54 -21.5 v-635q0 -43 -43 -43h-224q-45 0 -45 43zM121 1208q90 231 264 232q61 0 176 -50.5t154 -50.5q68 0 114 78q14 27 56 8l76 -41q29 -14 18 -47q-92 -223 -262 -223q-47 0 -167 49t-163 49q-70 0 -121 -75q-8 -12 -12 -16.5t-13.5 -3.5t-25.5 9l-78 35q-28 14 -16 47z" />
<glyph unicode="&#xf2;" horiz-adv-x="1124" d="M86 520q0 68 8 126.5t37 133t77 126.5t137 88t210 36t212 -30.5t142.5 -79t82 -119t39.5 -136t9 -145.5q0 -82 -7 -143.5t-34.5 -140t-77 -130t-143.5 -87t-223 -35.5q-127 0 -218 35.5t-138 87t-74 130t-33 140t-6 143.5zM276 1405q-33 37 5 61l141 109q37 20 59 -12 l228 -326q23 -29 -7 -49l-96 -76q-23 -20 -51 8zM401 508q0 -139 33 -198.5t121 -59.5q98 0 132 59.5t34 198.5t-32 197.5t-130 58.5q-90 0 -124 -62.5t-34 -193.5z" />
<glyph unicode="&#xf3;" horiz-adv-x="1124" d="M86 520q0 68 8 126.5t37 133t77 126.5t137 88t210 36t212 -30.5t142.5 -79t82 -119t39.5 -136t9 -145.5q0 -82 -7 -143.5t-34.5 -140t-77 -130t-143.5 -87t-223 -35.5q-127 0 -218 35.5t-138 87t-74 130t-33 140t-6 143.5zM401 508q0 -139 33 -198.5t121 -59.5 q98 0 132 59.5t34 198.5t-32 197.5t-130 58.5q-90 0 -124 -62.5t-34 -193.5zM457 1210l190 353q23 39 58 18l155 -88q43 -23 10 -61l-241 -310q-23 -33 -51 -18l-107 57q-30 18 -14 49z" />
<glyph unicode="&#xf4;" horiz-adv-x="1124" d="M86 520q0 68 8 126.5t37 133t77 126.5t137 88t210 36t212 -30.5t142.5 -79t82 -119t39.5 -136t9 -145.5q0 -82 -7 -143.5t-34.5 -140t-77 -130t-143.5 -87t-223 -35.5q-127 0 -218 35.5t-138 87t-74 130t-33 140t-6 143.5zM170 1153q-27 25 0 53l248 273q33 37 82 37h131 q35 0 49 -6.5t31 -24.5l250 -281q27 -29 0 -53l-72 -68q-27 -23 -60 2l-270 209l-258 -207q-23 -16 -32 -18t-27 14zM401 508q0 -139 33 -198.5t121 -59.5q98 0 132 59.5t34 198.5t-32 197.5t-130 58.5q-90 0 -124 -62.5t-34 -193.5z" />
<glyph unicode="&#xf5;" horiz-adv-x="1124" d="M86 520q0 68 8 126.5t37 133t77 126.5t137 88t210 36t212 -30.5t142.5 -79t82 -119t39.5 -136t9 -145.5q0 -82 -7 -143.5t-34.5 -140t-77 -130t-143.5 -87t-223 -35.5q-127 0 -218 35.5t-138 87t-74 130t-33 140t-6 143.5zM139 1229q90 231 264 231q63 0 178 -50t152 -50 q68 0 115 78q14 27 55 8l76 -41q29 -14 18 -47q-92 -223 -262 -223q-47 0 -166.5 49t-162.5 49q-70 0 -121 -76q-8 -12 -12.5 -16t-13.5 -3t-26 9l-77 35q-29 14 -17 47zM401 508q0 -139 33 -198.5t121 -59.5q98 0 132 59.5t34 198.5t-32 197.5t-130 58.5q-90 0 -124 -62.5 t-34 -193.5z" />
<glyph unicode="&#xf6;" horiz-adv-x="1124" d="M86 520q0 68 8 126.5t37 133t77 126.5t137 88t210 36t212 -30.5t142.5 -79t82 -119t39.5 -136t9 -145.5q0 -82 -7 -143.5t-34.5 -140t-77 -130t-143.5 -87t-223 -35.5q-127 0 -218 35.5t-138 87t-74 130t-33 140t-6 143.5zM205 1284q0 68 31.5 103.5t117.5 35.5 q88 0 120 -34.5t32 -104.5q0 -68 -32 -106.5t-120 -38.5q-92 0 -120.5 37.5t-28.5 107.5zM401 508q0 -139 33 -198.5t121 -59.5q98 0 132 59.5t34 198.5t-32 197.5t-130 58.5q-90 0 -124 -62.5t-34 -193.5zM633 1284.5q0 67.5 32.5 103t116.5 35.5q90 0 121 -34.5t31 -104.5 t-31 -107.5t-121 -37.5t-119.5 39t-29.5 106.5z" />
<glyph unicode="&#xf7;" horiz-adv-x="1222" d="M147 594v143q0 41 43 41h844q25 0 34 -9t9 -32v-143q0 -25 -9 -34t-34 -9h-844q-43 0 -43 43zM446 299q0 72 35 111t127 39q94 0 127 -37t33 -113q0 -74 -31.5 -114t-128.5 -40q-98 0 -130 40t-32 114zM446 1022q0 72 35 109.5t127 37.5q94 0 127 -36.5t33 -110.5 t-31.5 -115t-128.5 -41q-98 0 -130 41t-32 115z" />
<glyph unicode="&#xf8;" horiz-adv-x="1124" d="M86 520q0 68 8 126.5t37 133t77 126.5t137 88t210 36q178 0 289 -65l67 82q18 20 25.5 23t28.5 -13l51 -43q18 -16 18 -24.5t-18 -28.5l-70 -87q94 -123 94 -354q0 -82 -7 -143.5t-34.5 -140t-77 -130t-143.5 -87t-223 -35.5q-170 0 -281 63l-47 -57q-18 -20 -25 -23.5 t-28 10.5l-51 46q-18 16 -18.5 24t18.5 29l51 63q-88 119 -88 381zM401 508q0 -59 2 -86l256 315q-37 27 -100 27q-90 0 -124 -62.5t-34 -193.5zM461 276q33 -27 94 -26q98 0 132 59.5t34 198.5q0 35 -4 84z" />
<glyph unicode="&#xf9;" horiz-adv-x="1136" d="M94 377v588q0 45 43 45h225q43 0 44 -45v-537q0 -158 124 -158q29 0 64 10.5t79 29t50 20.5v635q0 45 43 45h225q45 0 45 -45v-922q0 -43 -45 -43h-225q-43 0 -43 43v51q-2 0 -2 1t-2 1q-68 -51 -157 -81.5t-165 -30.5q-84 0 -142 22.5t-89 54t-48.5 90t-20.5 104.5 t-3 122zM272 1405q-33 37 4 61l142 109q37 20 59 -12l228 -326q23 -29 -7 -49l-96 -76q-23 -20 -51 8z" />
<glyph unicode="&#xfa;" horiz-adv-x="1136" d="M94 377v588q0 45 43 45h225q43 0 44 -45v-537q0 -158 124 -158q29 0 64 10.5t79 29t50 20.5v635q0 45 43 45h225q45 0 45 -45v-922q0 -43 -45 -43h-225q-43 0 -43 43v51q-2 0 -2 1t-2 1q-68 -51 -157 -81.5t-165 -30.5q-84 0 -142 22.5t-89 54t-48.5 90t-20.5 104.5 t-3 122zM442 1210l191 353q23 39 57 18l156 -88q43 -23 10 -61l-242 -310q-23 -33 -51 -18l-106 57q-31 18 -15 49z" />
<glyph unicode="&#xfb;" horiz-adv-x="1136" d="M94 377v588q0 45 43 45h225q43 0 44 -45v-537q0 -158 124 -158q29 0 64 10.5t79 29t50 20.5v635q0 45 43 45h225q45 0 45 -45v-922q0 -43 -45 -43h-225q-43 0 -43 43v51q-2 0 -2 1t-2 1q-68 -51 -157 -81.5t-165 -30.5q-84 0 -142 22.5t-89 54t-48.5 90t-20.5 104.5 t-3 122zM170 1153q-27 25 0 53l248 273q33 37 82 37h131q35 0 49 -6.5t31 -24.5l250 -281q27 -29 0 -53l-72 -68q-27 -23 -60 2l-270 209l-258 -207q-23 -16 -32 -18t-27 14z" />
<glyph unicode="&#xfc;" horiz-adv-x="1136" d="M94 377v588q0 45 43 45h225q43 0 44 -45v-537q0 -158 124 -158q29 0 64 10.5t79 29t50 20.5v635q0 45 43 45h225q45 0 45 -45v-922q0 -43 -45 -43h-225q-43 0 -43 43v51q-2 0 -2 1t-2 1q-68 -51 -157 -81.5t-165 -30.5q-84 0 -142 22.5t-89 54t-48.5 90t-20.5 104.5 t-3 122zM213 1264q0 68 31.5 103.5t117.5 35.5q88 0 120 -35t32 -104q0 -68 -31.5 -107t-120.5 -39q-92 0 -120.5 38t-28.5 108zM641 1263.5q0 67.5 33 103.5t117 36q90 0 120.5 -35t30.5 -104.5t-30.5 -107.5t-121 -38t-120 39t-29.5 106.5z" />
<glyph unicode="&#xfd;" horiz-adv-x="1069" d="M29 961q-20 51 32 51h220q31 0 44 -7.5t21 -35.5l96 -297l86 -281h11l94 285q12 39 45 143.5t49 149.5q14 43 70 43h204q53 0 33 -54l-487 -1310q-10 -29 -24.5 -38t-49.5 -9h-197q-31 0 -38 11t6 40l139 375zM424 1210l190 353q23 39 58 18l155 -88q43 -23 11 -61 l-242 -310q-23 -33 -51 -18l-107 57q-30 18 -14 49z" />
<glyph unicode="&#xfe;" horiz-adv-x="1128" d="M100 -354v1669q0 45 47 45h224q43 0 43 -45v-400l2 -2h2q158 113 291 113q197 0 270.5 -135t73.5 -383q0 -266 -89.5 -397t-326.5 -131q-111 0 -221 30h-2v-364q0 -45 -43 -45h-224q-47 0 -47 45zM414 268q80 -23 159 -22q90 0 125 52t35 206q0 139 -28.5 187t-96.5 48 q-66 0 -194 -59v-412z" />
<glyph unicode="&#xff;" horiz-adv-x="1069" d="M29 961q-20 51 32 51h220q31 0 44 -7.5t21 -35.5l96 -297l86 -281h11l94 285q12 39 45 143.5t49 149.5q14 43 70 43h204q53 0 33 -54l-487 -1310q-10 -29 -24.5 -38t-49.5 -9h-197q-31 0 -38 11t6 40l139 375zM174 1264q0 68 32 103.5t118 35.5q88 0 119.5 -35t31.5 -104 q0 -68 -31.5 -107t-119.5 -39q-92 0 -121 38t-29 108zM602 1263.5q0 67.5 33 103.5t117 36q90 0 120.5 -35t30.5 -104.5t-30.5 -107.5t-120.5 -38t-120 39t-30 106.5z" />
<glyph unicode="&#x100;" horiz-adv-x="1265" d="M18.5 10q-6.5 10 1.5 43l396 1250q10 33 25.5 46t54.5 13h258q39 0 53 -13.5t27 -48.5l411 -1251q12 -49 -24 -49h-254q-33 0 -46.5 14.5t-23.5 48.5l-68 244h-407l-74 -250q-16 -57 -72 -57h-227q-24 0 -30.5 10zM270 1495v143q0 43 43 43h623q41 0 41 -41v-145 q0 -25 -8 -34t-33 -9h-623q-43 0 -43 43zM492 557h266l-62 225l-65 250h-10l-68 -248z" />
<glyph unicode="&#x101;" horiz-adv-x="1173" d="M80 285q-6 340 393 340h236v32q0 68 -36 94.5t-145 26.5q-88 0 -268 -18q-43 -6 -56.5 0t-21.5 35l-22 106q-4 29 8 45.5t57 34.5q131 49 353 49q141 0 230 -24.5t133 -79t59.5 -119t15.5 -164.5v-324q0 -61 13 -76.5t63 -21.5q27 -2 35 -9t8 -26v-131q0 -41 -60 -53 q-57 -14 -127 -14q-178 0 -211 133l-4 2q-74 -70 -176 -104.5t-190 -34.5q-164 0 -225.5 82t-61.5 219zM223 1206v146q0 43 43 43h625q41 0 41 -41v-148q0 -43 -41 -43h-625q-43 0 -43 43zM395 301q0 -47 19.5 -65.5t72.5 -18.5q96 0 215 72v137h-184q-61 0 -92 -27.5 t-31 -97.5z" />
<glyph unicode="&#x102;" horiz-adv-x="1265" d="M18.5 10q-6.5 10 1.5 43l396 1250q10 33 25.5 46t54.5 13h258q39 0 53 -13.5t27 -48.5l411 -1251q12 -49 -24 -49h-254q-33 0 -46.5 14.5t-23.5 48.5l-68 244h-407l-74 -250q-16 -57 -72 -57h-227q-24 0 -30.5 10zM197 1726.5q2 16.5 16 26.5l74 59q31 14 39 10.5 t32 -28.5q111 -131 246 -131q143 0 244 131q33 43 74 16l71 -43q25 -25 23 -42t-23 -52q-123 -227 -385 -227q-125 0 -232.5 54t-162.5 165q-12 25 -15 35t-1 26.5zM492 557h266l-62 225l-65 250h-10l-68 -248z" />
<glyph unicode="&#x103;" horiz-adv-x="1173" d="M80 285q-6 340 393 340h236v32q0 68 -36 94.5t-145 26.5q-88 0 -268 -18q-43 -6 -56.5 0t-21.5 35l-22 106q-4 29 8 45.5t57 34.5q131 49 353 49q141 0 230 -24.5t133 -79t59.5 -119t15.5 -164.5v-324q0 -61 13 -76.5t63 -21.5q27 -2 35 -9t8 -26v-131q0 -41 -60 -53 q-57 -14 -127 -14q-178 0 -211 133l-4 2q-74 -70 -176 -104.5t-190 -34.5q-164 0 -225.5 82t-61.5 219zM165 1417q-1 6 0 9.5t3 8.5t6 9l8 8l74 59q31 14 40 10.5t34 -28.5q68 -82 121 -114.5t127 -32.5q68 0 122 32.5t119 114.5q18 25 32.5 28t39.5 -12l74 -45 q16 -10 19 -26.5t-1 -28.5t-18 -39q-63 -121 -164 -185.5t-223.5 -64.5t-233.5 63.5t-162 180.5q-2 2 -5 11t-4 11.5t-4 9.5t-3 11t-1 10zM395 301q0 -47 19.5 -65.5t72.5 -18.5q96 0 215 72v137h-184q-61 0 -92 -27.5t-31 -97.5z" />
<glyph unicode="&#x104;" horiz-adv-x="1265" d="M18.5 10q-6.5 10 1.5 43l396 1250q10 33 25.5 46t54.5 13h258q39 0 53 -13.5t27 -48.5l411 -1251q12 -49 -24 -49h-64q-51 -84 -51 -164q0 -72 88 -72q47 0 113 17q31 6 36 -14q4 -8 25 -78q12 -31 -22 -45q-86 -43 -211 -43q-111 0 -170.5 58t-59.5 154.5t68 186.5h-6 q-33 0 -46.5 14.5t-23.5 48.5l-68 244h-407l-74 -250q-16 -57 -72 -57h-227q-24 0 -30.5 10zM492 557h266l-62 225l-65 250h-10l-68 -248z" />
<glyph unicode="&#x105;" horiz-adv-x="1173" d="M80 285q-6 340 393 340h236v32q0 68 -36 94.5t-145 26.5q-88 0 -268 -18q-43 -6 -56.5 0t-21.5 35l-22 106q-4 29 8 45.5t57 34.5q131 49 353 49q141 0 230 -24.5t133 -79t59.5 -119t15.5 -164.5v-324q0 -61 13 -76.5t63 -21.5q27 -2 35 -9t8 -26v-131q0 -41 -60 -53 q-61 -12 -94 -14q-45 -80 -45 -152t88 -72q47 0 113 17q31 6 37 -14q4 -8 24 -78q12 -31 -22 -45q-86 -43 -211 -43q-111 0 -170.5 58t-59.5 155q0 106 78 200q-57 29 -76 107l-4 2q-74 -70 -176 -104.5t-190 -34.5q-164 0 -225.5 82t-61.5 219zM395 301q0 -47 19.5 -65.5 t72.5 -18.5q96 0 215 72v137h-184q-61 0 -92 -27.5t-31 -97.5z" />
<glyph unicode="&#x106;" horiz-adv-x="1214" d="M119 674q0 702 594 702q233 0 385 -65q35 -16 48 -35t7 -53l-27 -119q-6 -29 -19 -37t-50 -4q-211 23 -314 22q-160 0 -219 -106.5t-59 -298.5q0 -209 58.5 -310.5t217.5 -101.5q115 0 318 23q39 4 51 -3t20 -38l27 -109q16 -61 -51 -92q-162 -70 -391 -69 q-596 0 -596 694zM541 1565q-18 31 12 49l334 219q39 25 59 -12l94 -152q27 -39 -18 -59l-360 -158q-35 -14 -54 10z" />
<glyph unicode="&#x107;" horiz-adv-x="978" d="M84 510q0 82 10 149.5t41 139t81 121t136 80t203 30.5q199 0 322 -51q51 -20 43 -76l-23 -125q-8 -31 -21.5 -36t-56.5 1q-143 14 -221 15q-102 0 -148.5 -58.5t-46.5 -183.5q0 -147 42 -204.5t149 -57.5q104 0 246 16q20 4 32.5 3t18.5 -9t10 -31l21 -112 q8 -37 -1.5 -55.5t-52.5 -36.5q-135 -47 -313 -47q-147 0 -245.5 43t-144.5 122.5t-63.5 163.5t-17.5 199zM375 1210l190 353q23 39 58 18l155 -88q43 -23 10 -61l-241 -310q-23 -33 -51 -18l-107 57q-30 18 -14 49z" />
<glyph unicode="&#x108;" horiz-adv-x="1214" d="M119 674q0 702 594 702q233 0 385 -65q35 -16 48 -35t7 -53l-27 -119q-6 -29 -19 -37t-50 -4q-211 23 -314 22q-160 0 -219 -106.5t-59 -298.5q0 -209 58.5 -310.5t217.5 -101.5q115 0 318 23q39 4 51 -3t20 -38l27 -109q16 -61 -51 -92q-162 -70 -391 -69 q-596 0 -596 694zM286 1543q-1 9 15 30l252 229l8 8q6 6 8 7.5t7.5 6.5t8.5 6l9 3q6 2 11 3t12.5 2t15.5 1h131q45 0 82 -31l252 -233q29 -25 -2 -55l-68 -72q-18 -14 -26.5 -12t-30.5 16l-277 178l-266 -180q-20 -16 -30.5 -17t-28.5 15l-66 70q-16 16 -17 25z" />
<glyph unicode="&#x109;" horiz-adv-x="978" d="M84 510q0 82 10 149.5t41 139t81 121t136 80t203 30.5q199 0 322 -51q51 -20 43 -76l-23 -125q-8 -31 -21.5 -36t-56.5 1q-143 14 -221 15q-102 0 -148.5 -58.5t-46.5 -183.5q0 -147 42 -204.5t149 -57.5q104 0 246 16q20 4 32.5 3t18.5 -9t10 -31l21 -112 q8 -37 -1.5 -55.5t-52.5 -36.5q-135 -47 -313 -47q-147 0 -245.5 43t-144.5 122.5t-63.5 163.5t-17.5 199zM135 1174q-27 25 0 53l248 272q14 16 21.5 21.5t21.5 10.5t39 5h131q35 0 49 -6t31 -25l250 -280q27 -29 0 -54l-72 -67q-27 -23 -59 2l-271 209l-258 -207 q-23 -16 -32 -18.5t-27 14.5z" />
<glyph unicode="&#x10a;" horiz-adv-x="1214" d="M119 674q0 702 594 702q233 0 385 -65q35 -16 48 -35t7 -53l-27 -119q-6 -29 -19 -37t-50 -4q-211 23 -314 22q-160 0 -219 -106.5t-59 -298.5q0 -209 58.5 -310.5t217.5 -101.5q115 0 318 23q39 4 51 -3t20 -38l27 -109q16 -61 -51 -92q-162 -70 -391 -69 q-596 0 -596 694zM530 1636q0 152 162 152q92 0 127 -39t35 -113q0 -152 -162 -151q-96 0 -129 41.5t-33 109.5z" />
<glyph unicode="&#x10b;" horiz-adv-x="978" d="M84 510q0 82 10 149.5t41 139t81 121t136 80t203 30.5q199 0 322 -51q51 -20 43 -76l-23 -125q-8 -31 -21.5 -36t-56.5 1q-143 14 -221 15q-102 0 -148.5 -58.5t-46.5 -183.5q0 -147 42 -204.5t149 -57.5q104 0 246 16q20 4 32.5 3t18.5 -9t10 -31l21 -112 q8 -37 -1.5 -55.5t-52.5 -36.5q-135 -47 -313 -47q-147 0 -245.5 43t-144.5 122.5t-63.5 163.5t-17.5 199zM393 1282q0 152 162 152q92 0 127 -39t35 -113q0 -152 -162 -152q-96 0 -129 42t-33 110z" />
<glyph unicode="&#x10c;" horiz-adv-x="1214" d="M119 674q0 702 594 702q233 0 385 -65q35 -16 48 -35t7 -53l-27 -119q-6 -29 -19 -37t-50 -4q-211 23 -314 22q-160 0 -219 -106.5t-59 -298.5q0 -209 58.5 -310.5t217.5 -101.5q115 0 318 23q39 4 51 -3t20 -38l27 -109q16 -61 -51 -92q-162 -70 -391 -69 q-596 0 -596 694zM301 1716q-29 31 0 56l66 71q18 23 57 -2l268 -166l275 164q23 14 32 16.5t27 -12.5l68 -69q14 -16 15 -24.5t-15 -29.5l-252 -235q-35 -31 -80 -31h-131q-47 0 -82 35z" />
<glyph unicode="&#x10d;" horiz-adv-x="978" d="M84 510q0 82 10 149.5t41 139t81 121t136 80t203 30.5q199 0 322 -51q51 -20 43 -76l-23 -125q-8 -31 -21.5 -36t-56.5 1q-143 14 -221 15q-102 0 -148.5 -58.5t-46.5 -183.5q0 -147 42 -204.5t149 -57.5q104 0 246 16q20 4 32.5 3t18.5 -9t10 -31l21 -112 q8 -37 -1.5 -55.5t-52.5 -36.5q-135 -47 -313 -47q-147 0 -245.5 43t-144.5 122.5t-63.5 163.5t-17.5 199zM118 1443q1 9 17 25l70 70q25 25 59 -4l260 -207l269 209q33 25 59 2l72 -68q27 -25 2 -55l-252 -278q-16 -18 -30.5 -24.5t-49.5 -6.5h-131q-35 0 -49.5 7t-32.5 30 l-248 272q-16 19 -15 28z" />
<glyph unicode="&#x10e;" horiz-adv-x="1347" d="M137 45v1270q0 45 45 45h447q602 0 602 -676q0 -684 -602 -684h-445q-47 0 -47 45zM199 1712q-29 31 0 55l65 72q18 23 58 -2l268 -166l274 164q23 14 32 16t28 -12l67 -70q14 -16 15.5 -24t-15.5 -29l-252 -235q-35 -31 -80 -31h-131q-47 0 -82 35zM461 272h131 q301 0 301 398q0 217 -69.5 317t-217.5 100h-145v-815z" />
<glyph unicode="&#x10f;" horiz-adv-x="1462" d="M82 492q0 133 16.5 224t59.5 166.5t128 112.5t212 37q113 0 221 -33q0 2 2 2v398q0 47 43 47h223q43 0 43 -47v-1356q0 -43 -43 -43h-225q-41 0 -41 41v53h-2q-2 2 -4 2q-150 -113 -291 -112q-100 0 -170 36.5t-106.5 108.5t-51 158t-14.5 205zM399 502q0 -143 28 -189.5 t95.5 -46.5t196.5 62v413q-88 23 -160 23q-90 0 -125 -54t-35 -208zM1135 1360.5q0 19.5 32 48.5l133 98q35 20 52.5 15.5t46.5 -31.5q84 -78 84 -197q0 -125 -55.5 -219t-143.5 -147q-45 -25 -76 10l-53 55q-20 23 -19 35t27 41q53 53 54 131q0 47 -54 113q-28 28 -28 47.5 z" />
<glyph unicode="&#x110;" horiz-adv-x="1347" d="M-4 621v127q0 39 43 38h98v529q0 45 45 45h447q602 0 602 -676q0 -684 -602 -684h-445q-47 0 -47 45v537h-98q-43 0 -43 39zM461 272h131q301 0 301 398q0 217 -69.5 317t-217.5 100h-145v-301h192q41 0 41 -36v-129q0 -39 -41 -39h-192v-310z" />
<glyph unicode="&#x111;" horiz-adv-x="1161" d="M82 463q0 268 84 391t332 123h30q115 -8 191 -33h2v139h-270q-20 0 -26.5 6.5t-6.5 26.5v109q0 20 6 26t27 6h270v142q0 47 43 47h223q43 0 43 -47v-142h88q20 0 26.5 -7t6.5 -27v-109q0 -18 -6 -24.5t-25 -6.5h-90v-1040q0 -43 -43 -43h-223q-43 0 -43 43v51h-2 q-2 2 -4 2q-141 -111 -297 -110h-10q-39 0 -66 6q-150 23 -205 140.5t-55 330.5zM399 473q0 -123 28 -165t95.5 -42t196.5 62v358q-88 23 -160 23q-88 0 -124 -52.5t-36 -183.5z" />
<glyph unicode="&#x112;" d="M139 43v1272q0 47 45 47h813q43 0 43 -45v-187q0 -43 -45 -43h-530v-247h463q47 0 47 -43v-187q0 -43 -47 -43h-463v-295h541q45 0 45 -45v-186q0 -41 -45 -41h-822q-45 0 -45 43zM248 1536v143q0 43 43 43h622q41 0 41 -41v-145q0 -25 -8 -34t-33 -9h-622q-43 0 -43 43z " />
<glyph unicode="&#x113;" horiz-adv-x="1091" d="M86 498q0 532 467 532q461 0 465 -467q0 -68 -24.5 -99.5t-88.5 -31.5h-499q6 -113 58 -151.5t163 -38.5q74 0 241 20q25 4 39.5 2t19.5 -11t11 -36l16 -96q4 -23 3 -39t-13 -28.5t-43 -24.5q-135 -47 -330 -47q-147 0 -247.5 40.5t-149.5 117.5t-68.5 161t-19.5 197z M201 1198v145q0 43 43 43h624q41 0 41 -40v-148q0 -43 -41 -43h-624q-43 0 -43 43zM410 616h284q0 174 -141 175q-133 -1 -143 -175z" />
<glyph unicode="&#x114;" d="M139 43v1272q0 47 45 47h813q43 0 43 -45v-187q0 -43 -45 -43h-530v-247h463q47 0 47 -43v-187q0 -43 -47 -43h-463v-295h541q45 0 45 -45v-186q0 -41 -45 -41h-822q-45 0 -45 43zM168 1740.5q2 16.5 16 26.5l74 60q31 14 39 10t33 -29q111 -131 245 -131q143 0 244 131 q33 43 74 17l72 -43q25 -25 22.5 -42.5t-22.5 -51.5q-123 -227 -385 -228q-125 0 -232.5 54.5t-163.5 164.5q-12 25 -15 35t-1 26.5z" />
<glyph unicode="&#x115;" horiz-adv-x="1091" d="M86 498q0 532 467 532q461 0 465 -467q0 -68 -24.5 -99.5t-88.5 -31.5h-499q6 -113 58 -151.5t163 -38.5q74 0 241 20q25 4 39.5 2t19.5 -11t11 -36l16 -96q4 -23 3 -39t-13 -28.5t-43 -24.5q-135 -47 -330 -47q-147 0 -247.5 40.5t-149.5 117.5t-68.5 161t-19.5 197z M140 1415q-1 6 0 9t3 8.5t7 9.5l8 8l73 59q31 14 40.5 10.5t33.5 -28.5q68 -82 121 -115t127 -33q68 0 122 33t120 115q18 25 32.5 28t38.5 -12l74 -45q16 -10 19.5 -26.5t-1 -28.5t-18.5 -39q-63 -121 -163.5 -185.5t-223.5 -64.5t-233.5 63.5t-161.5 180.5q-2 2 -5 11 t-4.5 11t-4.5 9.5t-3 11.5t-1 10zM410 616h284q0 174 -141 175q-133 -1 -143 -175z" />
<glyph unicode="&#x116;" d="M139 43v1272q0 47 45 47h813q43 0 43 -45v-187q0 -43 -45 -43h-530v-247h463q47 0 47 -43v-187q0 -43 -47 -43h-463v-295h541q45 0 45 -45v-186q0 -41 -45 -41h-822q-45 0 -45 43zM449 1620q0 152 161 152q92 0 127 -39t35 -113q0 -152 -162 -152q-96 0 -128.5 42 t-32.5 110z" />
<glyph unicode="&#x117;" horiz-adv-x="1091" d="M86 498q0 532 467 532q461 0 465 -467q0 -68 -24.5 -99.5t-88.5 -31.5h-499q6 -113 58 -151.5t163 -38.5q74 0 241 20q25 4 39.5 2t19.5 -11t11 -36l16 -96q4 -23 3 -39t-13 -28.5t-43 -24.5q-135 -47 -330 -47q-147 0 -247.5 40.5t-149.5 117.5t-68.5 161t-19.5 197z M410 616h284q0 174 -141 175q-133 -1 -143 -175zM410 1282q0 152 161 152q92 0 127 -39t35 -113q0 -152 -162 -152q-96 0 -128.5 42t-32.5 110z" />
<glyph unicode="&#x118;" d="M139 43v1272q0 47 45 47h813q43 0 43 -45v-187q0 -43 -45 -43h-530v-247h463q47 0 47 -43v-187q0 -43 -47 -43h-463v-295h541q45 0 45 -45v-186q0 -41 -45 -41h-35q-51 -84 -51 -164q0 -72 88 -72q47 0 112 17q31 6 37 -14q4 -8 25 -78q12 -31 -23 -45q-86 -43 -211 -43 q-111 0 -170 58t-59 154.5t67 186.5h-602q-45 0 -45 43z" />
<glyph unicode="&#x119;" horiz-adv-x="1091" d="M86 498q0 532 467 532q461 0 465 -467q0 -68 -24.5 -99.5t-88.5 -31.5h-499q6 -113 58 -151.5t163 -38.5q74 0 241 20q25 4 39.5 2t19.5 -11t11 -36l16 -96q4 -23 3 -39t-13 -28.5t-43 -24.5q-29 -10 -57 -17q-59 -90 -60 -176q0 -72 88 -72q47 0 113 17q31 6 37 -14 q4 -8 25 -78q12 -31 -23 -45q-86 -43 -211 -43q-111 0 -170 58t-59 155q0 88 55 170q-12 0 -34.5 -1t-33.5 -1q-147 0 -247.5 40.5t-149.5 117.5t-68.5 161t-19.5 197zM410 616h284q0 174 -141 175q-133 -1 -143 -175z" />
<glyph unicode="&#x11a;" d="M139 43v1272q0 47 45 47h813q43 0 43 -45v-187q0 -43 -45 -43h-530v-247h463q47 0 47 -43v-187q0 -43 -47 -43h-463v-295h541q45 0 45 -45v-186q0 -41 -45 -41h-822q-45 0 -45 43zM195 1714q-29 31 0 55l65 72q18 23 57 -2l269 -166l274 164q23 14 32 16t28 -12l67 -69 q14 -16 15.5 -24.5t-15.5 -29.5l-252 -235q-35 -31 -80 -31h-131q-47 0 -82 35z" />
<glyph unicode="&#x11b;" horiz-adv-x="1091" d="M86 498q0 532 467 532q461 0 465 -467q0 -68 -24.5 -99.5t-88.5 -31.5h-499q6 -113 58 -151.5t163 -38.5q74 0 241 20q25 4 39.5 2t19.5 -11t11 -36l16 -96q4 -23 3 -39t-13 -28.5t-43 -24.5q-135 -47 -330 -47q-147 0 -247.5 40.5t-149.5 117.5t-68.5 161t-19.5 197z M151 1447q1 9 17 26l70 69q25 25 59 -4l260 -207l268 209q33 25 60 2l71 -67q27 -25 2 -56l-251 -278q-16 -18 -30.5 -24.5t-49.5 -6.5h-131q-35 0 -49.5 7t-32.5 30l-248 272q-16 19 -15 28zM410 616h284q0 174 -141 175q-133 -1 -143 -175z" />
<glyph unicode="&#x11c;" horiz-adv-x="1320" d="M121 676q0 700 592 700q238 0 385 -65q68 -27 55 -88l-27 -121q-6 -31 -19 -37t-50 -2q-193 25 -307 24q-160 0 -221.5 -107.5t-61.5 -299.5q0 -203 55.5 -309.5t212.5 -106.5q74 0 150 15v245h-140q-47 0 -47 43v172q0 43 47 43h408q20 0 33.5 -12t13.5 -31 q0 -338 -2 -581q0 -86 -63 -111q-178 -68 -428 -67q-139 0 -244 37.5t-169.5 100t-104 155t-54 188.5t-14.5 215zM290 1533q-1 9 15 30l252 229l8 8q6 6 8 7t7.5 6.5t8.5 6.5l9 3q6 2 11 3t12.5 2t15.5 1h131q45 0 82 -31l252 -233q29 -25 -2 -56l-68 -71 q-18 -14 -26.5 -12.5t-30.5 16.5l-277 178l-266 -180q-20 -16 -30.5 -17.5t-28.5 15.5l-66 69q-16 17 -17 26z" />
<glyph unicode="&#x11d;" horiz-adv-x="1130" d="M88 504q0 254 106.5 391t378.5 137q240 0 400 -59q61 -27 61 -103v-835q0 -90 -7 -149.5t-34.5 -124t-79 -101.5t-141.5 -61.5t-219 -24.5q-201 0 -326 47q-72 29 -61 82l24 115q6 31 20.5 37t49.5 -2q137 -20 277 -21q111 0 148.5 35t37.5 119v49q-113 -35 -205 -35 q-244 0 -337 130t-93 374zM211 1174q-27 25 0 53l248 272q33 37 82 37h131q35 0 49 -6t31 -25l249 -280q27 -29 0 -54l-71 -67q-27 -23 -60 2l-270 209l-258 -207q-23 -16 -32 -18.5t-27 14.5zM410 522q0 -147 36.5 -200.5t122.5 -53.5q63 0 154 23v457q-72 12 -135 12 q-88 0 -133 -46.5t-45 -191.5z" />
<glyph unicode="&#x11e;" horiz-adv-x="1320" d="M121 676q0 700 592 700q238 0 385 -65q68 -27 55 -88l-27 -121q-6 -31 -19 -37t-50 -2q-193 25 -307 24q-160 0 -221.5 -107.5t-61.5 -299.5q0 -203 55.5 -309.5t212.5 -106.5q74 0 150 15v245h-140q-47 0 -47 43v172q0 43 47 43h408q20 0 33.5 -12t13.5 -31 q0 -338 -2 -581q0 -86 -63 -111q-178 -68 -428 -67q-139 0 -244 37.5t-169.5 100t-104 155t-54 188.5t-14.5 215zM285 1732.5q2 16.5 16 26.5l74 60q31 14 39 10t32 -29q111 -131 246 -131q143 0 244 131q33 43 74 17l71 -43q25 -25 23 -42.5t-23 -52.5q-123 -227 -385 -227 q-125 0 -232.5 54.5t-162.5 164.5q-12 25 -15 35t-1 26.5z" />
<glyph unicode="&#x11f;" horiz-adv-x="1130" d="M88 504q0 254 106.5 391t378.5 137q240 0 400 -59q61 -27 61 -103v-835q0 -90 -7 -149.5t-34.5 -124t-79 -101.5t-141.5 -61.5t-219 -24.5q-201 0 -326 47q-72 29 -61 82l24 115q6 31 20.5 37t49.5 -2q137 -20 277 -21q111 0 148.5 35t37.5 119v49q-113 -35 -205 -35 q-244 0 -337 130t-93 374zM165 1415q-1 6 0 9t3 8.5t6 9.5l8 8l74 59q31 14 40 10.5t34 -28.5q68 -82 121 -115t127 -33q68 0 122 33t119 115q18 25 32.5 28t39.5 -12l74 -45q16 -10 19 -26.5t-1 -28.5t-18 -39q-63 -121 -164 -185.5t-223.5 -64.5t-233.5 63.5t-162 180.5 q-2 2 -5 11t-4 11t-4 9.5t-3 11.5t-1 10zM410 522q0 -147 36.5 -200.5t122.5 -53.5q63 0 154 23v457q-72 12 -135 12q-88 0 -133 -46.5t-45 -191.5z" />
<glyph unicode="&#x120;" horiz-adv-x="1320" d="M121 676q0 700 592 700q238 0 385 -65q68 -27 55 -88l-27 -121q-6 -31 -19 -37t-50 -2q-193 25 -307 24q-160 0 -221.5 -107.5t-61.5 -299.5q0 -203 55.5 -309.5t212.5 -106.5q74 0 150 15v245h-140q-47 0 -47 43v172q0 43 47 43h408q20 0 33.5 -12t13.5 -31 q0 -338 -2 -581q0 -86 -63 -111q-178 -68 -428 -67q-139 0 -244 37.5t-169.5 100t-104 155t-54 188.5t-14.5 215zM551 1610q0 152 162 151q92 0 126.5 -39t34.5 -112q0 -152 -161 -152q-96 0 -129 42t-33 110z" />
<glyph unicode="&#x121;" horiz-adv-x="1130" d="M88 504q0 254 106.5 391t378.5 137q240 0 400 -59q61 -27 61 -103v-835q0 -90 -7 -149.5t-34.5 -124t-79 -101.5t-141.5 -61.5t-219 -24.5q-201 0 -326 47q-72 29 -61 82l24 115q6 31 20.5 37t49.5 -2q137 -20 277 -21q111 0 148.5 35t37.5 119v49q-113 -35 -205 -35 q-244 0 -337 130t-93 374zM410 522q0 -147 36.5 -200.5t122.5 -53.5q63 0 154 23v457q-72 12 -135 12q-88 0 -133 -46.5t-45 -191.5zM442 1290q0 152 162 152q92 0 127 -39t35 -113q0 -152 -162 -151q-96 0 -129 41.5t-33 109.5z" />
<glyph unicode="&#x122;" horiz-adv-x="1320" d="M121 676q0 700 592 700q238 0 385 -65q68 -27 55 -88l-27 -121q-6 -31 -19 -37t-50 -2q-193 25 -307 24q-160 0 -221.5 -107.5t-61.5 -299.5q0 -203 55.5 -309.5t212.5 -106.5q74 0 150 15v245h-140q-47 0 -47 43v172q0 43 47 43h408q20 0 33.5 -12t13.5 -31 q0 -338 -2 -581q0 -86 -63 -111q-178 -68 -428 -67q-139 0 -244 37.5t-169.5 100t-104 155t-54 188.5t-14.5 215zM545 -240.5q0 19.5 33 47.5l133 99q35 20 52 15t46 -32q84 -78 84 -196q0 -125 -55.5 -219.5t-143.5 -147.5q-45 -25 -76 10l-53 56q-20 23 -19 35t27 41 q53 53 54 131q0 47 -54 112q-28 29 -28 48.5z" />
<glyph unicode="&#x123;" horiz-adv-x="1130" d="M88 504q0 254 106.5 391t378.5 137q240 0 400 -59q61 -27 61 -103v-835q0 -90 -7 -149.5t-34.5 -124t-79 -101.5t-141.5 -61.5t-219 -24.5q-201 0 -326 47q-72 29 -61 82l24 115q6 31 20.5 37t49.5 -2q137 -20 277 -21q111 0 148.5 35t37.5 119v49q-113 -35 -205 -35 q-244 0 -337 130t-93 374zM410 522q0 -147 36.5 -200.5t122.5 -53.5q63 0 154 23v457q-72 12 -135 12q-88 0 -133 -46.5t-45 -191.5zM449 1339q0 125 56 222.5t144 148.5q49 25 78 -10l51 -53q23 -23 23 -33q0 -12 -31 -43q-55 -55 -55 -131q0 -57 51 -117q31 -35 31 -47 q0 -23 -35 -45l-133 -101q-41 -37 -97 17q-83 77 -83 192z" />
<glyph unicode="&#x124;" horiz-adv-x="1325" d="M137 45v1270q0 47 45 47h238q43 0 43 -47v-471h399v471q0 47 45 47h238q43 0 43 -47v-1270q0 -45 -43 -45h-238q-45 0 -45 45v524h-399v-524q0 -45 -43 -45h-238q-45 0 -45 45zM251 1539q-1 9 15 30l252 229l8 8q6 6 8.5 7.5t7.5 6.5t8 6l9 3q6 2 11 3t12.5 2t15.5 1h131 q45 0 82 -31l252 -233q29 -25 -2 -55l-68 -72q-18 -14 -26.5 -12t-30.5 16l-277 178l-266 -180q-20 -16 -30.5 -17.5t-28.5 15.5l-66 69q-16 17 -17 26z" />
<glyph unicode="&#x125;" d="M-144 1559.5q-1 9.5 15 29.5l252 230l8 8q6 6 8 7t7.5 6t8.5 6l9 3q6 2 11 3t12.5 2t15.5 1h131q45 0 82 -30l252 -234q29 -25 -2 -55l-68 -72q-18 -14 -26.5 -12t-30.5 16l-277 179l-266 -181q-20 -16 -30.5 -17t-28.5 15l-66 70q-16 16 -17 25.5zM98 45v1356 q0 45 43 45h228q43 0 43 -45v-463q164 92 305 92q109 0 179.5 -33.5t101 -99.5t40 -124t9.5 -146v-582q0 -45 -43 -45h-226q-45 0 -45 45t1 276.5t1 274.5q0 82 -29.5 118t-95.5 36q-63 0 -200 -60v-645q0 -45 -43 -45h-226q-43 0 -43 45z" />
<glyph unicode="&#x126;" horiz-adv-x="1325" d="M31 1042v97q0 43 43 43h63v133q0 47 45 47h238q43 0 43 -47v-133h399v133q0 47 45 47h238q43 0 43 -47v-133h67q25 0 33 -10.5t8 -32.5v-97q0 -23 -8 -33t-33 -10h-67v-954q0 -45 -43 -45h-238q-45 0 -45 45v524h-399v-524q0 -45 -43 -45h-238q-45 0 -45 45v954h-63 q-43 0 -43 43zM463 844h399v155h-399v-155z" />
<glyph unicode="&#x127;" horiz-adv-x="1153" d="M-10 1114v103q0 23 6 28.5t27 5.5h83v150q0 45 44 45h225q45 0 45 -45v-150h358q20 0 27.5 -7t7.5 -27v-103q0 -20 -6 -27.5t-27 -7.5h-360v-209q160 92 305 93q88 0 151.5 -25t97.5 -61.5t52 -95t23.5 -106.5t5.5 -116v-516q0 -43 -45 -43h-224q-45 0 -45 43v487 q0 152 -123 152q-70 0 -200 -59v-580q0 -43 -43 -43h-225q-43 0 -44 43v1036h-83q-20 0 -26.5 7.5t-6.5 27.5z" />
<glyph unicode="&#x128;" horiz-adv-x="622" d="M-117 1556q90 231 264 232q61 0 176 -50t154 -50q68 0 115 77q14 27 55 9l76 -41q29 -14 18 -47q-92 -223 -262 -224q-47 0 -166.5 49.5t-162.5 49.5q-70 0 -121 -76q-8 -12 -12.5 -16.5t-13.5 -3.5t-26 10l-77 34q-29 14 -17 47zM147 45v1270q0 47 43 47h240 q43 0 43 -47v-1270q0 -45 -43 -45h-240q-43 0 -43 45z" />
<glyph unicode="&#x129;" horiz-adv-x="845" d="M-6 1208q90 231 264 232q61 0 176 -50.5t154 -50.5q68 0 114 78q14 27 56 8l76 -41q29 -14 18 -47q-92 -223 -262 -223q-47 0 -167 49t-163 49q-70 0 -121 -75q-8 -12 -12 -16.5t-13.5 -3.5t-25.5 9l-78 35q-28 14 -16 47zM264 45v922q0 45 45 45h223q43 0 43 -45v-922 q0 -45 -43 -45h-223q-45 0 -45 45z" />
<glyph unicode="&#x12a;" horiz-adv-x="686" d="M-10 1528v143q0 43 43 43h622q41 0 41 -41v-145q0 -25 -8 -34t-33 -9h-622q-43 0 -43 43zM182 45v1270q0 47 43 47h240q43 0 43 -47v-1270q0 -45 -43 -45h-240q-43 0 -43 45z" />
<glyph unicode="&#x12b;" horiz-adv-x="688" d="M-10 1198v145q0 43 43 43h624q41 0 41 -40v-148q0 -43 -41 -43h-624q-43 0 -43 43zM182 45v922q0 45 45 45h224q43 0 43 -45v-922q0 -45 -43 -45h-224q-45 0 -45 45z" />
<glyph unicode="&#x12c;" horiz-adv-x="784" d="M-16 1726.5q2 16.5 16 26.5l74 59q31 14 39 10.5t32 -28.5q111 -131 246 -131q143 0 244 131q33 43 74 16l71 -43q25 -25 23 -42t-23 -52q-123 -227 -385 -227q-125 0 -232.5 54t-162.5 165q-12 25 -15 35t-1 26.5zM225 45v1270q0 47 43 47h240q43 0 43 -47v-1270 q0 -45 -43 -45h-240q-43 0 -43 45z" />
<glyph unicode="&#x12d;" horiz-adv-x="782" d="M-19 1401q-1 6 0 9t3 8t6 9l8 9l74 59q31 14 40 10t33 -28q68 -82 121 -115t127 -33q68 0 122 33t120 115q18 25 32.5 27.5t39.5 -11.5l73 -45q16 -10 19.5 -26.5t-0.5 -29t-19 -38.5q-63 -121 -163.5 -185.5t-223.5 -64.5t-233.5 63.5t-161.5 180.5q-2 2 -5 11t-4 11 t-4 9t-3 11.5t-1 10.5zM225 45v922q0 45 45 45h224q43 0 43 -45v-922q0 -45 -43 -45h-224q-45 0 -45 45z" />
<glyph unicode="&#x12e;" horiz-adv-x="622" d="M127 -186.5q0 96.5 68 186.5h-5q-43 0 -43 45v1270q0 47 43 47h240q43 0 43 -47v-1270q0 -45 -43 -45h-51q-51 -84 -51 -164q0 -72 88 -72q47 0 112 17q31 6 37 -14q4 -8 25 -78q12 -31 -23 -45q-86 -43 -211 -43q-111 0 -170 58t-59 154.5z" />
<glyph unicode="&#x12f;" horiz-adv-x="567" d="M102 -186.5q0 96.5 68 186.5q-45 0 -45 45v922q0 45 45 45h225q41 0 41 -45v-922q0 -45 -41 -45h-41q-51 -84 -51 -164q0 -72 88 -72q47 0 113 17q31 6 37 -14q4 -8 24 -78q12 -31 -22 -45q-86 -43 -211 -43q-111 0 -170.5 58t-59.5 154.5zM121 1278q0 152 164 152 q92 0 126.5 -39t34.5 -113q0 -70 -33.5 -112t-127.5 -42q-96 0 -130 42t-34 112z" />
<glyph unicode="&#x130;" horiz-adv-x="622" d="M147 45v1270q0 47 43 47h240q43 0 43 -47v-1270q0 -45 -43 -45h-240q-43 0 -43 45zM154 1630q0 152 161 152q92 0 127 -39t35 -113q0 -152 -162 -151q-96 0 -128.5 41.5t-32.5 109.5z" />
<glyph unicode="&#x131;" horiz-adv-x="548" d="M119 45v922q0 45 45 45h223q43 0 43 -45v-922q0 -45 -43 -45h-223q-45 0 -45 45z" />
<glyph unicode="&#x132;" horiz-adv-x="1511" d="M147 45v1270q0 47 43 47h240q43 0 43 -47v-1270q0 -45 -43 -45h-240q-43 0 -43 45zM559 113l31 133q8 31 17 36t38 1q121 -14 203 -15q104 0 141 39t37 119v889q0 47 45 47h236q45 0 45 -47q0 -711 -2 -953q0 -381 -447 -380q-158 0 -274 41q-53 18 -65.5 34.5t-4.5 55.5 z" />
<glyph unicode="&#x133;" horiz-adv-x="1073" d="M121 1278q0 152 164 152q92 0 126.5 -39t34.5 -113q0 -70 -33.5 -112t-127.5 -42q-96 0 -130 42t-34 112zM125 45v922q0 45 45 45h225q41 0 41 -45v-922q0 -45 -41 -45h-225q-45 0 -45 45zM336 -229q-2 31 3 38t36 13q160 35 207 68.5t47 142.5v934q0 45 47 45h223 q43 0 43 -45v-928q0 -266 -134 -374.5t-405 -98.5q-51 0 -53 45zM625 1278q0 152 161 152q94 0 129 -39t35 -113q0 -154 -164 -154q-96 0 -128.5 42t-32.5 112z" />
<glyph unicode="&#x134;" horiz-adv-x="1038" d="M16 115l31 133q8 31 17.5 36t37.5 1q123 -14 203 -15q104 0 141 39t37 119v889q0 47 45 47h236q45 0 45 -47q0 -711 -2 -952q0 -381 -447 -381q-158 0 -274 41q-53 18 -65.5 34.5t-4.5 55.5zM230 1537q-1 9 16 30l252 229l8 8q6 6 8 7t7 6.5t8 6.5l10 3q6 2 11 3t12 2 t16 1h131q45 0 82 -31l251 -233q29 -25 -2 -56l-67 -71q-18 -14 -26.5 -12t-31.5 16l-276 178l-266 -180q-20 -16 -30.5 -17.5t-29.5 15.5l-65 69q-17 17 -18 26z" />
<glyph unicode="&#x135;" horiz-adv-x="825" d="M-18 -229q-2 25 5 35t33 16q158 31 206 66.5t48 144.5v934q0 45 48 45h223q43 0 43 -45v-928q0 -266 -134.5 -374.5t-404.5 -98.5q-51 0 -53 45zM39 1174q-27 25 0 53l248 272q33 37 82 37h131q35 0 49 -6t31 -25l249 -280q27 -29 0 -54l-71 -67q-27 -23 -60 2l-270 209 l-258 -207q-23 -16 -32 -18.5t-27 14.5z" />
<glyph unicode="&#x136;" horiz-adv-x="1267" d="M125 45v1270q0 47 45 47h238q43 0 43 -47v-484h4l147 193l240 297q35 41 92 41h264q31 0 38 -17.5t-11 -39.5l-441 -531l457 -713q18 -33 9 -47t-33 -14h-271q-55 0 -90 53l-285 465l-120 -149v-324q0 -45 -43 -45h-238q-45 0 -45 45zM436 -199.5q0 19.5 33 47.5l133 99 q35 20 52.5 15t45.5 -32q84 -78 84 -196q0 -125 -55 -219.5t-143 -147.5q-45 -25 -76 10l-53 56q-20 23 -19.5 35t27.5 40q53 53 53 132q0 47 -53 112q-29 29 -29 48.5z" />
<glyph unicode="&#x137;" horiz-adv-x="1085" d="M100 45v1356q0 47 45 47h224q43 0 43 -47v-719l6 -2l129 147l123 140q39 45 96 45h233q35 0 41.5 -16.5t-16.5 -39.5l-313 -338l358 -561q14 -25 5 -41t-38 -16h-225q-70 0 -98 49l-207 344l-94 -102v-246q0 -45 -43 -45h-224q-45 0 -45 45zM354 -240.5q0 19.5 33 47.5 l133 99q35 20 52.5 15t45.5 -32q84 -78 84 -196q0 -125 -55 -219.5t-143 -147.5q-45 -25 -76 10l-53 56q-20 23 -19.5 35t27.5 41q53 53 53 131q0 47 -53 112q-29 29 -29 48.5z" />
<glyph unicode="&#x138;" horiz-adv-x="1085" d="M100 45v918q0 47 45 47h224q43 0 43 -47v-281l6 -2l129 147l123 140q39 45 96 45h233q35 0 41.5 -16.5t-16.5 -39.5l-313 -338l358 -561q14 -25 5 -41t-38 -16h-225q-70 0 -98 49l-207 344l-94 -102v-246q0 -45 -43 -45h-224q-45 0 -45 45z" />
<glyph unicode="&#x139;" horiz-adv-x="1075" d="M139 43v1272q0 47 45 47h236q45 0 45 -47v-1043h551q37 0 37 -34v-197q0 -41 -45 -41h-824q-45 0 -45 43zM172 1565q-18 31 12 49l334 219q39 25 60 -12l94 -152q27 -39 -19 -59l-360 -158q-35 -14 -53 10z" />
<glyph unicode="&#x13a;" horiz-adv-x="614" d="M123 252v1149q0 45 45 45h223q43 0 43 -45v-1088q0 -41 18.5 -52t69.5 -13q31 -2 37 -6t10 -27l11 -154q2 -29 -33 -45q-57 -27 -164 -26q-133 0 -196.5 62.5t-63.5 199.5zM172 1636q-18 31 12 50l334 219q39 25 60 -13l94 -151q27 -39 -19 -60l-360 -157q-35 -14 -53 10 z" />
<glyph unicode="&#x13b;" horiz-adv-x="1075" d="M139 43v1272q0 47 45 47h236q45 0 45 -47v-1043h551q37 0 37 -34v-197q0 -41 -45 -41h-824q-45 0 -45 43zM395 -240.5q0 19.5 33 47.5l133 99q35 20 52.5 15t45.5 -32q84 -78 84 -196q0 -125 -55 -219.5t-143 -147.5q-45 -25 -76 10l-53 56q-20 23 -19.5 35t27.5 41 q53 53 53 131q0 47 -53 112q-29 29 -29 48.5z" />
<glyph unicode="&#x13c;" horiz-adv-x="614" d="M123 252v1149q0 45 45 45h223q43 0 43 -45v-1088q0 -41 18.5 -52t69.5 -13q31 -2 37 -6t10 -27l11 -154q2 -29 -33 -45q-57 -27 -164 -26q-133 0 -196.5 62.5t-63.5 199.5zM131 -240.5q0 19.5 33 47.5l133 99q35 20 52.5 15t45.5 -32q84 -78 84 -196q0 -125 -55 -219.5 t-143 -147.5q-45 -25 -76 10l-53 56q-20 23 -19.5 35t27.5 41q53 53 53 131q0 47 -53 112q-29 29 -29 48.5z" />
<glyph unicode="&#x13d;" horiz-adv-x="1075" d="M139 43v1272q0 47 45 47h236q45 0 45 -47v-1043h551q37 0 37 -34v-197q0 -41 -45 -41h-824q-45 0 -45 43zM643 1219.5q0 19.5 33 48.5l133 98q35 20 52.5 15t45.5 -31q84 -78 84 -197q0 -125 -55 -219t-143 -148q-45 -25 -76 11l-53 55q-20 23 -19.5 35t27.5 41 q53 53 53 131q0 47 -53 112q-29 29 -29 48.5z" />
<glyph unicode="&#x13e;" horiz-adv-x="851" d="M123 252v1149q0 45 45 45h223q43 0 43 -45v-1088q0 -41 18.5 -52t69.5 -13q31 -2 37 -6t10 -27l11 -154q2 -29 -33 -45q-57 -27 -164 -26q-133 0 -196.5 62.5t-63.5 199.5zM530 1319.5q0 19.5 33 48.5l133 98q35 20 52.5 15.5t46.5 -31.5q84 -78 84 -197 q0 -125 -55.5 -219t-143.5 -147q-45 -25 -76 10l-53 55q-20 23 -19.5 35t27.5 41q53 53 53 131q0 47 -53 113q-29 28 -29 47.5z" />
<glyph unicode="&#x13f;" horiz-adv-x="1075" d="M139 43v1272q0 47 45 47h236q45 0 45 -47v-1043h551q37 0 37 -34v-197q0 -41 -45 -41h-824q-45 0 -45 43zM643 745q0 152 162 152q92 0 127 -39t35 -113q0 -152 -162 -151q-96 0 -129 41.5t-33 109.5z" />
<glyph unicode="&#x140;" horiz-adv-x="819" d="M123 252v1149q0 45 45 45h223q43 0 43 -45v-1088q0 -41 18.5 -52t69.5 -13q31 -2 37 -6t10 -27l11 -154q2 -29 -33 -45q-57 -27 -164 -26q-133 0 -196.5 62.5t-63.5 199.5zM518 795q0 152 162 151q92 0 127 -39t35 -112q0 -152 -162 -152q-96 0 -129 42t-33 110z" />
<glyph unicode="&#x141;" horiz-adv-x="1120" d="M-2 487q-20 37 16 58l154 88v682q0 47 45 47h236q45 0 45 -47v-494l165 97q35 20 56 -17l55 -92q20 -37 -16 -57l-260 -152v-328h550q37 0 37 -34v-197q0 -41 -45 -41h-823q-45 0 -45 43v369l-57 -33q-37 -20 -58 14z" />
<glyph unicode="&#x142;" horiz-adv-x="688" d="M-2 551q-20 37 16 57l152 86v707q0 45 45 45h223q43 0 43 -45v-527l101 58q37 20 55 -14l55 -95q20 -39 -14 -57l-197 -113v-340q0 -41 18.5 -52t69.5 -13q31 -2 37 -6t10 -27l11 -154q2 -29 -33 -45q-57 -27 -164 -26q-133 0 -196.5 62.5t-63.5 199.5v221l-55 -31 q-37 -20 -58 15z" />
<glyph unicode="&#x143;" horiz-adv-x="1372" d="M135 43v1272q0 45 45 45h168q29 0 48.5 -9.5t27.5 -18.5t22 -32q233 -350 463 -708l2 2h4v719q0 47 46 47h227q43 0 43 -47v-1270q0 -43 -43 -43h-168q-57 0 -88 47q-27 39 -138.5 207t-172.5 258l-162 250h-6v-719q0 -43 -43 -43h-228q-47 0 -47 43zM526 1544 q-18 31 13 49l333 219q39 25 60 -12l94 -151q27 -39 -18 -60l-361 -157q-35 -14 -53 10z" />
<glyph unicode="&#x144;" d="M96 43v922q0 45 45 45h224q43 0 43 -45v-50q2 0 6 -2q68 51 158 83t163 32q84 0 143.5 -24.5t91 -60.5t49 -95.5t21.5 -106.5t4 -116v-582q0 -43 -43 -43h-225q-45 0 -45 43q0 90 1 269.5t1 267.5q0 84 -29.5 120.5t-95.5 36.5q-29 0 -65.5 -10t-80.5 -27.5t-54 -21.5 v-635q0 -43 -43 -43h-224q-45 0 -45 43zM397 1210l191 353q23 39 57 18l156 -88q43 -23 10 -61l-242 -310q-23 -33 -51 -18l-106 57q-31 18 -15 49z" />
<glyph unicode="&#x145;" horiz-adv-x="1372" d="M135 43v1272q0 45 45 45h168q29 0 48.5 -9.5t27.5 -18.5t22 -32q233 -350 463 -708l2 2h4v719q0 47 46 47h227q43 0 43 -47v-1270q0 -43 -43 -43h-168q-57 0 -88 47q-27 39 -138.5 207t-172.5 258l-162 250h-6v-719q0 -43 -43 -43h-228q-47 0 -47 43zM496 -199.5 q0 19.5 32 47.5l134 99q35 20 52 15t46 -32q84 -78 84 -196q0 -125 -55.5 -219.5t-143.5 -147.5q-45 -25 -76 10l-53 56q-20 23 -19 35t27 40q53 53 54 132q0 47 -54 112q-28 29 -28 48.5z" />
<glyph unicode="&#x146;" d="M96 43v922q0 45 45 45h224q43 0 43 -45v-50q2 0 6 -2q68 51 158 83t163 32q84 0 143.5 -24.5t91 -60.5t49 -95.5t21.5 -106.5t4 -116v-582q0 -43 -43 -43h-225q-45 0 -45 43q0 90 1 269.5t1 267.5q0 84 -29.5 120.5t-95.5 36.5q-29 0 -65.5 -10t-80.5 -27.5t-54 -21.5 v-635q0 -43 -43 -43h-224q-45 0 -45 43zM367 -240.5q0 19.5 32 47.5l133 99q35 20 52.5 15t46.5 -32q84 -78 84 -196q0 -125 -55.5 -219.5t-143.5 -147.5q-45 -25 -76 10l-53 56q-20 23 -19 35t27 41q53 53 54 131q0 47 -54 112q-28 29 -28 48.5z" />
<glyph unicode="&#x147;" horiz-adv-x="1372" d="M135 43v1272q0 45 45 45h168q29 0 48.5 -9.5t27.5 -18.5t22 -32q233 -350 463 -708l2 2h4v719q0 47 46 47h227q43 0 43 -47v-1270q0 -43 -43 -43h-168q-57 0 -88 47q-27 39 -138.5 207t-172.5 258l-162 250h-6v-719q0 -43 -43 -43h-228q-47 0 -47 43zM293 1686 q-29 31 0 55l65 71q18 23 58 -2l268 -165l274 163q23 14 32 16.5t28 -12.5l67 -69q14 -16 15.5 -24.5t-15.5 -28.5l-251 -236q-35 -31 -80 -31h-131q-47 0 -82 35z" />
<glyph unicode="&#x148;" d="M96 43v922q0 45 45 45h224q43 0 43 -45v-50q2 0 6 -2q68 51 158 83t163 32q84 0 143.5 -24.5t91 -60.5t49 -95.5t21.5 -106.5t4 -116v-582q0 -43 -43 -43h-225q-45 0 -45 43q0 90 1 269.5t1 267.5q0 84 -29.5 120.5t-95.5 36.5q-29 0 -65.5 -10t-80.5 -27.5t-54 -21.5 v-635q0 -43 -43 -43h-224q-45 0 -45 43zM116 1422.5q1 9.5 17 25.5l70 70q25 25 59 -5l260 -206l269 209q33 25 59 2l72 -68q27 -25 2 -55l-252 -279q-16 -18 -30.5 -24.5t-49.5 -6.5h-131q-35 0 -49.5 7.5t-32.5 29.5l-248 273q-16 18 -15 27.5z" />
<glyph unicode="&#x149;" horiz-adv-x="1386" d="M-8 1332.5q0 19.5 33 47.5l133 99q35 20 52 15t46 -32q84 -78 84 -196q0 -125 -55.5 -219.5t-143.5 -147.5q-45 -25 -75 10l-54 56q-20 23 -19 35t27 40q53 53 54 131q0 47 -54 113q-28 29 -28 48.5zM340 43v922q0 45 45 45h223q43 0 43 -45v-50l2 -2h4q68 51 158 83 t164 32q84 0 143.5 -24.5t91 -60.5t49 -95.5t21.5 -106.5t4 -116v-582q0 -43 -43 -43h-225q-45 0 -45 43q0 90 1 269.5t1 267.5q0 84 -29.5 120.5t-95.5 36.5q-29 0 -65.5 -10t-80.5 -27.5t-55 -21.5v-635q0 -43 -43 -43h-223q-45 0 -45 43z" />
<glyph unicode="&#x14a;" horiz-adv-x="1372" d="M135 43v1272q0 45 45 45h168q29 0 48.5 -9.5t25.5 -17.5l24 -33l248 -374l215 -334l2 2h4v719q0 47 46 47h227q43 0 43 -47v-1391q0 -365 -365 -364q-92 0 -143 16q-20 6 -21 37l19 184q2 25 45 25q92 4 122 29.5t30 97.5v121q-82 127 -297 444l-162 250h-6v-719 q0 -43 -43 -43h-228q-47 0 -47 43z" />
<glyph unicode="&#x14b;" horiz-adv-x="1140" d="M96 43v922q0 45 45 45h224q43 0 43 -45v-50q2 0 6 -2q68 51 158 83t163 32q84 0 143.5 -24.5t91 -60.5t49 -95.5t21.5 -106.5t4 -116v-703q0 -365 -366 -364q-70 0 -127 12q-2 0 -7 2t-7 3l-7 3q-4 2 -6 4t-4 6t-3 9.5t-1 13.5q2 31 8 92t8 92q2 25 48 25 q92 4 121.5 29.5t29.5 97.5q0 104 1 315t1 318q0 158 -125 157q-63 0 -200 -59v-635q0 -43 -43 -43h-224q-45 0 -45 43z" />
<glyph unicode="&#x14c;" horiz-adv-x="1411" d="M117 698q0 86 10 165t46 177.5t95.5 169t171 119.5t260.5 49q182 0 306 -58t183.5 -163.5t81 -212t21.5 -246.5q0 -109 -10 -195.5t-46 -189t-97.5 -171t-174 -114.5t-266 -46t-264 47t-171 114.5t-94.5 171t-43 188t-9 195.5zM346 1522v143q0 43 43 43h623q41 0 41 -41 v-145q0 -25 -8.5 -34t-32.5 -9h-623q-43 0 -43 43zM461 676q0 -215 53 -314.5t188 -99.5q141 0 198.5 99.5t57.5 314.5q0 225 -56 323.5t-200 98.5q-133 0 -187 -100.5t-54 -321.5z" />
<glyph unicode="&#x14d;" horiz-adv-x="1124" d="M86 520q0 68 8 126.5t37 133t77 126.5t137 88t210 36t212 -30.5t142.5 -79t82 -119t39.5 -136t9 -145.5q0 -82 -7 -143.5t-34.5 -140t-77 -130t-143.5 -87t-223 -35.5q-127 0 -218 35.5t-138 87t-74 130t-33 140t-6 143.5zM209 1204v146q0 43 43 43h625q41 0 41 -41v-148 q0 -43 -41 -43h-625q-43 0 -43 43zM401 508q0 -139 33 -198.5t121 -59.5q98 0 132 59.5t34 198.5t-32 197.5t-130 58.5q-90 0 -124 -62.5t-34 -193.5z" />
<glyph unicode="&#x14e;" horiz-adv-x="1411" d="M117 698q0 86 10 165t46 177.5t95.5 169t171 119.5t260.5 49q182 0 306 -58t183.5 -163.5t81 -212t21.5 -246.5q0 -109 -10 -195.5t-46 -189t-97.5 -171t-174 -114.5t-266 -46t-264 47t-171 114.5t-94.5 171t-43 188t-9 195.5zM289 1730.5q2 16.5 16 26.5l74 60 q31 14 39 10t33 -29q111 -131 245 -131q143 0 244 131q33 43 74 17l71 -43q25 -25 23 -42.5t-23 -52.5q-123 -227 -385 -227q-125 0 -232.5 54.5t-162.5 164.5q-12 25 -15 35t-1 26.5zM461 676q0 -215 53 -314.5t188 -99.5q141 0 198.5 99.5t57.5 314.5q0 225 -56 323.5 t-200 98.5q-133 0 -187 -100.5t-54 -321.5z" />
<glyph unicode="&#x14f;" horiz-adv-x="1124" d="M86 520q0 68 8 126.5t37 133t77 126.5t137 88t210 36t212 -30.5t142.5 -79t82 -119t39.5 -136t9 -145.5q0 -82 -7 -143.5t-34.5 -140t-77 -130t-143.5 -87t-223 -35.5q-127 0 -218 35.5t-138 87t-74 130t-33 140t-6 143.5zM140 1409q-1 6 0 9t3 8.5t7 9.5l8 8l73 59 q31 14 40.5 10t33.5 -28q68 -82 121 -115t127 -33q68 0 122 33t120 115q18 25 32.5 28t38.5 -12l74 -45q16 -10 19.5 -26.5t-1 -28.5t-18.5 -39q-63 -121 -163.5 -185.5t-223.5 -64.5t-233.5 63.5t-161.5 180.5q-2 2 -5 11t-4.5 11t-4.5 9.5t-3 11.5t-1 10zM401 508 q0 -139 33 -198.5t121 -59.5q98 0 132 59.5t34 198.5t-32 197.5t-130 58.5q-90 0 -124 -62.5t-34 -193.5z" />
<glyph unicode="&#x150;" horiz-adv-x="1411" d="M117 698q0 86 10 165t46 177.5t95.5 169t171 119.5t260.5 49q182 0 306 -58t183.5 -163.5t81 -212t21.5 -246.5q0 -109 -10 -195.5t-46 -189t-97.5 -171t-174 -114.5t-266 -46t-264 47t-171 114.5t-94.5 171t-43 188t-9 195.5zM319 1542q-20 25 7 47l311 252q33 27 59 -4 l113 -143q29 -37 -14 -60l-344 -192q-33 -18 -54 4zM461 676q0 -215 53 -314.5t188 -99.5q141 0 198.5 99.5t57.5 314.5q0 225 -56 323.5t-200 98.5q-133 0 -187 -100.5t-54 -321.5zM788 1542q-23 27 7 47l311 252q33 27 59 -4l111 -143q29 -37 -14 -60l-342 -192 q-35 -18 -56 4z" />
<glyph unicode="&#x151;" horiz-adv-x="1124" d="M86 520q0 68 8 126.5t37 133t77 126.5t137 88t210 36t212 -30.5t142.5 -79t82 -119t39.5 -136t9 -145.5q0 -82 -7 -143.5t-34.5 -140t-77 -130t-143.5 -87t-223 -35.5q-127 0 -218 35.5t-138 87t-74 130t-33 140t-6 143.5zM279 1210l188 353q25 39 57 18l158 -88 q39 -23 10 -61l-241 -310q-25 -33 -52 -18l-108 57q-30 18 -12 49zM401 508q0 -139 33 -198.5t121 -59.5q98 0 132 59.5t34 198.5t-32 197.5t-130 58.5q-90 0 -124 -62.5t-34 -193.5zM637 1210l188 353q23 39 58 18l155 -88q39 -20 13 -61l-242 -310q-25 -33 -51 -18 l-109 57q-30 18 -12 49z" />
<glyph unicode="&#x152;" horiz-adv-x="1726" d="M102 698q0 86 10.5 164t46.5 177.5t95 169t171 118.5t261 49q90 0 172 -16h721q45 0 45 -45v-187q0 -41 -45 -41h-512v-247h444q45 0 45 -45v-187q0 -41 -45 -41h-444v-297h522q45 0 45 -45v-186q0 -39 -45 -39h-723q-84 -18 -180 -18q-154 0 -265.5 47t-172 114.5 t-94 171t-43 188t-9.5 195.5zM446 676q0 -215 54.5 -315.5t187.5 -100.5q27 0 51 6v824q-25 6 -51 6q-133 0 -187.5 -100.5t-54.5 -319.5z" />
<glyph unicode="&#x153;" horiz-adv-x="1736" d="M86 520q0 68 8 126.5t37 133t77 126.5t137 88t210 36q219 0 332 -117q111 111 309 111q463 0 467 -467q0 -68 -24.5 -99.5t-88.5 -31.5h-501q6 -113 55 -150.5t162 -37.5q104 0 247 20q39 4 51.5 -3t18.5 -42l16 -96q10 -37 0 -55.5t-53 -36.5q-131 -49 -334 -50 q-227 0 -335 121q-106 -113 -322 -112q-127 0 -218 35.5t-138 87t-74 130t-33 140t-6 143.5zM401 508q0 -139 33 -198.5t121 -59.5q98 0 132 59.5t34 198.5t-32 197.5t-130 58.5q-90 0 -124 -62.5t-34 -193.5zM1055 618h280q-4 162 -137 162t-143 -162z" />
<glyph unicode="&#x154;" horiz-adv-x="1228" d="M133 45v1272q0 45 47 45h502q117 0 215 -42t165.5 -138.5t67.5 -235.5q0 -115 -54 -216t-169 -155l252 -524q10 -23 3 -37t-29 -14h-252q-61 0 -80 45l-209 473h-133v-473q0 -45 -43 -45h-236q-47 0 -47 45zM436 1544q-18 31 13 49l333 219q39 25 60 -12l94 -151 q27 -39 -18 -60l-361 -157q-35 -14 -53 10zM459 782h164q172 0 172 160q0 145 -168 145h-168v-305z" />
<glyph unicode="&#x155;" horiz-adv-x="841" d="M129 45v922q0 45 45 45h223q45 0 45 -45v-99l4 -4q53 55 141.5 101.5t155.5 56.5q35 4 49.5 -3t18.5 -44l25 -201q4 -31 -5.5 -42t-52.5 -19q-184 -35 -336 -88v-580q0 -45 -43 -45h-225q-45 0 -45 45zM266 1210l191 353q23 39 57 18l156 -88q43 -23 10 -61l-242 -310 q-23 -33 -51 -18l-106 57q-31 18 -15 49z" />
<glyph unicode="&#x156;" horiz-adv-x="1228" d="M133 45v1272q0 45 47 45h502q117 0 215 -42t165.5 -138.5t67.5 -235.5q0 -115 -54 -216t-169 -155l252 -524q10 -23 3 -37t-29 -14h-252q-61 0 -80 45l-209 473h-133v-473q0 -45 -43 -45h-236q-47 0 -47 45zM434 -199.5q0 19.5 33 47.5l133 99q35 20 52.5 15t45.5 -32 q84 -78 84 -196q0 -125 -55 -219.5t-143 -147.5q-45 -25 -76 10l-53 56q-20 23 -19.5 35t27.5 40q53 53 53 132q0 47 -53 112q-29 29 -29 48.5zM459 782h164q172 0 172 160q0 145 -168 145h-168v-305z" />
<glyph unicode="&#x157;" horiz-adv-x="841" d="M104 -240.5q0 19.5 33 47.5l133 99q35 20 52.5 15t46.5 -32q84 -78 84 -196q0 -125 -55.5 -219.5t-143.5 -147.5q-45 -25 -76 10l-53 56q-20 23 -19.5 35t27.5 41q53 53 53 131q0 47 -53 112q-29 29 -29 48.5zM129 45v922q0 45 45 45h223q45 0 45 -45v-99l4 -4 q53 55 141.5 101.5t155.5 56.5q35 4 49.5 -3t18.5 -44l25 -201q4 -31 -5.5 -42t-52.5 -19q-184 -35 -336 -88v-580q0 -45 -43 -45h-225q-45 0 -45 45z" />
<glyph unicode="&#x158;" horiz-adv-x="1228" d="M133 45v1272q0 45 47 45h502q117 0 215 -42t165.5 -138.5t67.5 -235.5q0 -115 -54 -216t-169 -155l252 -524q10 -23 3 -37t-29 -14h-252q-61 0 -80 45l-209 473h-133v-473q0 -45 -43 -45h-236q-47 0 -47 45zM195 1714q-29 31 0 55l65 72q18 23 57 -2l269 -166l274 164 q23 14 32 16t28 -12l67 -69q14 -16 15.5 -24.5t-15.5 -29.5l-252 -235q-35 -31 -80 -31h-131q-47 0 -82 35zM459 782h164q172 0 172 160q0 145 -168 145h-168v-305z" />
<glyph unicode="&#x159;" horiz-adv-x="841" d="M-21.5 1447q1.5 9 17.5 26l70 69q25 25 59 -4l260 -207l268 209q33 25 60 2l71 -67q27 -25 2 -56l-251 -278q-16 -18 -31 -24.5t-49 -6.5h-131q-35 0 -49.5 7t-32.5 30l-248 272q-17 19 -15.5 28zM129 45v922q0 45 45 45h223q45 0 45 -45v-99l4 -4q53 55 141.5 101.5 t155.5 56.5q35 4 49.5 -3t18.5 -44l25 -201q4 -31 -5.5 -42t-52.5 -19q-184 -35 -336 -88v-580q0 -45 -43 -45h-225q-45 0 -45 45z" />
<glyph unicode="&#x15a;" horiz-adv-x="1189" d="M94 958q0 199 133 307.5t363 108.5q248 0 391 -59q47 -16 56.5 -33.5t2.5 -52.5l-28 -121q-8 -37 -26.5 -42t-61.5 1q-170 23 -310 23q-178 0 -178 -123q0 -61 36 -85t146 -46q92 -20 142.5 -34t125.5 -46.5t113.5 -73.5t68.5 -111.5t30 -162.5q0 -94 -30 -168t-80 -122 t-119.5 -79t-145.5 -44t-162 -13q-244 0 -403 63q-47 18 -55.5 35.5t-2.5 50.5l25 119q8 37 24.5 44t55.5 -1q229 -29 358 -29q201 0 201 131q0 70 -40 98.5t-151 51.5q-88 18 -142 33.5t-126 48t-111.5 72.5t-69.5 106.5t-30 152.5zM387 1565q-18 31 12 49l334 219 q39 25 60 -12l94 -152q27 -39 -19 -59l-360 -158q-35 -14 -53 10z" />
<glyph unicode="&#x15b;" horiz-adv-x="999" d="M80 125l22 98q6 29 19.5 35t46.5 0q154 -27 293 -27q78 0 110.5 17.5t32.5 58.5q0 43 -23.5 59.5t-91.5 24.5q-98 14 -158.5 28.5t-123 47.5t-92 91t-29.5 144q0 158 114.5 243t303.5 85q190 0 317 -45q47 -16 62.5 -32.5t7.5 -51.5l-23 -104q-8 -29 -18 -35t-43 -2 q-184 25 -291 24q-72 2 -94.5 -15t-22.5 -54q0 -25 19.5 -39t40 -19.5t67.5 -13.5q94 -12 153.5 -26.5t122 -48t92.5 -95t30 -154.5q0 -176 -128 -256.5t-325 -80.5q-182 0 -321 45q-51 18 -65.5 37.5t-4.5 60.5zM369 1210l190 353q23 39 57 18l156 -88q43 -23 10 -61 l-241 -310q-23 -33 -52 -18l-106 57q-30 18 -14 49z" />
<glyph unicode="&#x15c;" horiz-adv-x="1189" d="M94 958q0 199 133 307.5t363 108.5q248 0 391 -59q47 -16 56.5 -33.5t2.5 -52.5l-28 -121q-8 -37 -26.5 -42t-61.5 1q-170 23 -310 23q-178 0 -178 -123q0 -61 36 -85t146 -46q92 -20 142.5 -34t125.5 -46.5t113.5 -73.5t68.5 -111.5t30 -162.5q0 -94 -30 -168t-80 -122 t-119.5 -79t-145.5 -44t-162 -13q-244 0 -403 63q-47 18 -55.5 35.5t-2.5 50.5l25 119q8 37 24.5 44t55.5 -1q229 -29 358 -29q201 0 201 131q0 70 -40 98.5t-151 51.5q-88 18 -142 33.5t-126 48t-111.5 72.5t-69.5 106.5t-30 152.5zM183 1539q-1 9 16 30l252 229l8 8 q6 6 8 7.5t7 6.5t8 6l10 3q6 2 11 3t12 2t15 1h132q45 0 81 -31l252 -233q29 -25 -2 -55l-67 -72q-18 -14 -26.5 -12t-31.5 16l-276 178l-266 -180q-20 -16 -30.5 -17.5t-29.5 15.5l-65 69q-17 17 -18 26z" />
<glyph unicode="&#x15d;" horiz-adv-x="999" d="M80 125l22 98q6 29 19.5 35t46.5 0q154 -27 293 -27q78 0 110.5 17.5t32.5 58.5q0 43 -23.5 59.5t-91.5 24.5q-98 14 -158.5 28.5t-123 47.5t-92 91t-29.5 144q0 158 114.5 243t303.5 85q190 0 317 -45q47 -16 62.5 -32.5t7.5 -51.5l-23 -104q-8 -29 -18 -35t-43 -2 q-184 25 -291 24q-72 2 -94.5 -15t-22.5 -54q0 -25 19.5 -39t40 -19.5t67.5 -13.5q94 -12 153.5 -26.5t122 -48t92.5 -95t30 -154.5q0 -176 -128 -256.5t-325 -80.5q-182 0 -321 45q-51 18 -65.5 37.5t-4.5 60.5zM94 1153q-27 25 0 53l248 273q14 16 21.5 21t21.5 10.5 t39 5.5h131q35 0 49 -6.5t31 -24.5l250 -281q27 -29 0 -53l-72 -68q-27 -23 -59 2l-271 209l-258 -207q-23 -16 -32 -18t-27 14z" />
<glyph unicode="&#x15e;" horiz-adv-x="1189" d="M94 958q0 199 133 307.5t363 108.5q248 0 391 -59q47 -16 56.5 -33.5t2.5 -52.5l-28 -121q-8 -37 -26.5 -42t-61.5 1q-170 23 -310 23q-178 0 -178 -123q0 -61 36 -85t146 -46q92 -20 142.5 -34t125.5 -46.5t113.5 -73.5t68.5 -111.5t30 -162.5q0 -211 -133.5 -311.5 t-343.5 -112.5l-31 -82q125 -4 169 -48t44 -116q0 -96 -70.5 -155.5t-210.5 -59.5q-104 0 -174 24q-23 8 -18 25l18 84q2 14 25 12q82 -12 131 -12q57 0 89 16.5t32 67.5q0 53 -127 59q-14 2 -23 2q-47 4 -31 49l48 134q-217 14 -334 61q-47 18 -55.5 35.5t-2.5 50.5l25 119 q8 37 24.5 44t55.5 -1q229 -29 358 -29q201 0 201 131q0 70 -40 98.5t-151 51.5q-88 18 -142 33.5t-126 48t-111.5 72.5t-69.5 106.5t-30 152.5z" />
<glyph unicode="&#x15f;" horiz-adv-x="999" d="M80 125l22 98q6 29 19.5 35t46.5 0q154 -27 293 -27q78 0 110.5 17.5t32.5 58.5q0 43 -23.5 59.5t-91.5 24.5q-98 14 -158.5 28.5t-123 47.5t-92 91t-29.5 144q0 158 114.5 243t303.5 85q190 0 317 -45q47 -16 62.5 -32.5t7.5 -51.5l-23 -104q-8 -29 -18 -35t-43 -2 q-184 25 -291 24q-72 2 -94.5 -15t-22.5 -54q0 -25 19.5 -39t40 -19.5t67.5 -13.5q94 -12 153.5 -26.5t122 -48t92.5 -95t30 -154.5q0 -158 -104.5 -238.5t-270.5 -94.5l-33 -84q125 -4 169 -48t44 -116q0 -96 -70.5 -155.5t-209.5 -59.5q-104 0 -175 24q-23 8 -18 25l18 84 q2 14 25 12q82 -12 131 -12q57 0 89 16.5t32 67.5q0 53 -127 59q-14 2 -23 2q-47 4 -30 49l47 134q-160 6 -268 43q-51 18 -65.5 37.5t-4.5 60.5z" />
<glyph unicode="&#x160;" horiz-adv-x="1189" d="M94 958q0 199 133 307.5t363 108.5q248 0 391 -59q47 -16 56.5 -33.5t2.5 -52.5l-28 -121q-8 -37 -26.5 -42t-61.5 1q-170 23 -310 23q-178 0 -178 -123q0 -61 36 -85t146 -46q92 -20 142.5 -34t125.5 -46.5t113.5 -73.5t68.5 -111.5t30 -162.5q0 -94 -30 -168t-80 -122 t-119.5 -79t-145.5 -44t-162 -13q-244 0 -403 63q-47 18 -55.5 35.5t-2.5 50.5l25 119q8 37 24.5 44t55.5 -1q229 -29 358 -29q201 0 201 131q0 70 -40 98.5t-151 51.5q-88 18 -142 33.5t-126 48t-111.5 72.5t-69.5 106.5t-30 152.5zM193 1708q-29 31 0 55l65 72 q18 23 57 -2l269 -166l274 164q23 14 32 16t28 -12l67 -70q14 -16 15 -24t-15 -29l-252 -235q-33 -31 -80 -31h-131q-47 0 -82 35z" />
<glyph unicode="&#x161;" horiz-adv-x="999" d="M80 125l22 98q6 29 19.5 35t46.5 0q154 -27 293 -27q78 0 110.5 17.5t32.5 58.5q0 43 -23.5 59.5t-91.5 24.5q-98 14 -158.5 28.5t-123 47.5t-92 91t-29.5 144q0 158 114.5 243t303.5 85q190 0 317 -45q47 -16 62.5 -32.5t7.5 -51.5l-23 -104q-8 -29 -18 -35t-43 -2 q-184 25 -291 24q-72 2 -94.5 -15t-22.5 -54q0 -25 19.5 -39t40 -19.5t67.5 -13.5q94 -12 153.5 -26.5t122 -48t92.5 -95t30 -154.5q0 -176 -128 -256.5t-325 -80.5q-182 0 -321 45q-51 18 -65.5 37.5t-4.5 60.5zM95 1443q1 9 18 25l69 70q25 25 60 -4l260 -207l268 209 q33 25 59 2l72 -68q27 -25 2 -55l-252 -278q-16 -18 -30.5 -24.5t-49.5 -6.5h-131q-35 0 -49 7t-33 30l-247 272q-17 19 -16 28z" />
<glyph unicode="&#x162;" horiz-adv-x="1067" d="M25 1130v187q0 45 45 45h927q45 0 45 -45v-187q0 -43 -45 -43h-303v-1042q0 -45 -43 -45h-235q-45 0 -45 45v1042h-301q-45 0 -45 43zM338 -240.5q0 19.5 33 47.5l133 99q35 20 52 15t46 -32q84 -78 84 -196q0 -125 -55.5 -219.5t-143.5 -147.5q-45 -25 -75 10l-54 56 q-20 23 -19 35t28 41q53 53 53 131q0 47 -53 112q-29 29 -29 48.5z" />
<glyph unicode="&#x163;" horiz-adv-x="837" d="M49 811v154q0 45 43 45h92v200q0 39 45 54l207 55q23 8 37 -1t14 -34v-274h209q27 0 35 -10.5t8 -32.5v-156q0 -25 -8 -35t-35 -10h-211l2 -381q0 -63 20.5 -86t104.5 -25q39 0 142 9q33 0 41 -15q6 -8 8 -28l18 -148q6 -23 -5 -41t-32 -24q-129 -43 -299 -43 q-176 0 -239.5 88t-63.5 237v457h-90q-43 0 -43 45zM229 -240.5q0 19.5 33 47.5l133 99q35 20 52.5 15t46.5 -32q84 -78 84 -196q0 -125 -55.5 -219.5t-143.5 -147.5q-45 -25 -76 10l-53 56q-20 23 -19.5 35t27.5 41q53 53 53 131q0 47 -53 112q-29 29 -29 48.5z" />
<glyph unicode="&#x164;" horiz-adv-x="1067" d="M25 1130v187q0 45 45 45h927q45 0 45 -45v-187q0 -43 -45 -43h-303v-1042q0 -45 -43 -45h-235q-45 0 -45 45v1042h-301q-45 0 -45 43zM137 1716q-29 31 0 56l66 71q18 23 57 -2l268 -166l275 164q23 14 32 16.5t27 -12.5l68 -69q14 -16 15 -24.5t-15 -29.5l-252 -235 q-35 -31 -80 -31h-131q-47 0 -82 35z" />
<glyph unicode="&#x165;" horiz-adv-x="968" d="M49 811v154q0 45 43 45h92v200q0 39 45 54l207 55q23 8 37 -1t14 -34v-274h209q27 0 35 -10.5t8 -32.5v-156q0 -25 -8 -35t-35 -10h-211l2 -381q0 -63 20.5 -86t104.5 -25q39 0 142 9q33 0 41 -15q6 -8 8 -28l18 -148q6 -23 -5 -41t-32 -24q-129 -43 -299 -43 q-176 0 -239.5 88t-63.5 237v457h-90q-43 0 -43 45zM645 1483.5q0 19.5 33 48.5l133 98q35 20 52.5 15t45.5 -31q84 -78 84 -197q0 -125 -55 -219t-143 -147q-45 -25 -76 10l-53 55q-20 23 -19.5 35t27.5 41q53 53 53 131q0 47 -53 113q-29 28 -29 47.5z" />
<glyph unicode="&#x166;" horiz-adv-x="1067" d="M25 1130v187q0 45 45 45h927q45 0 45 -45v-187q0 -43 -45 -43h-303v-262h217q27 0 35 -10t8 -33v-104q0 -25 -8 -35t-33 -10h-219v-588q0 -45 -43 -45h-235q-45 0 -45 45v588h-205q-41 0 -41 45v104q0 43 43 43h203v262h-301q-45 0 -45 43z" />
<glyph unicode="&#x167;" horiz-adv-x="837" d="M49 811v154q0 45 43 45h92v200q0 39 45 54l207 55q23 8 37 -1t14 -34v-274h209q27 0 35 -10.5t8 -32.5v-156q0 -25 -8 -35t-35 -10h-211v-125h183q41 0 41 -41v-108q0 -23 -8.5 -33t-32.5 -10h-181v-64q0 -63 20.5 -86t104.5 -25q39 0 142 9q33 0 41 -15q6 -8 8 -28 l18 -148q6 -23 -5 -41t-32 -24q-129 -43 -299 -43q-176 0 -239.5 88t-63.5 237v140h-82q-41 0 -41 43v106q0 43 41 43h82v125h-90q-43 0 -43 45z" />
<glyph unicode="&#x168;" horiz-adv-x="1343" d="M137 506v809q0 47 45 47h236q43 0 43 -47v-801q0 -252 209 -252q215 0 215 252l-2 801q0 47 47 47h235q43 0 43 -47l-2 -809q0 -143 -39 -244q-59 -143 -194 -211.5t-303 -68.5q-254 -2 -393.5 140t-139.5 384zM258 1556q90 231 264 232q63 0 178 -50t152 -50 q68 0 115 77q14 27 55 9l76 -41q29 -14 18 -47q-92 -223 -262 -224q-47 0 -167 49.5t-163 49.5q-70 0 -121 -76q-8 -12 -12 -16.5t-13 -3.5t-26 10l-78 34q-28 14 -16 47z" />
<glyph unicode="&#x169;" horiz-adv-x="1136" d="M94 377v588q0 45 43 45h225q43 0 44 -45v-537q0 -158 124 -158q29 0 64 10.5t79 29t50 20.5v635q0 45 43 45h225q45 0 45 -45v-922q0 -43 -45 -43h-225q-43 0 -43 43v51q-2 0 -2 1t-2 1q-68 -51 -157 -81.5t-165 -30.5q-84 0 -142 22.5t-89 54t-48.5 90t-20.5 104.5 t-3 122zM150 1208q90 231 264 232q61 0 176 -50.5t153 -50.5q68 0 115 78q14 27 55 8l76 -41q29 -14 19 -47q-92 -223 -263 -223q-47 0 -166.5 49t-162.5 49q-70 0 -121 -75q-8 -12 -12 -16.5t-13.5 -3.5t-25.5 9l-78 35q-28 14 -16 47z" />
<glyph unicode="&#x16a;" horiz-adv-x="1343" d="M137 506v809q0 47 45 47h236q43 0 43 -47v-801q0 -252 209 -252q215 0 215 252l-2 801q0 47 47 47h235q43 0 43 -47l-2 -809q0 -143 -39 -244q-59 -143 -194 -211.5t-303 -68.5q-254 -2 -393.5 140t-139.5 384zM319 1524v143q0 43 43 43h623q41 0 41 -41v-145 q0 -25 -8 -34t-33 -9h-623q-43 0 -43 43z" />
<glyph unicode="&#x16b;" horiz-adv-x="1136" d="M94 377v588q0 45 43 45h225q43 0 44 -45v-537q0 -158 124 -158q29 0 64 10.5t79 29t50 20.5v635q0 45 43 45h225q45 0 45 -45v-922q0 -43 -45 -43h-225q-43 0 -43 43v51q-2 0 -2 1t-2 1q-68 -51 -157 -81.5t-165 -30.5q-84 0 -142 22.5t-89 54t-48.5 90t-20.5 104.5 t-3 122zM209 1202v146q0 43 43 43h625q41 0 41 -41v-148q0 -43 -41 -43h-625q-43 0 -43 43z" />
<glyph unicode="&#x16c;" horiz-adv-x="1343" d="M137 506v809q0 47 45 47h236q43 0 43 -47v-801q0 -252 209 -252q215 0 215 252l-2 801q0 47 47 47h235q43 0 43 -47l-2 -809q0 -143 -39 -244q-59 -143 -194 -211.5t-303 -68.5q-254 -2 -393.5 140t-139.5 384zM251 1728.5q-1 6.5 0 9.5t3 8t6 9l8 8l74 60q31 14 40 10 t34 -29q68 -82 121 -114.5t127 -32.5q68 0 122 32.5t119 114.5q18 25 32.5 28t39.5 -11l74 -45q16 -10 19 -26.5t-1 -29t-18 -39.5q-63 -121 -164 -185t-223.5 -64t-233.5 63.5t-162 179.5q-2 2 -5 11.5t-4 11.5t-4 9t-3 11t-1 10.5z" />
<glyph unicode="&#x16d;" horiz-adv-x="1136" d="M94 377v588q0 45 43 45h225q43 0 44 -45v-537q0 -158 124 -158q29 0 64 10.5t79 29t50 20.5v635q0 45 43 45h225q45 0 45 -45v-922q0 -43 -45 -43h-225q-43 0 -43 43v51q-2 0 -2 1t-2 1q-68 -51 -157 -81.5t-165 -30.5q-84 0 -142 22.5t-89 54t-48.5 90t-20.5 104.5 t-3 122zM153 1397q-1 6 0 9t3 8t6 9l8 9l74 59q31 14 40 10t33 -28q68 -82 121.5 -115t126.5 -33q68 0 122 33t120 115q18 25 32.5 27.5t39.5 -11.5l73 -45q16 -10 19.5 -26.5t-0.5 -29t-19 -38.5q-63 -121 -163.5 -185.5t-223.5 -64.5t-233.5 63.5t-161.5 179.5 q-2 2 -5 11.5t-4 11.5t-4 9t-3 11.5t-1 10.5z" />
<glyph unicode="&#x16e;" horiz-adv-x="1343" d="M137 506v809q0 47 45 47h236q43 0 43 -47v-801q0 -252 209 -252q215 0 215 252l-2 801q0 47 47 47h235q43 0 43 -47l-2 -809q0 -143 -39 -244q-59 -143 -194 -211.5t-303 -68.5q-254 -2 -393.5 140t-139.5 384zM416 1630.5q0 106.5 78.5 177t183 70.5t179.5 -74.5 t75 -173.5q0 -102 -75 -176t-179.5 -74t-183 72t-78.5 178.5zM584 1630q0 -45 26.5 -71.5t67.5 -26.5q37 0 63.5 28.5t26.5 69.5q0 39 -26.5 67.5t-63.5 28.5q-39 0 -66.5 -28.5t-27.5 -67.5z" />
<glyph unicode="&#x16f;" horiz-adv-x="1136" d="M94 377v588q0 45 43 45h225q43 0 44 -45v-537q0 -158 124 -158q29 0 64 10.5t79 29t50 20.5v635q0 45 43 45h225q45 0 45 -45v-922q0 -43 -45 -43h-225q-43 0 -43 43v51q-2 0 -2 1t-2 1q-68 -51 -157 -81.5t-165 -30.5q-84 0 -142 22.5t-89 54t-48.5 90t-20.5 104.5 t-3 122zM307 1335.5q0 106.5 79 177t183.5 70.5t179 -74.5t74.5 -173.5q0 -102 -74.5 -176t-179 -74t-183.5 72t-79 178.5zM475 1335q0 -45 26.5 -71.5t67.5 -26.5q37 0 63.5 28.5t26.5 69.5q0 39 -26.5 68t-63.5 29q-39 0 -66.5 -29t-27.5 -68z" />
<glyph unicode="&#x170;" horiz-adv-x="1343" d="M137 506v809q0 47 45 47h236q43 0 43 -47v-801q0 -252 209 -252q215 0 215 252l-2 801q0 47 47 47h235q43 0 43 -47l-2 -809q0 -143 -39 -244q-59 -143 -194 -211.5t-303 -68.5q-254 -2 -393.5 140t-139.5 384zM301 1516q-20 25 6 47l311 252q33 27 60 -5l113 -143 q29 -37 -15 -59l-344 -193q-33 -18 -53 4zM770 1516q-23 27 6 47l311 252q33 27 60 -5l110 -143q29 -37 -14 -59l-342 -193q-35 -18 -55 4z" />
<glyph unicode="&#x171;" horiz-adv-x="1136" d="M94 377v588q0 45 43 45h225q43 0 44 -45v-537q0 -158 124 -158q29 0 64 10.5t79 29t50 20.5v635q0 45 43 45h225q45 0 45 -45v-922q0 -43 -45 -43h-225q-43 0 -43 43v51q-2 0 -2 1t-2 1q-68 -51 -157 -81.5t-165 -30.5q-84 0 -142 22.5t-89 54t-48.5 90t-20.5 104.5 t-3 122zM268 1210l189 353q25 39 57 18l158 -88q39 -23 10 -61l-242 -310q-25 -33 -51 -18l-108 57q-31 18 -13 49zM627 1210l188 353q23 39 57 18l156 -88q39 -20 12 -61l-241 -310q-25 -33 -51 -18l-109 57q-30 18 -12 49z" />
<glyph unicode="&#x172;" horiz-adv-x="1343" d="M137 506v809q0 47 45 47h236q43 0 43 -47v-801q0 -252 209 -252q215 0 215 252l-2 801q0 47 47 47h235q43 0 43 -47l-2 -809q0 -143 -39 -244q-53 -129 -168.5 -197.5t-263.5 -80.5q-43 -74 -43 -148q0 -72 88 -72q47 0 113 17q31 6 37 -14q4 -8 24 -78q12 -31 -22 -45 q-86 -43 -211 -43q-111 0 -170 58t-59 155q0 92 59 176q-199 31 -306.5 168t-107.5 348z" />
<glyph unicode="&#x173;" horiz-adv-x="1136" d="M94 377v588q0 45 43 45h225q43 0 44 -45v-537q0 -158 124 -158q29 0 64 10.5t79 29t50 20.5v635q0 45 43 45h225q45 0 45 -45v-922q0 -43 -45 -43h-37q-51 -84 -51 -164q0 -72 88 -72q47 0 113 17q31 6 37 -14q4 -8 24 -78q12 -31 -22 -45q-86 -43 -211 -43 q-111 0 -170.5 58t-59.5 154.5t68 186.5h-4q-43 0 -43 43v51q-2 0 -2 1t-2 1q-68 -51 -157 -81.5t-165 -30.5q-84 0 -142 22.5t-89 54t-48.5 90t-20.5 104.5t-3 122z" />
<glyph unicode="&#x174;" horiz-adv-x="1796" d="M31 1311q-14 51 35 51h233q33 0 49.5 -12.5t24.5 -42.5q129 -518 139 -549l74 -318h8l63 224q4 14 50.5 173.5t50.5 170.5l-96 303q-8 18 -1 34.5t27 16.5h217q66 0 78 -55q147 -559 156 -590l67 -277h11l61 301l133 566q14 55 82 55h221q51 0 33 -53l-330 -1250 q-16 -59 -88 -59h-186q-43 0 -60.5 14.5t-27.5 44.5l-94 310l-54 178h-10l-57 -178l-97 -310q-10 -31 -27.5 -45t-58.5 -14h-190q-70 0 -86 57zM437 1512.5q-1 9.5 16 29.5l252 230l8 8q6 6 8 7t7 6t8 6l9 3q6 2 11.5 3t12.5 2t15 1h131q45 0 82 -30l252 -234q29 -25 -2 -55 l-67 -72q-18 -14 -26.5 -12t-31.5 16l-276 178l-266 -180q-20 -16 -30.5 -17t-29.5 15l-65 70q-17 16 -18 25.5z" />
<glyph unicode="&#x175;" horiz-adv-x="1554" d="M33 981q0 29 33 29h231q47 0 59 -43l93 -342l71 -263h10l74 232l55 162l-71 209q-6 18 1 31.5t29 13.5h205q31 0 42.5 -8.5t19.5 -40.5q66 -215 108 -367l62 -213h8l65 256l84 326q8 29 17.5 38t32.5 9h229q47 0 31 -43l-283 -904q-10 -35 -25.5 -49t-54.5 -14h-172 q-35 0 -49 11.5t-27 47.5l-49 148l-67 201h-7l-75 -207l-51 -142q-10 -31 -25.5 -45t-56.5 -14h-158q-39 0 -55.5 12.5t-26.5 44.5l-305 908q-2 6 -2 16zM354 1153q-27 25 0 53l248 273q33 37 82 37h131q35 0 49.5 -6.5t30.5 -24.5l250 -281q27 -29 0 -53l-72 -68 q-27 -23 -59 2l-271 209l-258 -207q-23 -16 -32 -18t-27 14z" />
<glyph unicode="&#x176;" horiz-adv-x="1288" d="M22.5 1346.5q6.5 15.5 28.5 15.5h244q35 0 49 -9.5t31 -39.5l135 -269l121 -245h12l127 248l131 251q12 25 19.5 36.5t22.5 19.5t38 8h246q23 0 30 -14.5t-4 -30.5l-462 -817v-455q0 -45 -41 -45h-238q-45 0 -45 45v455l-440 811q-11 20 -4.5 35.5zM222 1512.5 q-1 9.5 16 29.5l251 230l9 8q6 6 8 7t7 6t8 6l9 3q6 2 11.5 3t12.5 2t15 1h131q45 0 82 -30l252 -234q29 -25 -2 -55l-67 -72q-18 -14 -26.5 -12t-31.5 16l-276 178l-266 -180q-20 -16 -30.5 -17t-29.5 15l-65 70q-17 16 -18 25.5z" />
<glyph unicode="&#x177;" horiz-adv-x="1069" d="M29 961q-20 51 32 51h220q31 0 44 -7.5t21 -35.5l96 -297l86 -281h11l94 285q12 39 45 143.5t49 149.5q14 43 70 43h204q53 0 33 -54l-487 -1310q-10 -29 -24.5 -38t-49.5 -9h-197q-31 0 -38 11t6 40l139 375zM150 1153q-27 25 0 53l247 273q33 37 82 37h131 q35 0 49.5 -6.5t30.5 -24.5l250 -281q27 -29 0 -53l-72 -68q-27 -23 -59 2l-270 209l-258 -207q-23 -16 -32 -18t-28 14z" />
<glyph unicode="&#x178;" horiz-adv-x="1288" d="M22.5 1346.5q6.5 15.5 28.5 15.5h244q35 0 49 -9.5t31 -39.5l135 -269l121 -245h12l127 248l131 251q12 25 19.5 36.5t22.5 19.5t38 8h246q23 0 30 -14.5t-4 -30.5l-462 -817v-455q0 -45 -41 -45h-238q-45 0 -45 45v455l-440 811q-11 20 -4.5 35.5zM276 1567 q0 68 32 103.5t118 35.5q88 0 120 -35t32 -104q0 -68 -32 -107t-120 -39q-92 0 -121 38t-29 108zM696 1567q0 68 33 103.5t119 35.5q88 0 118.5 -35t30.5 -104.5t-30.5 -107.5t-118.5 -38q-92 0 -122 38t-30 108z" />
<glyph unicode="&#x179;" horiz-adv-x="1126" d="M86 43v166q0 47 27 82l559 796h-500q-45 0 -45 43v187q0 45 45 45h823q18 0 30.5 -12.5t12.5 -30.5l-2 -150q0 -53 -26 -98l-561 -799h548q45 0 45 -43v-184q0 -45 -43 -45h-868q-45 0 -45 43zM379 1544q-18 31 12 49l334 219q39 25 59 -12l95 -151q27 -39 -19 -60 l-360 -157q-35 -14 -54 10z" />
<glyph unicode="&#x17a;" horiz-adv-x="964" d="M57 41v131q0 45 31 80l428 512h-387q-43 0 -43 45v160q0 43 43 43h717q25 0 34 -9.5t9 -31.5v-137q0 -43 -31 -80l-422 -504h420q45 0 45 -45v-160q0 -45 -45 -45h-758q-41 0 -41 41zM369 1210l190 353q23 39 57 18l156 -88q43 -23 10 -61l-241 -310q-23 -33 -52 -18 l-106 57q-30 18 -14 49z" />
<glyph unicode="&#x17b;" horiz-adv-x="1126" d="M86 43v166q0 47 27 82l559 796h-500q-45 0 -45 43v187q0 45 45 45h823q18 0 30.5 -12.5t12.5 -30.5l-2 -150q0 -53 -26 -98l-561 -799h548q45 0 45 -43v-184q0 -45 -43 -45h-868q-45 0 -45 43zM440 1614q0 152 162 151q92 0 127 -38.5t35 -112.5q0 -152 -162 -152 q-96 0 -129 42t-33 110z" />
<glyph unicode="&#x17c;" horiz-adv-x="964" d="M57 41v131q0 45 31 80l428 512h-387q-43 0 -43 45v160q0 43 43 43h717q25 0 34 -9.5t9 -31.5v-137q0 -43 -31 -80l-422 -504h420q45 0 45 -45v-160q0 -45 -45 -45h-758q-41 0 -41 41zM354 1282q0 152 162 152q92 0 127 -39t35 -113q0 -152 -162 -152q-96 0 -129 42 t-33 110z" />
<glyph unicode="&#x17d;" horiz-adv-x="1126" d="M86 43v166q0 47 27 82l559 796h-500q-45 0 -45 43v187q0 45 45 45h823q18 0 30.5 -12.5t12.5 -30.5l-2 -150q0 -53 -26 -98l-561 -799h548q45 0 45 -43v-184q0 -45 -43 -45h-868q-45 0 -45 43zM201 1706q-29 31 0 55l65 72q18 23 58 -2l268 -166l274 164q23 14 32 16 t28 -12l67 -70q14 -16 15.5 -24t-15.5 -29l-252 -235q-33 -31 -79 -31h-132q-47 0 -81 35z" />
<glyph unicode="&#x17e;" horiz-adv-x="964" d="M57 41v131q0 45 31 80l428 512h-387q-43 0 -43 45v160q0 43 43 43h717q25 0 34 -9.5t9 -31.5v-137q0 -43 -31 -80l-422 -504h420q45 0 45 -45v-160q0 -45 -45 -45h-758q-41 0 -41 41zM83 1443q1 9 17 25l70 70q25 25 59 -4l260 -207l269 209q33 25 59 2l72 -68 q27 -25 2 -55l-252 -278q-16 -18 -30.5 -24.5t-49.5 -6.5h-131q-35 0 -49 7t-33 30l-248 272q-16 19 -15 28z" />
<glyph unicode="&#x192;" horiz-adv-x="1222" d="M68 -113l26 123q8 29 17.5 36t35.5 3q66 -8 113 -8q74 0 100.5 47t47.5 164l61 383h-131q-27 0 -36 8t-9 33v135q0 29 8 37t35 8h160l32 201q55 342 365 342q137 0 246 -37q25 -8 12 -45l-33 -139q-6 -20 -15 -25.5t-36 -1.5q-59 10 -96 10q-82 0 -109.5 -34.5 t-44.5 -133.5l-22 -137h159q27 0 37 -7t10 -32v-141q0 -29 -7 -35t-38 -6h-188l-86 -539q-49 -301 -350 -301q-143 0 -240 37q-34 10 -24 55z" />
<glyph unicode="&#x1a0;" horiz-adv-x="1411" d="M117 698q0 86 10 165t46 177.5t95.5 169t171 119.5t260.5 49q229 0 369 -96q59 8 80.5 49t21.5 144v81q0 29 31 29h170q29 0 29 -29v-155q0 -244 -176 -309q68 -147 67 -394q0 -109 -10 -195.5t-46 -189t-97.5 -171t-174 -114.5t-266 -46t-264 47t-171 114.5t-94.5 171 t-43 188t-9 195.5zM461 676q0 -215 53 -314.5t188 -99.5q141 0 198.5 99.5t57.5 314.5q0 225 -56 323.5t-200 98.5q-133 0 -187 -100.5t-54 -321.5z" />
<glyph unicode="&#x1a1;" horiz-adv-x="1181" d="M86 520q0 68 8 126.5t37 133t77 126.5t137 88t210 36q193 0 307 -76q53 8 72.5 51.5t19.5 139.5v82q0 29 31 28h170q29 0 29 -28v-156q0 -244 -178 -309q35 -98 34 -242q0 -82 -7 -143.5t-34.5 -140t-77 -130t-143.5 -87t-223 -35.5q-127 0 -218 35.5t-138 87t-74 130 t-33 140t-6 143.5zM401 508q0 -139 33 -198.5t121 -59.5q98 0 132 59.5t34 198.5t-32 197.5t-130 58.5q-90 0 -124 -62.5t-34 -193.5z" />
<glyph unicode="&#x1af;" horiz-adv-x="1474" d="M137 506v809q0 47 45 47h236q43 0 43 -47v-801q0 -252 209 -252q215 0 215 252l-2 801q0 47 47 47h235q43 0 43 -47v-29q61 6 83 42t22 130v101q0 29 30 28h170q29 0 29 -28v-158q0 -330 -313 -330h-23v-565q0 -143 -39 -244q-59 -143 -194 -211.5t-303 -68.5 q-254 -2 -393.5 140t-139.5 384z" />
<glyph unicode="&#x1b0;" horiz-adv-x="1349" d="M94 377v588q0 45 43 45h225q43 0 44 -45v-537q0 -158 124 -158q29 0 64 10.5t79 29t50 20.5v635q0 45 43 45h225q45 0 45 -45v-13q59 8 81 49t22 144v82q0 29 30 28h170q29 0 29 -28v-129q0 -33 -2 -49q-10 -291 -266 -306q-20 -2 -64 -2v-698q0 -43 -45 -43h-225 q-43 0 -43 43v51q-2 0 -2 1t-2 1q-68 -51 -157 -81.5t-165 -30.5q-84 0 -142 22.5t-89 54t-48.5 90t-20.5 104.5t-3 122z" />
<glyph unicode="&#x1fa;" horiz-adv-x="1265" d="M18.5 10q-6.5 10 1.5 43l396 1250q10 33 25.5 46t54.5 13h258q39 0 53 -13.5t27 -48.5l411 -1251q12 -49 -24 -49h-254q-33 0 -46.5 14.5t-23.5 48.5l-68 244h-407l-74 -250q-16 -57 -72 -57h-227q-24 0 -30.5 10zM365 1648.5q0 106.5 78.5 177t183 70.5t179.5 -74.5 t75 -172.5q0 -102 -75 -176t-179.5 -74t-183 71.5t-78.5 178zM467 2034q-18 31 12 49l334 219q39 25 59 -12l95 -152q27 -39 -19 -59l-360 -158q-35 -14 -53 10zM492 557h266l-62 225l-65 250h-10l-68 -248zM532 1649q0 -45 27 -72t68 -27q37 0 63.5 29t26.5 70 q0 39 -26.5 67.5t-63.5 28.5q-39 0 -67 -28.5t-28 -67.5z" />
<glyph unicode="&#x1fb;" horiz-adv-x="1173" d="M80 285q-6 340 393 340h236v32q0 68 -36 94.5t-145 26.5q-88 0 -268 -18q-43 -6 -56.5 0t-21.5 35l-22 106q-4 29 8 45.5t57 34.5q131 49 353 49q141 0 230 -24.5t133 -79t59.5 -119t15.5 -164.5v-324q0 -61 13 -76.5t63 -21.5q27 -2 35 -9t8 -26v-131q0 -41 -60 -53 q-57 -14 -127 -14q-178 0 -211 133l-4 2q-74 -70 -176 -104.5t-190 -34.5q-164 0 -225.5 82t-61.5 219zM336 1335.5q0 106.5 79 177t183 70.5t179 -74.5t75 -173.5q0 -102 -75 -176t-179 -74t-183 72t-79 178.5zM395 301q0 -47 19.5 -65.5t72.5 -18.5q96 0 215 72v137h-184 q-61 0 -92 -27.5t-31 -97.5zM475 1739l191 352q23 39 57 18l156 -88q43 -23 10 -61l-242 -309q-23 -33 -51 -19l-107 58q-30 18 -14 49zM504 1335q0 -45 26.5 -71.5t67.5 -26.5q37 0 63.5 28.5t26.5 69.5q0 39 -26.5 68t-63.5 29q-39 0 -66.5 -29t-27.5 -68z" />
<glyph unicode="&#x1fc;" horiz-adv-x="1904" d="M20 51l674 1260q18 31 36 41t58 10h969q47 0 47 -45v-187q0 -43 -47 -43h-528v-247h463q45 0 45 -43v-187q0 -43 -45 -43h-463v-295h540q43 0 43 -45v-186q0 -41 -45 -41h-821q-45 0 -45 41v266h-407l-140 -260q-29 -47 -82 -47h-231q-48 0 -21 51zM625 557h276v526h-4z M989 1544q-18 31 12 49l334 219q39 25 60 -12l94 -151q27 -39 -19 -60l-360 -157q-35 -14 -53 10z" />
<glyph unicode="&#x1fd;" horiz-adv-x="1720" d="M90 283q0 176 99.5 253.5t291.5 77.5h238v43q0 68 -36 94.5t-144 26.5q-84 0 -269 -18q-29 -8 -50 -3t-27 36l-23 106q-12 53 63 80q133 49 355 49q227 0 319 -94q109 94 279 94q467 0 467 -471q0 -135 -113 -135h-504q8 -111 57.5 -145.5t161.5 -34.5q109 0 248 20 q29 8 46.5 2t23.5 -43l18 -102q6 -37 -3 -54.5t-52 -35.5q-123 -47 -334 -47q-279 0 -389 143q-172 -141 -422 -141q-176 0 -238.5 80t-62.5 219zM406 297q0 -43 20 -62.5t70 -19.5q43 0 116.5 23.5t122.5 50.5q-12 51 -18 133h-174q-74 0 -105.5 -28.5t-31.5 -96.5z M797 1210l190 353q23 39 57 18l156 -88q43 -23 10 -61l-241 -310q-23 -33 -51 -18l-107 57q-30 18 -14 49zM1044 612h281q-4 172 -139 172q-132 0 -142 -172z" />
<glyph unicode="&#x1fe;" horiz-adv-x="1411" d="M117 698q0 86 10 165t46 177.5t95.5 169t171 119.5t260.5 49q244 0 387 -110l62 80q18 20 25.5 23t25.5 -9l43 -33q18 -14 18.5 -23.5t-16.5 -29.5l-74 -94q121 -162 121 -484q0 -109 -10 -195.5t-46 -189t-97.5 -171t-174 -114.5t-266.5 -46q-242 0 -379 108l-67 -88 q-27 -33 -55 -12l-41 33q-25 20 0 51l82 104q-121 166 -121 520zM461 676q0 -115 12 -195l418 535q-61 82 -189 82q-133 0 -187 -100.5t-54 -321.5zM522 348q55 -86 180 -86q141 0 198.5 99.5t57.5 314.5q0 119 -16 211zM563 1544q-18 31 12 49l334 219q39 25 60 -12 l94 -151q27 -39 -19 -60l-360 -157q-35 -14 -53 10z" />
<glyph unicode="&#x1ff;" horiz-adv-x="1124" d="M86 520q0 68 8 126.5t37 133t77 126.5t137 88t210 36q178 0 289 -65l67 82q18 20 25.5 23t28.5 -13l51 -43q18 -16 18 -24.5t-18 -28.5l-70 -87q94 -123 94 -354q0 -82 -7 -143.5t-34.5 -140t-77 -130t-143.5 -87t-223 -35.5q-170 0 -281 63l-47 -57q-18 -20 -25 -23.5 t-28 10.5l-51 46q-18 16 -18.5 24t18.5 29l51 63q-88 119 -88 381zM401 508q0 -59 2 -86l256 315q-37 27 -100 27q-90 0 -124 -62.5t-34 -193.5zM446 1210l191 353q23 39 57 18l156 -88q43 -23 10 -61l-242 -310q-23 -33 -51 -18l-106 57q-31 18 -15 49zM461 276 q33 -27 94 -26q98 0 132 59.5t34 198.5q0 35 -4 84z" />
<glyph unicode="&#x218;" horiz-adv-x="1189" d="M94 958q0 199 133 307.5t363 108.5q248 0 391 -59q47 -16 56.5 -33.5t2.5 -52.5l-28 -121q-8 -37 -26.5 -42t-61.5 1q-170 23 -310 23q-178 0 -178 -123q0 -61 36 -85t146 -46q92 -20 142.5 -34t125.5 -46.5t113.5 -73.5t68.5 -111.5t30 -162.5q0 -94 -30 -168t-80 -122 t-119.5 -79t-145.5 -44t-162 -13q-244 0 -403 63q-47 18 -55.5 35.5t-2.5 50.5l25 119q8 37 24.5 44t55.5 -1q229 -29 358 -29q201 0 201 131q0 70 -40 98.5t-151 51.5q-88 18 -142 33.5t-126 48t-111.5 72.5t-69.5 106.5t-30 152.5zM416 -240.5q0 19.5 33 47.5l133 99 q35 20 52 15t46 -32q84 -78 84 -196q0 -125 -55.5 -219.5t-143.5 -147.5q-45 -25 -76 10l-53 56q-20 23 -19 35t27 41q53 53 54 131q0 47 -54 112q-28 29 -28 48.5z" />
<glyph unicode="&#x219;" horiz-adv-x="999" d="M80 125l22 98q6 29 19.5 35t46.5 0q154 -27 293 -27q78 0 110.5 17.5t32.5 58.5q0 43 -23.5 59.5t-91.5 24.5q-98 14 -158.5 28.5t-123 47.5t-92 91t-29.5 144q0 158 114.5 243t303.5 85q190 0 317 -45q47 -16 62.5 -32.5t7.5 -51.5l-23 -104q-8 -29 -18 -35t-43 -2 q-184 25 -291 24q-72 2 -94.5 -15t-22.5 -54q0 -25 19.5 -39t40 -19.5t67.5 -13.5q94 -12 153.5 -26.5t122 -48t92.5 -95t30 -154.5q0 -176 -128 -256.5t-325 -80.5q-182 0 -321 45q-51 18 -65.5 37.5t-4.5 60.5zM328 -240.5q0 19.5 32 47.5l134 99q35 20 52 15t46 -32 q84 -78 84 -196q0 -125 -55.5 -219.5t-143.5 -147.5q-45 -25 -76 10l-53 56q-20 23 -19 35t27 41q53 53 54 131q0 47 -54 112q-28 29 -28 48.5z" />
<glyph unicode="&#x21a;" horiz-adv-x="1067" d="M25 1130v187q0 45 45 45h927q45 0 45 -45v-187q0 -43 -45 -43h-303v-1042q0 -45 -43 -45h-235q-45 0 -45 45v1042h-301q-45 0 -45 43zM338 -240.5q0 19.5 33 47.5l133 99q35 20 52 15t46 -32q84 -78 84 -196q0 -125 -55.5 -219.5t-143.5 -147.5q-45 -25 -75 10l-54 56 q-20 23 -19 35t28 41q53 53 53 131q0 47 -53 112q-29 29 -29 48.5z" />
<glyph unicode="&#x21b;" horiz-adv-x="837" d="M49 811v154q0 45 43 45h92v200q0 39 45 54l207 55q23 8 37 -1t14 -34v-274h209q27 0 35 -10.5t8 -32.5v-156q0 -25 -8 -35t-35 -10h-211l2 -381q0 -63 20.5 -86t104.5 -25q39 0 142 9q33 0 41 -15q6 -8 8 -28l18 -148q6 -23 -5 -41t-32 -24q-129 -43 -299 -43 q-176 0 -239.5 88t-63.5 237v457h-90q-43 0 -43 45zM229 -240.5q0 19.5 33 47.5l133 99q35 20 52.5 15t46.5 -32q84 -78 84 -196q0 -125 -55.5 -219.5t-143.5 -147.5q-45 -25 -76 10l-53 56q-20 23 -19.5 35t27.5 41q53 53 53 131q0 47 -53 112q-29 29 -29 48.5z" />
<glyph unicode="&#x259;" horiz-adv-x="1093" d="M80 449q-4 133 113 133h497q-8 113 -59 150.5t-162 37.5q-94 0 -238 -20q-39 -4 -50 3t-19 42l-15 98q-6 41 2.5 58.5t49.5 33.5q135 47 327 47q147 0 247.5 -41t149 -117.5t67 -160.5t18.5 -197q0 -532 -476 -532q-139 0 -233 41t-139 114.5t-61.5 145.5t-18.5 164z M399 397q4 -174 138 -174q137 0 149 174h-287z" />
<glyph unicode="&#x2b9;" horiz-adv-x="620" d="M63 866l265 574q16 37 59 18l184 -86q41 -14 13 -55l-320 -547q-18 -27 -45 -16l-143 65q-27 10 -13 47z" />
<glyph unicode="&#x2c6;" horiz-adv-x="1114" d="M152 1153q-27 25 0 53l247 273q14 16 21.5 21t22 10.5t38.5 5.5h131q35 0 49.5 -6.5t30.5 -24.5l250 -281q27 -29 0 -53l-72 -68q-27 -23 -59 2l-270 209l-258 -207q-23 -16 -32 -18t-28 14z" />
<glyph unicode="&#x2c7;" horiz-adv-x="1062" d="M124 1422.5q1 9.5 17 25.5l70 70q25 25 59 -5l260 -206l269 209q33 25 59 2l72 -68q27 -25 2 -55l-252 -279q-16 -18 -30.5 -24.5t-49.5 -6.5h-131q-35 0 -49 7.5t-33 29.5l-248 273q-16 18 -15 27.5z" />
<glyph unicode="&#x2d8;" horiz-adv-x="1107" d="M155 1388.5q-1 6.5 0 9.5t3 8t6 9l8 8l74 60q31 14 40 10t33 -29q68 -82 121.5 -114.5t126.5 -32.5q68 0 122 32.5t120 114.5q18 25 32.5 28t39.5 -11l73 -45q16 -10 19.5 -26.5t-0.5 -29t-19 -39.5q-63 -121 -163.5 -185t-223.5 -64t-233.5 63.5t-161.5 179.5 q-2 2 -5 11.5t-4 11.5t-4 9t-3 11t-1 10.5z" />
<glyph unicode="&#x2d9;" horiz-adv-x="999" d="M336 1282q0 152 162 152q92 0 126.5 -39t34.5 -113q0 -152 -161 -152q-96 0 -129 42t-33 110z" />
<glyph unicode="&#x2da;" horiz-adv-x="1075" d="M307 1335.5q0 106.5 79 177t183.5 70.5t179 -74.5t74.5 -173.5q0 -102 -74.5 -176t-179 -74t-183.5 72t-79 178.5zM475 1335q0 -45 26.5 -71.5t67.5 -26.5q37 0 63.5 28.5t26.5 69.5q0 39 -26.5 68t-63.5 29q-39 0 -66.5 -29t-27.5 -68z" />
<glyph unicode="&#x2db;" horiz-adv-x="862" d="M233 -186q0 143 150 274h170q-119 -133 -119 -252q0 -72 88 -72q47 0 113 17q31 6 37 -14q4 -8 24 -78q12 -31 -22 -45q-86 -43 -211 -43q-111 0 -170.5 58.5t-59.5 154.5z" />
<glyph unicode="&#x2dc;" horiz-adv-x="1116" d="M141 1214q84 225 252 226q59 0 167 -48.5t145 -48.5q66 0 110 74q14 25 51 8l72 -39q31 -14 18 -45q-88 -217 -249 -217q-43 0 -158 47.5t-154 47.5q-68 0 -116 -72q-8 -12 -12.5 -16.5t-12.5 -3.5t-23 10l-73 34q-8 2 -15.5 14.5t-1.5 28.5z" />
<glyph unicode="&#x2dd;" horiz-adv-x="1220" d="M303 1210l189 353q25 39 57 18l158 -88q39 -23 10 -61l-242 -310q-25 -33 -51 -18l-109 57q-30 18 -12 49zM662 1210l188 353q23 39 57 18l156 -88q39 -20 12 -61l-241 -310q-25 -33 -52 -18l-108 57q-30 18 -12 49z" />
<glyph unicode="&#x309;" horiz-adv-x="839" d="M163 1393.5q-1 7.5 15 33.5q92 125 236 125q104 0 170.5 -62.5t64.5 -160.5q-2 -150 -170 -278q-33 -23 -61 6l-43 43q-27 25 6 57q61 68 57 137q-2 55 -56 66.5t-95 -21.5q-4 -4 -12.5 -9t-11.5 -7t-8 -4t-8 0t-8.5 4t-11.5 8l-45 41q-18 14 -19 21.5z" />
<glyph unicode="&#x323;" horiz-adv-x="868" d="M272 -285q0 154 164 154q94 0 129 -39t35 -115q0 -70 -35 -112.5t-129 -42.5q-96 0 -130 42.5t-34 112.5z" />
<glyph unicode="&#x384;" horiz-adv-x="1097" d="M428 1210l188 353q23 39 58 18l155 -88q43 -23 11 -61l-240 -310q-25 -33 -53 -18l-107 57q-28 18 -12 49z" />
<glyph unicode="&#x385;" horiz-adv-x="1054" d="M47 1264q0 68 32 103.5t118 35.5q88 0 119.5 -35t31.5 -104q0 -68 -31.5 -107t-119.5 -39q-92 0 -121 38t-29 108zM365 1188l147 371q16 41 53 24l166 -70q47 -16 17 -59l-203 -334q-23 -37 -49 -24l-113 45q-30 14 -18 47zM698 1263.5q0 67.5 33 103.5t117 36 q90 0 120.5 -35t30.5 -104.5t-30.5 -107.5t-120.5 -38t-120 39t-30 106.5z" />
<glyph unicode="&#x386;" horiz-adv-x="1265" d="M-205 1024l189 352q23 39 57 19l156 -88q43 -23 10 -62l-240 -309q-25 -33 -53 -18l-107 57q-28 18 -12 49zM18.5 10q-6.5 10 1.5 43l396 1250q10 33 25.5 46t54.5 13h258q39 0 53 -13.5t27 -48.5l411 -1251q12 -49 -24 -49h-254q-33 0 -46.5 14.5t-23.5 48.5l-68 244 h-407l-74 -250q-16 -57 -72 -57h-227q-24 0 -30.5 10zM492 557h266l-62 225l-65 250h-10l-68 -248z" />
<glyph unicode="&#x387;" horiz-adv-x="479" d="M76 776q0 154 164 154q94 0 128.5 -39t34.5 -115q0 -70 -34.5 -112.5t-128.5 -42.5q-98 0 -131 41.5t-33 113.5z" />
<glyph unicode="&#x388;" d="M-375 1024l189 352q23 39 57 19l156 -88q43 -23 10 -62l-240 -309q-25 -33 -53 -18l-106 57q-29 18 -13 49zM139 43v1272q0 47 45 47h813q43 0 43 -45v-187q0 -43 -45 -43h-530v-247h463q47 0 47 -43v-187q0 -43 -47 -43h-463v-295h541q45 0 45 -45v-186q0 -41 -45 -41 h-822q-45 0 -45 43z" />
<glyph unicode="&#x389;" horiz-adv-x="1325" d="M-367 1024l189 352q23 39 57 19l156 -88q43 -23 10 -62l-240 -309q-25 -33 -53 -18l-106 57q-29 18 -13 49zM137 45v1270q0 47 45 47h238q43 0 43 -47v-471h399v471q0 47 45 47h238q43 0 43 -47v-1270q0 -45 -43 -45h-238q-45 0 -45 45v524h-399v-524q0 -45 -43 -45h-238 q-45 0 -45 45z" />
<glyph unicode="&#x38a;" horiz-adv-x="622" d="M-346 1024l188 352q23 39 58 19l155 -88q43 -23 11 -62l-240 -309q-25 -33 -53 -18l-107 57q-28 18 -12 49zM147 45v1270q0 47 43 47h240q43 0 43 -47v-1270q0 -45 -43 -45h-240q-43 0 -43 45z" />
<glyph unicode="&#x38c;" horiz-adv-x="1411" d="M-297 1024l188 352q23 39 58 19l155 -88q43 -23 11 -62l-240 -309q-25 -33 -53 -18l-107 57q-28 18 -12 49zM117 698q0 86 10 165t46 177.5t95.5 169t171 119.5t260.5 49q182 0 306 -58t183.5 -163.5t81 -212t21.5 -246.5q0 -109 -10 -195.5t-46 -189t-97.5 -171 t-174 -114.5t-266 -46t-264 47t-171 114.5t-94.5 171t-43 188t-9 195.5zM461 676q0 -215 53 -314.5t188 -99.5q141 0 198.5 99.5t57.5 314.5q0 225 -56 323.5t-200 98.5q-133 0 -187 -100.5t-54 -321.5z" />
<glyph unicode="&#x38e;" horiz-adv-x="1288" d="M-434 1024l188 352q23 39 58 19l155 -88q43 -23 10 -62l-239 -309q-25 -33 -53 -18l-107 57q-28 18 -12 49zM22.5 1346.5q6.5 15.5 28.5 15.5h244q35 0 49 -9.5t31 -39.5l135 -269l121 -245h12l127 248l131 251q12 25 19.5 36.5t22.5 19.5t38 8h246q23 0 30 -14.5 t-4 -30.5l-462 -817v-455q0 -45 -41 -45h-238q-45 0 -45 45v455l-440 811q-11 20 -4.5 35.5z" />
<glyph unicode="&#x38f;" horiz-adv-x="1421" d="M-287 1024l189 352q23 39 57 19l156 -88q43 -23 10 -62l-240 -309q-25 -33 -53 -18l-106 57q-29 18 -13 49zM86 43v180q0 41 45 41h117l4 4q-72 55 -102.5 181t-30.5 249q0 88 12 171t52 178.5t101.5 165t171 116.5t253.5 47q598 0 598 -678q0 -106 -34 -231t-104 -197 l2 -2v-4h111q45 0 45 -41v-180q0 -43 -45 -43h-453q-45 0 -45 43v217q0 29 39 57q150 84 150 359q0 207 -58.5 313.5t-201.5 106.5q-252 0 -252 -420q0 -281 123 -354q39 -29 39 -62v-217q0 -43 -43 -43h-451q-43 0 -43 43z" />
<glyph unicode="&#x390;" horiz-adv-x="567" d="M-197 1264q0 68 32 103.5t118 35.5q88 0 119.5 -35t31.5 -104q0 -68 -31.5 -107t-119.5 -39q-92 0 -121 38t-29 108zM121 1188l147 371q16 41 54 24l165 -70q47 -16 17 -59l-203 -334q-23 -37 -49 -24l-113 45q-30 14 -18 47zM125 45v922q0 45 45 45h225q41 0 41 -45 v-922q0 -45 -41 -45h-225q-45 0 -45 45zM455 1263.5q0 67.5 32.5 103.5t116.5 36q90 0 121 -35t31 -104.5t-31 -107.5t-121 -38t-119.5 39t-29.5 106.5z" />
<glyph unicode="&#x391;" horiz-adv-x="1265" d="M18.5 10q-6.5 10 1.5 43l396 1250q10 33 25.5 46t54.5 13h258q39 0 53 -13.5t27 -48.5l411 -1251q12 -49 -24 -49h-254q-33 0 -46.5 14.5t-23.5 48.5l-68 244h-407l-74 -250q-16 -57 -72 -57h-227q-24 0 -30.5 10zM492 557h266l-62 225l-65 250h-10l-68 -248z" />
<glyph unicode="&#x392;" horiz-adv-x="1269" d="M137 45v1270q0 45 45 45l520 2q207 0 316.5 -100.5t109.5 -278.5q0 -68 -32.5 -143.5t-114.5 -116.5l2 -8q182 -70 182 -312q0 -184 -125 -293.5t-301 -109.5h-555q-47 0 -47 45zM463 272h211q158 0 157 148q0 68 -39.5 110.5t-117.5 42.5h-211v-301zM463 836h196 q61 0 98.5 34.5t37.5 90.5q0 129 -146 129h-186v-254z" />
<glyph unicode="&#x393;" horiz-adv-x="1058" d="M137 1317q0 45 45 45h799q45 0 45 -45v-187q0 -43 -47 -43h-514v-1042q0 -45 -43 -45h-238q-45 0 -45 45z" />
<glyph unicode="&#x394;" horiz-adv-x="1265" d="M16 29q0 6 4 22l400 1249q10 33 26.5 46.5t57.5 13.5h241q41 0 55.5 -13.5t26.5 -48.5l416 -1251q4 -12 4 -18q0 -29 -28 -29h-1170q-33 0 -33 29zM401 268h437q-14 53 -93 334t-116 422h-11q-37 -147 -69 -262q-6 -23 -40 -137.5t-70 -231.5t-38 -125z" />
<glyph unicode="&#x2206;" horiz-adv-x="1265" d="M16 29q0 6 4 22l400 1249q10 33 26.5 46.5t57.5 13.5h241q41 0 55.5 -13.5t26.5 -48.5l416 -1251q4 -12 4 -18q0 -29 -28 -29h-1170q-33 0 -33 29zM401 268h437q-14 53 -93 334t-116 422h-11q-37 -147 -69 -262q-6 -23 -40 -137.5t-70 -231.5t-38 -125z" />
<glyph unicode="&#x395;" d="M139 43v1272q0 47 45 47h813q43 0 43 -45v-187q0 -43 -45 -43h-530v-247h463q47 0 47 -43v-187q0 -43 -47 -43h-463v-295h541q45 0 45 -45v-186q0 -41 -45 -41h-822q-45 0 -45 43z" />
<glyph unicode="&#x396;" horiz-adv-x="1126" d="M86 43v166q0 47 27 82l559 796h-500q-45 0 -45 43v187q0 45 45 45h823q18 0 30.5 -12.5t12.5 -30.5l-2 -150q0 -53 -26 -98l-561 -799h548q45 0 45 -43v-184q0 -45 -43 -45h-868q-45 0 -45 43z" />
<glyph unicode="&#x397;" horiz-adv-x="1325" d="M137 45v1270q0 47 45 47h238q43 0 43 -47v-471h399v471q0 47 45 47h238q43 0 43 -47v-1270q0 -45 -43 -45h-238q-45 0 -45 45v524h-399v-524q0 -45 -43 -45h-238q-45 0 -45 45z" />
<glyph unicode="&#x398;" horiz-adv-x="1417" d="M117 698q0 86 10 165t46 177.5t96.5 169t172 119.5t260.5 49q147 0 258 -41t174.5 -104.5t102.5 -156.5t51 -181t12 -197q0 -74 -5 -137t-20 -139t-41 -136.5t-72 -118.5t-107.5 -97t-151.5 -63.5t-201 -24.5q-129 0 -228 30.5t-161.5 88t-103.5 123t-59.5 153.5 t-25.5 159.5t-7 161.5zM461 676q0 -213 55 -313.5t189 -100.5q139 0 199.5 100.5t60.5 313.5q0 225 -57.5 323.5t-202.5 98.5q-133 0 -188.5 -101.5t-55.5 -320.5zM535 602v172q0 41 45 41h262q43 0 43 -41v-172q0 -43 -43 -43h-262q-45 0 -45 43z" />
<glyph unicode="&#x399;" horiz-adv-x="622" d="M147 45v1270q0 47 43 47h240q43 0 43 -47v-1270q0 -45 -43 -45h-240q-43 0 -43 45z" />
<glyph unicode="&#x39a;" horiz-adv-x="1267" d="M125 45v1270q0 47 45 47h238q43 0 43 -47v-484h4l147 193l240 297q35 41 92 41h264q31 0 38 -17.5t-11 -39.5l-441 -531l457 -713q18 -33 9 -47t-33 -14h-271q-55 0 -90 53l-285 465l-120 -149v-324q0 -45 -43 -45h-238q-45 0 -45 45z" />
<glyph unicode="&#x39b;" horiz-adv-x="1265" d="M16 29q0 6 4 22l400 1249q10 33 26.5 46.5t57.5 13.5h241q41 0 55.5 -13.5t26.5 -48.5l416 -1251q4 -12 4 -18q0 -29 -28 -29h-252q-31 0 -44.5 13.5t-23.5 47.5q-178 623 -199 695l-71 268h-11q-53 -213 -67 -262t-108.5 -376t-96.5 -331q-16 -55 -72 -55h-225 q-33 0 -33 29z" />
<glyph unicode="&#x39c;" horiz-adv-x="1597" d="M139 45v1272q0 45 43 45h176q39 0 57.5 -10.5t33.5 -38.5l198 -404l152 -317h8l156 321l198 398q16 29 32.5 40t55.5 11h168q41 0 41 -45v-1272q0 -45 -41 -45h-229q-45 0 -45 45v627l-6 2l-72 -160l-129 -264q-31 -53 -86 -53h-100q-57 0 -86 49l-134 274l-71 156l-4 -2 v-629q0 -45 -43 -45h-230q-43 0 -43 45z" />
<glyph unicode="&#x39d;" horiz-adv-x="1372" d="M135 43v1272q0 45 45 45h168q29 0 48.5 -9.5t27.5 -18.5t22 -32q233 -350 463 -708l2 2h4v719q0 47 46 47h227q43 0 43 -47v-1270q0 -43 -43 -43h-168q-57 0 -88 47q-27 39 -138.5 207t-172.5 258l-162 250h-6v-719q0 -43 -43 -43h-228q-47 0 -47 43z" />
<glyph unicode="&#x39e;" horiz-adv-x="1185" d="M80 41v186q0 45 45 45h307v295h-217q-45 0 -45 43v187q0 43 45 43h217v247h-287q-45 0 -45 43v187q0 45 45 45h893q45 0 45 -45v-187q0 -43 -45 -43h-286v-247h217q45 0 45 -43v-187q0 -43 -45 -43h-217v-295h307q45 0 45 -45v-186q0 -41 -47 -41h-932q-45 0 -45 41z" />
<glyph unicode="&#x39f;" horiz-adv-x="1411" d="M117 698q0 86 10 165t46 177.5t95.5 169t171 119.5t260.5 49q182 0 306 -58t183.5 -163.5t81 -212t21.5 -246.5q0 -109 -10 -195.5t-46 -189t-97.5 -171t-174 -114.5t-266 -46t-264 47t-171 114.5t-94.5 171t-43 188t-9 195.5zM461 676q0 -215 53 -314.5t188 -99.5 q141 0 198.5 99.5t57.5 314.5q0 225 -56 323.5t-200 98.5q-133 0 -187 -100.5t-54 -321.5z" />
<glyph unicode="&#x3a0;" horiz-adv-x="1327" d="M139 45v1270q0 47 43 47h965q41 0 41 -47v-1270q0 -45 -41 -45h-238q-45 0 -45 45v1042h-401v-1042q0 -45 -43 -45h-238q-43 0 -43 45z" />
<glyph unicode="&#x3a1;" horiz-adv-x="1161" d="M137 45v1272q0 45 45 45h475q203 0 333 -109.5t130 -314.5q0 -78 -20.5 -148.5t-68.5 -139t-144 -109.5t-230 -41h-194v-455q0 -45 -43 -45h-238q-45 0 -45 45zM463 764h151q82 0 127 42t45 124q0 80 -47 120t-129 40h-147v-326z" />
<glyph unicode="&#x3a3;" horiz-adv-x="1083" d="M76 1178v129q0 20 12 35.5t35 15.5h831q45 0 45 -45v-187q0 -43 -45 -43h-514l224 -309q41 -51 41 -80q0 -16 -21 -51l-238 -373h541q45 0 45 -41v-186q0 -43 -45 -43h-858q-43 0 -43 43v137q0 49 45 125l238 393l-258 371q-35 48 -35 109z" />
<glyph unicode="&#x3a4;" horiz-adv-x="1067" d="M25 1130v187q0 45 45 45h927q45 0 45 -45v-187q0 -43 -45 -43h-303v-1042q0 -45 -43 -45h-235q-45 0 -45 45v1042h-301q-45 0 -45 43z" />
<glyph unicode="&#x3a5;" horiz-adv-x="1288" d="M22.5 1346.5q6.5 15.5 28.5 15.5h244q35 0 49 -9.5t31 -39.5l135 -269l121 -245h12l127 248l131 251q12 25 19.5 36.5t22.5 19.5t38 8h246q23 0 30 -14.5t-4 -30.5l-462 -817v-455q0 -45 -41 -45h-238q-45 0 -45 45v455l-440 811q-11 20 -4.5 35.5z" />
<glyph unicode="&#x3a6;" horiz-adv-x="1699" d="M115 711q0 61 13 125.5t53 142.5t101.5 139.5t169 107.5t244.5 56v33q0 47 45 47h236q45 0 45 -47v-33q164 -12 279.5 -69.5t174 -144.5t83 -173t24.5 -184q0 -100 -24.5 -191.5t-83 -180.5t-175 -150.5t-278.5 -75.5v-68q0 -45 -45 -45h-236q-45 0 -45 45v66 q-174 10 -295.5 71.5t-180 154.5t-82 183.5t-23.5 190.5zM453 696q0 -281 243 -315v635q-243 -33 -243 -320zM1022 385q233 31 233 309q0 287 -233 318v-627z" />
<glyph unicode="&#x3a7;" horiz-adv-x="1206" d="M32 17.5q-5 17.5 9 39.5l377 637l-355 609q-12 23 -4.5 41t33.5 18h254q29 0 41 -8t27 -37l94 -182l90 -181l92 191l88 170q23 45 66 45h260q37 2 43 -16.5t-8 -34.5l-365 -615l379 -641q12 -16 7 -34.5t-34 -18.5h-256q-47 0 -71 43l-101 193l-102 202l-100 -202 l-99 -187q-25 -49 -78 -49h-256q-26 0 -31 17.5z" />
<glyph unicode="&#x3a8;" horiz-adv-x="1636" d="M119 846v469q0 47 43 47h231q43 0 43 -47v-467q0 -117 60.5 -187.5t156.5 -78.5v733q0 47 47 47h238q41 0 41 -47v-733q96 10 157.5 80.5t61.5 185.5v467q0 47 45 47h227q41 0 41 -47q0 -27 1 -128.5t1 -340.5q0 -231 -140 -377.5t-394 -159.5v-264q0 -45 -43 -45h-236 q-47 0 -47 45v264q-279 12 -406.5 156.5t-127.5 380.5z" />
<glyph unicode="&#x3a9;" horiz-adv-x="1421" d="M86 43v180q0 41 45 41h117l4 4q-72 55 -102.5 181t-30.5 249q0 88 12 171t52 178.5t101.5 165t171 116.5t253.5 47q598 0 598 -678q0 -106 -34 -231t-104 -197l2 -2v-4h111q45 0 45 -41v-180q0 -43 -45 -43h-453q-45 0 -45 43v217q0 29 39 57q150 84 150 359 q0 207 -58.5 313.5t-201.5 106.5q-252 0 -252 -420q0 -281 123 -354q39 -29 39 -62v-217q0 -43 -43 -43h-451q-43 0 -43 43z" />
<glyph unicode="&#x3aa;" horiz-adv-x="622" d="M-45 1567q0 68 31.5 103.5t117.5 35.5q88 0 120 -35t32 -104q0 -68 -31.5 -107t-120.5 -39q-92 0 -120.5 38t-28.5 108zM147 45v1270q0 47 43 47h240q43 0 43 -47v-1270q0 -45 -43 -45h-240q-43 0 -43 45zM375 1567q0 68 32.5 103.5t118.5 35.5q88 0 119 -35t31 -104.5 t-31 -107.5t-119 -38q-92 0 -121.5 38t-29.5 108z" />
<glyph unicode="&#x3ab;" horiz-adv-x="1288" d="M22.5 1346.5q6.5 15.5 28.5 15.5h244q35 0 49 -9.5t31 -39.5l135 -269l121 -245h12l127 248l131 251q12 25 19.5 36.5t22.5 19.5t38 8h246q23 0 30 -14.5t-4 -30.5l-462 -817v-455q0 -45 -41 -45h-238q-45 0 -45 45v455l-440 811q-11 20 -4.5 35.5zM274 1567 q0 68 32 103.5t118 35.5q88 0 119.5 -35t31.5 -104q0 -68 -31.5 -107t-119.5 -39q-92 0 -121 38t-29 108zM694 1567q0 68 33 103.5t119 35.5q88 0 118.5 -35t30.5 -104.5t-30.5 -107.5t-118.5 -38q-92 0 -122 38t-30 108z" />
<glyph unicode="&#x3ac;" horiz-adv-x="1185" d="M82 496q0 236 97 384t300 148q137 0 248 -80l4 2v23q0 20 8.5 29.5t34.5 9.5h215q43 0 43 -45v-660q0 -57 8.5 -69.5t46.5 -16.5q25 -2 33 -9t8 -26v-131q0 -41 -57 -53q-57 -14 -127 -14q-84 0 -133 28.5t-68 104.5l-4 2q-154 -139 -325 -139q-98 0 -166 37.5 t-102.5 110.5t-49 160t-14.5 204zM399 492q0 -139 29 -188.5t96 -49.5q78 0 197 61v394q-86 37 -154 36q-86 0 -127 -61t-41 -192zM442 1210l189 353q23 39 57 18l156 -88q43 -23 10 -61l-240 -310q-25 -33 -53 -18l-106 57q-29 18 -13 49z" />
<glyph unicode="&#x3ad;" horiz-adv-x="985" d="M86 307q0 63 34 124t103 95v4q-121 59 -121 183q0 92 42 158.5t111 100.5t138.5 48t145.5 14q217 0 333 -53q55 -27 43 -76l-20 -106q-6 -31 -17.5 -37t-58.5 -2q-147 18 -264 18q-125 0 -125 -78q0 -74 143 -73h103q27 0 36 -7.5t9 -29.5v-135q0 -23 -9.5 -31t-35.5 -8 h-121q-141 0 -141 -82q0 -51 32.5 -73.5t108.5 -22.5q152 0 295 20q33 4 44 -3t17 -34l21 -98q10 -37 0 -55.5t-53 -36.5q-125 -49 -324 -49q-469 -1 -469 325zM383 1210l188 353q23 39 58 18l155 -88q43 -23 11 -61l-240 -310q-25 -33 -53 -18l-107 57q-28 18 -12 49z" />
<glyph unicode="&#x3ae;" d="M96 43v922q0 45 45 45h224q43 0 43 -45v-50q2 0 6 -2q68 51 158 83t163 32q84 0 143.5 -24.5t91 -60.5t49 -95.5t21.5 -106.5t4 -116v-582q0 -43 -43 -43h-225q-45 0 -45 43q0 90 1 269.5t1 267.5q0 84 -29.5 120.5t-95.5 36.5q-29 0 -65.5 -10t-80.5 -27.5t-54 -21.5 v-635q0 -43 -43 -43h-224q-45 0 -45 43zM391 1210l189 353q23 39 57 18l156 -88q43 -23 10 -61l-240 -310q-25 -33 -53 -18l-107 57q-28 18 -12 49z" />
<glyph unicode="&#x3af;" horiz-adv-x="567" d="M125 45v922q0 45 45 45h225q41 0 41 -45v-922q0 -45 -41 -45h-225q-45 0 -45 45zM154 1210l188 353q23 39 57 18l156 -88q43 -23 10 -61l-239 -310q-25 -33 -54 -18l-106 57q-28 18 -12 49z" />
<glyph unicode="&#x3b0;" horiz-adv-x="1136" d="M96 1264q0 68 32 103.5t118 35.5q88 0 119.5 -35t31.5 -104q0 -68 -31.5 -107t-119.5 -39q-92 0 -121 38t-29 108zM100 393v574q0 45 43 45h224q45 0 45 -45v-555q0 -76 31.5 -120t117.5 -44q84 0 123 46t39 118v555q0 45 45 45h225q43 0 43 -45v-574 q0 -178 -122.5 -292.5t-352.5 -114.5q-233 0 -347 108.5t-114 298.5zM414 1188l147 371q16 41 53 24l166 -70q47 -16 17 -59l-203 -334q-23 -37 -49 -24l-113 45q-30 14 -18 47zM748 1263.5q0 67.5 32.5 103.5t116.5 36q90 0 121 -35t31 -104.5t-31 -107.5t-121 -38 t-119.5 39t-29.5 106.5z" />
<glyph unicode="&#x3b1;" horiz-adv-x="1185" d="M82 496q0 236 97 384t300 148q137 0 248 -80l4 2v23q0 20 8.5 29.5t34.5 9.5h215q43 0 43 -45v-660q0 -57 8.5 -69.5t46.5 -16.5q25 -2 33 -9t8 -26v-131q0 -41 -57 -53q-57 -14 -127 -14q-84 0 -133 28.5t-68 104.5l-4 2q-154 -139 -325 -139q-98 0 -166 37.5 t-102.5 110.5t-49 160t-14.5 204zM399 492q0 -139 29 -188.5t96 -49.5q78 0 197 61v394q-86 37 -154 36q-86 0 -127 -61t-41 -192z" />
<glyph unicode="&#x3b2;" horiz-adv-x="1128" d="M92 -274v1263q0 221 124 345t319 124q199 0 316.5 -99t117.5 -274q0 -61 -31 -130.5t-94 -110.5q66 -25 107.5 -66t61 -92t25.5 -94t6 -98q0 -260 -91 -386t-312 -128q-100 0 -235 28v-282q0 -45 -44 -45h-225q-45 0 -45 45zM406 268q74 -23 159.5 -22.5t121.5 52.5 t36 194q0 111 -33 155.5t-108 48.5q-33 0 -68 -2q-33 0 -33 27v137q0 35 27 43q74 23 114 59.5t40 114.5q0 53 -33 90t-92 37q-131 0 -131 -221v-713z" />
<glyph unicode="&#x3b3;" horiz-adv-x="1103" d="M6 958q-6 31 23 43q82 33 159 33q96 0 136.5 -43t72.5 -143l160 -500h10l101 322l100 299q6 23 20.5 32t49.5 9h209q31 0 38 -9.5t0 -31.5l-370 -963v-360q0 -45 -43 -45h-226q-45 0 -45 45v348l-264 729q-6 18 -11 27.5t-15.5 17.5t-28.5 8h-14q-29 0 -33 21z" />
<glyph unicode="&#x3b4;" horiz-adv-x="1130" d="M86 506q0 113 51 229.5t162 173.5q-137 82 -137 228q0 158 114.5 242.5t303.5 84.5q182 4 311 -45q47 -14 63.5 -30.5t8.5 -53.5l-21 -96q-8 -33 -24.5 -41t-61.5 0q-141 20 -264 21q-63 2 -90 -15.5t-27 -54.5q0 -35 44 -60.5t132 -60.5t142 -65q127 -76 188 -176.5 t61 -280.5q0 -522 -483 -522q-125 0 -216 34.5t-139 85t-76 126t-35 137t-7 139.5zM408 492q0 -133 30.5 -188.5t118.5 -55.5q96 0 132 61.5t36 182.5q4 231 -172 266q-145 -61 -145 -266z" />
<glyph unicode="&#x3b5;" horiz-adv-x="985" d="M86 307q0 63 34 124t103 95v4q-121 59 -121 183q0 92 42 158.5t111 100.5t138.5 48t145.5 14q217 0 333 -53q55 -27 43 -76l-20 -106q-6 -31 -17.5 -37t-58.5 -2q-147 18 -264 18q-125 0 -125 -78q0 -74 143 -73h103q27 0 36 -7.5t9 -29.5v-135q0 -23 -9.5 -31t-35.5 -8 h-121q-141 0 -141 -82q0 -51 32.5 -73.5t108.5 -22.5q152 0 295 20q33 4 44 -3t17 -34l21 -98q10 -37 0 -55.5t-53 -36.5q-125 -49 -324 -49q-469 -1 -469 325z" />
<glyph unicode="&#x3b6;" horiz-adv-x="1067" d="M84 326q0 125 110.5 241.5t266.5 192.5h-303q-45 0 -45 47v162q0 43 45 43h817q27 0 35 -9.5t8 -31.5v-127q0 -61 -35 -80q-319 -168 -426 -252q-125 -98 -125 -172q0 -113 332 -113q6 0 54 1t54 1q41 0 56.5 -8t29.5 -39l43 -94q23 -41 -10 -94q-86 -145 -139 -303 q-16 -45 -31.5 -56.5t-52.5 3.5l-147 53q-49 16 -33 78q27 90 90 202q-594 23 -594 355z" />
<glyph unicode="&#x3b7;" horiz-adv-x="1140" d="M96 43v922q0 45 45 45h224q43 0 43 -45v-50q2 0 6 -2q68 51 158 83t163 32q84 0 143.5 -24.5t91 -60.5t49 -95.5t21.5 -106.5t4 -116v-582q0 -43 -43 -43h-225q-45 0 -45 43v537q0 84 -28.5 120.5t-94.5 36.5q-27 0 -61.5 -10t-82.5 -28.5t-56 -20.5v-635q0 -43 -43 -43 h-224q-45 0 -45 43z" />
<glyph unicode="&#x3b8;" horiz-adv-x="1175" d="M84 737q0 100 8 183.5t38 187.5t81 175t146.5 120t224.5 49q131 0 225 -40t148.5 -102.5t86 -159.5t42 -191.5t10.5 -221.5q0 -84 -3.5 -147.5t-15.5 -146.5t-32.5 -143t-58.5 -122.5t-91 -102.5t-132 -65.5t-179 -25.5q-98 0 -175 23.5t-129.5 61t-89 99t-56 120 t-31 142.5t-14.5 149.5t-3 157.5zM406 641q0 -209 39.5 -303t138.5 -94q106 0 148 89t40 308h-366zM410 864h358q-6 178 -46 254t-138 76q-164 0 -174 -330z" />
<glyph unicode="&#x3b9;" horiz-adv-x="567" d="M125 45v922q0 45 45 45h225q41 0 41 -45v-922q0 -45 -41 -45h-225q-45 0 -45 45z" />
<glyph unicode="&#x3ba;" horiz-adv-x="1085" d="M100 45v918q0 47 45 47h224q43 0 43 -47v-281l6 -2l129 147l123 140q39 45 96 45h233q35 0 41.5 -16.5t-16.5 -39.5l-313 -338l358 -561q14 -25 5 -41t-38 -16h-225q-70 0 -98 49l-207 344l-94 -102v-246q0 -45 -43 -45h-224q-45 0 -45 45z" />
<glyph unicode="&#x3bb;" horiz-adv-x="1044" d="M10 23q0 6 4 18q66 170 190 481.5t175 440.5q-8 25 -22.5 74.5t-22.5 74.5q-18 57 -38 77.5t-67 20.5q-8 0 -22 -1t-23 -1q-25 0 -28 25l-25 139q-6 41 25 51q90 31 180 31q117 0 178 -42t96 -155l303 -974q8 -25 12.5 -34t16.5 -18.5t33 -9.5h20q25 0 27 -24l10 -138 q4 -35 -22 -47q-51 -20 -138 -20q-109 0 -166 52t-94 181l-100 346h-6l-199 -538q-10 -33 -39 -33h-231q-27 0 -27 23z" />
<glyph unicode="&#x3bd;" horiz-adv-x="1116" d="M39 958q-20 53 33 54h223q23 0 33 -2t19 -12.5t15 -32.5l115 -357q76 -256 78 -262h10l80 270l121 353q6 25 19.5 34t48.5 9h210q33 0 39.5 -12.5t-4.5 -38.5l-336 -898q-14 -35 -33.5 -49t-56.5 -14h-188q-41 0 -59.5 14.5t-30.5 48.5z" />
<glyph unicode="&#x3be;" horiz-adv-x="966" d="M72 416q0 102 43 200.5t141 147.5l2 10q-86 35 -127 106.5t-41 151.5q0 203 130 311.5t343 108.5q223 0 342 -55q53 -20 43 -74l-22 -106q-4 -23 -10.5 -30t-21.5 -9t-44 2q-160 16 -272 16q-82 0 -123 -46t-39 -120q2 -70 58 -102.5t140 -32.5h185q27 0 37 -9t10 -34 v-143q0 -45 -47 -45h-164q-240 0 -240 -248q0 -66 28 -107t83 -57t102 -21.5t125 -5.5h92q41 0 55.5 -8t28.5 -37l43 -94q20 -41 -10 -94q-84 -150 -141 -316q-16 -47 -30.5 -57t-51.5 4l-133 47q-20 8 -26.5 13.5t-12.5 19.5t4 35q45 150 90 231q-127 4 -223 26.5t-178 71 t-125 136.5t-43 213z" />
<glyph unicode="&#x3bf;" horiz-adv-x="1124" d="M86 520q0 68 8 126.5t37 133t77 126.5t137 88t210 36t212 -30.5t142.5 -79t82 -119t39.5 -136t9 -145.5q0 -82 -7 -143.5t-34.5 -140t-77 -130t-143.5 -87t-223 -35.5q-127 0 -218 35.5t-138 87t-74 130t-33 140t-6 143.5zM401 508q0 -139 33 -198.5t121 -59.5 q98 0 132 59.5t34 198.5t-32 197.5t-130 58.5q-90 0 -124 -62.5t-34 -193.5z" />
<glyph unicode="&#x3c0;" horiz-adv-x="1146" d="M98 45v922q0 45 45 45h863q43 0 43 -43v-924q0 -45 -45 -45h-224q-45 0 -45 45l2 715h-325v-715q0 -45 -45 -45h-224q-45 0 -45 45z" />
<glyph unicode="&#x3c1;" horiz-adv-x="1132" d="M94 -354v856q0 258 121 394t354 136q264 0 371 -139t107 -385q0 -266 -90.5 -398.5t-329.5 -132.5q-104 0 -221 35v-366q0 -47 -44 -47h-223q-45 0 -45 47zM406 268q80 -23 159 -22q88 0 124 55t36 211q0 246 -156 246q-164 0 -163 -217v-273z" />
<glyph unicode="&#x3c2;" horiz-adv-x="999" d="M80 125l14 90q6 33 21.5 40t50.5 1q162 -25 295 -25q78 0 110.5 17.5t32.5 58.5q0 43 -23.5 59.5t-91.5 24.5q-98 14 -158.5 28.5t-123 47.5t-92 91t-29.5 144q0 158 114.5 243t303.5 85q190 0 317 -45q47 -16 62.5 -32.5t7.5 -51.5l-21 -98q-8 -33 -27.5 -40t-72.5 1 q-160 20 -254 20q-72 2 -94.5 -15t-22.5 -54q0 -25 19.5 -39t40 -19.5t67.5 -13.5q94 -12 153.5 -26.5t122 -48t92.5 -95t30 -154.5q0 -176 -128 -256.5t-325 -80.5q-201 0 -321 45q-47 16 -61.5 36.5t-8.5 61.5z" />
<glyph unicode="&#x3c3;" horiz-adv-x="1163" d="M84 514q0 66 9 125t39 131t80 122t142 85t213 35h516q27 0 35 -10.5t8 -32.5v-160q0 -25 -8 -35t-35 -10h-129l-4 -8q78 -86 78 -264q0 -70 -7 -127.5t-35 -132t-77 -126t-142 -87t-220 -35.5t-217 35.5t-137.5 85t-73 129t-30.5 138t-5 142.5zM395 502q0 -141 35 -198.5 t119 -57.5q92 0 129 56t37 200q0 139 -34 196.5t-130 57.5q-86 0 -121 -58.5t-35 -195.5z" />
<glyph unicode="&#x3c4;" horiz-adv-x="888" d="M29 809v158q0 45 45 45h671q43 0 43 -43v-160q0 -25 -8 -35t-35 -10h-215v-356q0 -117 38 -134.5t218 -5.5q31 2 41.5 -3t12.5 -29l22 -138q6 -49 -39 -63q-117 -51 -301 -51q-158 0 -227.5 74.5t-69.5 217.5v488h-151q-45 0 -45 45z" />
<glyph unicode="&#x3c5;" horiz-adv-x="1136" d="M100 393v574q0 45 43 45h224q45 0 45 -45v-555q0 -76 31.5 -120t117.5 -44q84 0 123 46t39 118v555q0 45 45 45h225q43 0 43 -45v-574q0 -178 -122.5 -292.5t-352.5 -114.5q-233 0 -347 108.5t-114 298.5z" />
<glyph unicode="&#x3c6;" horiz-adv-x="1523" d="M86 514q0 354 295 471q47 20 70 -18l86 -154q14 -25 -17 -45q-123 -86 -123 -270q0 -106 48.5 -180t158.5 -76v673q0 119 133 119h162q154 0 263.5 -45t166.5 -123t83 -166t26 -190q0 -229 -128 -372.5t-395 -157.5v-295q0 -45 -43 -45h-223q-45 0 -45 45v292 q-133 4 -231.5 39t-152.5 84.5t-85 124t-40 140t-9 149.5zM918 246q104 0 155 69.5t51 180.5q0 264 -206 264v-514z" />
<glyph unicode="&#x3c7;" horiz-adv-x="1060" d="M18.5 17.5q-6.5 17.5 8.5 37.5l323 461l-303 442q-12 18 -6 36t31 18h239q27 0 38 -6.5t26 -28.5l153 -248l154 246q20 37 55 37h254q59 0 31 -54l-315 -442l323 -461q12 -14 5 -34.5t-34 -20.5h-239q-45 0 -66 35l-168 268l-166 -266q-23 -37 -71 -37h-242 q-24 0 -30.5 17.5z" />
<glyph unicode="&#x3c8;" horiz-adv-x="1468" d="M94 406v559q0 45 43 45h225q43 0 44 -45v-553q0 -70 46 -120t121 -48v829q0 45 45 45h226q41 0 41 -45v-829q90 4 132 50t42 118v553q0 45 43 45h225q43 0 43 -45v-559q0 -178 -129 -296t-356 -126v-297q0 -45 -41 -45h-226q-45 0 -45 45v299q-219 -2 -349 115t-130 305z " />
<glyph unicode="&#x3c9;" horiz-adv-x="1609" d="M86 500q0 408 338 528q37 14 59.5 10t34.5 -32l64 -121q14 -23 9 -37t-38 -33q-92 -57 -122 -124.5t-30 -192.5q0 -254 134 -254q129 0 129 157v246q0 43 45 43h196q43 0 43 -43v-246q0 -68 31 -112.5t96.5 -44.5t99 57t33.5 197q0 127 -29.5 192.5t-121.5 124.5 q-33 18 -37 33.5t10 36.5l60 116q14 29 35.5 34t60.5 -7q340 -117 340 -528q0 -516 -426 -516q-92 0 -172 36.5t-119 102.5h-10q-39 -66 -118 -102.5t-171 -36.5q-424 0 -424 516z" />
<glyph unicode="&#x3ca;" horiz-adv-x="567" d="M-78 1264q0 68 32 103.5t118 35.5q88 0 119.5 -35t31.5 -104q0 -68 -31.5 -107t-119.5 -39q-92 0 -121 38t-29 108zM125 45v922q0 45 45 45h225q41 0 41 -45v-922q0 -45 -41 -45h-225q-45 0 -45 45zM350 1263.5q0 67.5 33 103.5t117 36q90 0 120.5 -35t30.5 -104.5 t-30.5 -107.5t-120.5 -38t-120 39t-30 106.5z" />
<glyph unicode="&#x3cb;" horiz-adv-x="1136" d="M100 393v574q0 45 43 45h224q45 0 45 -45v-555q0 -76 31.5 -120t117.5 -44q84 0 123 46t39 118v555q0 45 45 45h225q43 0 43 -45v-574q0 -178 -122.5 -292.5t-352.5 -114.5q-233 0 -347 108.5t-114 298.5zM205 1264q0 68 31.5 103.5t117.5 35.5q88 0 120 -35t32 -104 q0 -68 -32 -107t-120 -39q-92 0 -120.5 38t-28.5 108zM633 1263.5q0 67.5 32.5 103.5t116.5 36q90 0 121 -35t31 -104.5t-31 -107.5t-121 -38t-119.5 39t-29.5 106.5z" />
<glyph unicode="&#x3cc;" horiz-adv-x="1124" d="M86 520q0 68 8 126.5t37 133t77 126.5t137 88t210 36t212 -30.5t142.5 -79t82 -119t39.5 -136t9 -145.5q0 -82 -7 -143.5t-34.5 -140t-77 -130t-143.5 -87t-223 -35.5q-127 0 -218 35.5t-138 87t-74 130t-33 140t-6 143.5zM401 508q0 -139 33 -198.5t121 -59.5 q98 0 132 59.5t34 198.5t-32 197.5t-130 58.5q-90 0 -124 -62.5t-34 -193.5zM451 1210l188 353q23 39 57 18l156 -88q43 -23 10 -61l-239 -310q-25 -33 -54 -18l-106 57q-28 18 -12 49z" />
<glyph unicode="&#x3cd;" horiz-adv-x="1136" d="M100 393v574q0 45 43 45h224q45 0 45 -45v-555q0 -76 31.5 -120t117.5 -44q84 0 123 46t39 118v555q0 45 45 45h225q43 0 43 -45v-574q0 -178 -122.5 -292.5t-352.5 -114.5q-233 0 -347 108.5t-114 298.5zM438 1210l189 353q23 39 57 18l156 -88q43 -23 10 -61l-240 -310 q-25 -33 -53 -18l-106 57q-29 18 -13 49z" />
<glyph unicode="&#x3ce;" horiz-adv-x="1609" d="M86 500q0 408 338 528q37 14 59.5 10t34.5 -32l64 -121q14 -23 9 -37t-38 -33q-92 -57 -122 -124.5t-30 -192.5q0 -254 134 -254q129 0 129 157v246q0 43 45 43h196q43 0 43 -43v-246q0 -68 31 -112.5t96.5 -44.5t99 57t33.5 197q0 127 -29.5 192.5t-121.5 124.5 q-33 18 -37 33.5t10 36.5l60 116q14 29 35.5 34t60.5 -7q340 -117 340 -528q0 -516 -426 -516q-92 0 -172 36.5t-119 102.5h-10q-39 -66 -118 -102.5t-171 -36.5q-424 0 -424 516zM692 1210l189 353q23 39 57 18l156 -88q43 -23 10 -61l-240 -310q-25 -33 -53 -18l-106 57 q-29 18 -13 49z" />
<glyph unicode="&#x400;" d="M139 43v1272q0 47 45 47h813q43 0 43 -45v-187q0 -43 -45 -43h-530v-247h463q47 0 47 -43v-187q0 -43 -47 -43h-463v-295h541q45 0 45 -45v-186q0 -41 -45 -41h-822q-45 0 -45 43zM260 1673l113 142q27 31 59 4l309 -252q29 -20 7 -47l-76 -97q-20 -23 -56 -4l-342 195 q-45 24 -14 59z" />
<glyph unicode="&#x401;" d="M139 43v1272q0 47 45 47h813q43 0 43 -45v-187q0 -43 -45 -43h-530v-247h463q47 0 47 -43v-187q0 -43 -47 -43h-463v-295h541q45 0 45 -45v-186q0 -41 -45 -41h-822q-45 0 -45 43zM219 1567q0 68 32 103.5t118 35.5q88 0 119.5 -35t31.5 -104q0 -68 -31.5 -107 t-119.5 -39q-92 0 -121 38t-29 108zM639 1567q0 68 33 103.5t119 35.5q88 0 118.5 -35t30.5 -104.5t-30.5 -107.5t-118.5 -38q-92 0 -122 38t-30 108z" />
<glyph unicode="&#x402;" horiz-adv-x="1546" d="M25 1124v193q0 23 9 33t36 10h1071q45 0 45 -43v-193q0 -43 -45 -43h-441v-254q160 59 291 60q250 0 367 -137.5t117 -343.5q0 -250 -106.5 -423t-330.5 -300q-35 -18 -52 -12.5t-36 36.5l-76 111q-16 27 -15 40t28 33q145 106 203.5 229.5t58.5 282.5q0 219 -209 220 q-80 0 -240 -62v-516q0 -45 -43 -45h-243q-47 0 -47 45v1036h-297q-45 0 -45 43z" />
<glyph unicode="&#x403;" horiz-adv-x="1058" d="M137 1317q0 45 45 45h799q45 0 45 -45v-187q0 -43 -47 -43h-514v-1042q0 -45 -43 -45h-238q-45 0 -45 45zM354 1544q-18 31 13 49l333 219q39 25 60 -12l94 -151q27 -39 -18 -60l-361 -157q-35 -14 -53 10z" />
<glyph unicode="&#x404;" horiz-adv-x="1208" d="M117 684q0 692 594 692q236 0 385 -65q35 -16 48 -35t5 -55l-25 -115q-8 -53 -69 -43q-154 23 -316 22q-225 0 -264 -264h445q45 0 45 -43v-174q0 -41 -45 -41h-449q14 -147 72.5 -221t195.5 -74q121 0 320 23q57 6 71 -41l25 -109q16 -59 -51 -94q-160 -68 -391 -67 q-596 -1 -596 704z" />
<glyph unicode="&#x405;" horiz-adv-x="1189" d="M94 958q0 199 133 307.5t363 108.5q248 0 391 -59q47 -16 56.5 -33.5t2.5 -52.5l-28 -121q-8 -37 -26.5 -42t-61.5 1q-170 23 -310 23q-178 0 -178 -123q0 -61 36 -85t146 -46q92 -20 142.5 -34t125.5 -46.5t113.5 -73.5t68.5 -111.5t30 -162.5q0 -94 -30 -168t-80 -122 t-119.5 -79t-145.5 -44t-162 -13q-244 0 -403 63q-47 18 -55.5 35.5t-2.5 50.5l25 119q8 37 24.5 44t55.5 -1q229 -29 358 -29q201 0 201 131q0 70 -40 98.5t-151 51.5q-88 18 -142 33.5t-126 48t-111.5 72.5t-69.5 106.5t-30 152.5z" />
<glyph unicode="&#x406;" horiz-adv-x="622" d="M147 45v1270q0 47 43 47h240q43 0 43 -47v-1270q0 -45 -43 -45h-240q-43 0 -43 45z" />
<glyph unicode="&#x407;" horiz-adv-x="622" d="M-47 1567q0 68 31.5 103.5t117.5 35.5q88 0 120 -35t32 -104q0 -68 -32 -107t-120 -39q-92 0 -120.5 38t-28.5 108zM147 45v1270q0 47 43 47h240q43 0 43 -47v-1270q0 -45 -43 -45h-240q-43 0 -43 45zM373 1567q0 68 32.5 103.5t118.5 35.5q88 0 119 -35t31 -104.5 t-31 -107.5t-119 -38q-92 0 -121.5 38t-29.5 108z" />
<glyph unicode="&#x408;" horiz-adv-x="968" d="M16 113l31 133q8 31 17.5 36t37.5 1q123 -14 203 -15q104 0 141 39t37 119v889q0 47 45 47h236q45 0 45 -47q0 -711 -2 -953q0 -381 -447 -380q-158 0 -274 41q-53 18 -65.5 34.5t-4.5 55.5z" />
<glyph unicode="&#x409;" horiz-adv-x="1898" d="M27 168q-2 27 6 36t37 15q78 18 114.5 51t56 113t29.5 246l41 686q0 47 47 47l748 -2h2q45 0 45 -45v-465h213q137 0 235.5 -39t148.5 -104.5t72.5 -135t22.5 -147.5q0 -205 -138 -314.5t-345 -109.5h-498q-47 0 -47 45v1038h-213l-22 -393q-12 -178 -20.5 -258 t-36 -188.5t-75 -152.5t-130 -79t-207.5 -37q-49 0 -63.5 12.5t-16.5 45.5zM1151 272h186q74 0 122 42t48 110q0 160 -164 160h-192v-312z" />
<glyph unicode="&#x40a;" horiz-adv-x="1863" d="M137 45v1270q0 47 45 47h238q43 0 43 -47v-471h321v471q0 45 45 45h238q43 0 43 -45v-469h217q137 0 235.5 -39t148.5 -104.5t71.5 -136t21.5 -148.5q0 -203 -137 -310.5t-342 -107.5h-496q-45 0 -45 43v526h-321v-524q0 -45 -43 -45h-238q-45 0 -45 45zM1110 266h190 q80 0 128.5 41t48.5 113q0 164 -170 164h-197v-318z" />
<glyph unicode="&#x40b;" horiz-adv-x="1544" d="M25 1130v187q0 45 45 45h1067q45 0 45 -45v-187q0 -43 -47 -43h-441v-227q186 76 328 76q125 0 209 -32t127 -92t60.5 -127t17.5 -157v-483q0 -45 -43 -45h-236q-45 0 -45 45v475q0 78 -36 112t-113 34q-80 0 -269 -70v-551q0 -45 -43 -45h-235q-45 0 -45 45v1042h-301 q-45 0 -45 43z" />
<glyph unicode="&#x40c;" horiz-adv-x="1292" d="M135 45v1270q0 47 47 47h244q43 0 43 -47v-473h113q133 0 176 139l100 313q12 37 28.5 49.5t61.5 12.5h217q53 0 37 -51l-108 -347q-70 -213 -174 -256q66 -25 100.5 -83t73.5 -170l125 -398q16 -51 -37 -51h-234q-45 0 -61.5 12.5t-28.5 48.5l-104 363q-27 84 -71 112.5 t-108 28.5h-106v-520q0 -45 -43 -45h-244q-47 0 -47 45zM469 1544q-18 31 12 49l334 219q39 25 59 -12l95 -151q27 -39 -19 -60l-360 -157q-35 -14 -53 10z" />
<glyph unicode="&#x40d;" horiz-adv-x="1396" d="M135 43v1270q0 47 45 47h236q45 0 45 -47v-717l8 -4q8 12 29.5 46t33.5 52l390 615q16 23 21 28.5t24.5 16t46.5 10.5h200q43 0 43 -45v-1272q0 -43 -45 -43h-235q-45 0 -45 43v756h-2l-473 -744q-37 -55 -101 -55h-176q-45 0 -45 43zM406 1673l112 142q27 31 60 4 l309 -252q29 -20 6 -47l-76 -97q-20 -23 -55 -4l-342 195q-45 24 -14 59z" />
<glyph unicode="&#x40e;" horiz-adv-x="1275" d="M47 1346.5q6 15.5 29 15.5h243q35 0 49.5 -9.5t30.5 -39.5l123 -320l127 -342h8l131 353l111 296q14 25 21.5 35.5t21.5 18.5t37 8h229q23 0 30 -14.5t-3 -30.5l-395 -977q-31 -68 -50.5 -109t-48 -90t-57.5 -77.5t-66.5 -55t-84 -38t-103.5 -11.5q-113 0 -178 16 q-39 8 -49 24.5t-6 55.5l14 117q2 29 15.5 35t56.5 4q102 -8 139 5t57 56l21 43l-449 996q-10 20 -4 35.5zM243 1677q-1 6 0 9.5t3 8.5t6 9l8 8l74 60q31 14 40 10t34 -29q68 -82 121 -114.5t126 -32.5q68 0 122 32.5t120 114.5q18 25 32.5 28t39.5 -12l73 -45 q16 -10 19.5 -26.5t-0.5 -28.5t-19 -39q-63 -121 -163.5 -185.5t-223.5 -64.5t-233.5 63.5t-161.5 180.5q-2 2 -5 11.5t-4 11.5t-4 9t-3 11t-1 10z" />
<glyph unicode="&#x40f;" horiz-adv-x="1331" d="M137 45v1270q0 47 45 47h244q45 0 45 -47v-1034h389v1034q0 47 45 47h244q45 0 45 -47v-1270q0 -45 -45 -45h-324l-14 -266q-2 -47 -12.5 -59.5t-40.5 -12.5h-180q-31 0 -41.5 9.5t-12.5 47.5l-12 281h-330q-45 0 -45 45z" />
<glyph unicode="&#x410;" horiz-adv-x="1265" d="M18.5 10q-6.5 10 1.5 43l396 1250q10 33 25.5 46t54.5 13h258q39 0 53 -13.5t27 -48.5l411 -1251q12 -49 -24 -49h-254q-33 0 -46.5 14.5t-23.5 48.5l-68 244h-407l-74 -250q-16 -57 -72 -57h-227q-24 0 -30.5 10zM492 557h266l-62 225l-65 250h-10l-68 -248z" />
<glyph unicode="&#x411;" horiz-adv-x="1216" d="M137 43v1272q0 45 43 45h801q45 0 45 -45v-185q0 -43 -45 -43h-516v-239h217q111 0 197 -26.5t137 -69.5t85 -101.5t46 -115t12 -117.5q0 -203 -137 -310.5t-342 -107.5h-498q-45 0 -45 43zM463 266h190q80 0 128 41t48 113q0 166 -172 166h-194v-320z" />
<glyph unicode="&#x412;" horiz-adv-x="1269" d="M137 45v1270q0 45 45 45l520 2q207 0 316.5 -100.5t109.5 -278.5q0 -68 -32.5 -143.5t-114.5 -116.5l2 -8q182 -70 182 -312q0 -184 -125 -293.5t-301 -109.5h-555q-47 0 -47 45zM463 272h211q158 0 157 148q0 68 -39.5 110.5t-117.5 42.5h-211v-301zM463 836h196 q61 0 98.5 34.5t37.5 90.5q0 129 -146 129h-186v-254z" />
<glyph unicode="&#x413;" horiz-adv-x="1058" d="M137 1317q0 45 45 45h799q45 0 45 -45v-187q0 -43 -47 -43h-514v-1042q0 -45 -43 -45h-238q-45 0 -45 45z" />
<glyph unicode="&#x414;" horiz-adv-x="1449" d="M23 207q0 49 49 59l69 13q72 66 105 167t51 283l45 557q6 74 78 74h811q45 0 45 -47v-1041l84 -8q45 -6 45 -59l-23 -459q-2 -47 -11 -59.5t-40 -12.5h-178q-33 0 -43 11.5t-12 50.5l-13 264h-735l-18 -264q-2 -39 -13.5 -50.5t-44.5 -11.5h-182q-31 0 -41 12.5t-12 57.5 zM512 279h430v808h-299l-37 -436q-20 -255 -94 -372z" />
<glyph unicode="&#x415;" d="M139 43v1272q0 47 45 47h813q43 0 43 -45v-187q0 -43 -45 -43h-530v-247h463q47 0 47 -43v-187q0 -43 -47 -43h-463v-295h541q45 0 45 -45v-186q0 -41 -45 -41h-822q-45 0 -45 43z" />
<glyph unicode="&#x416;" horiz-adv-x="1921" d="M74 51l125 398q35 109 71.5 169t102.5 84q-104 41 -174 256l-109 347q-16 51 37 51h217q45 0 61.5 -12.5t28.5 -49.5l98 -313q47 -139 179 -139h86v473q0 47 45 47h239q43 0 43 -47v-473h86q133 0 179 139l98 313q14 39 29.5 50.5t60.5 11.5h217q53 0 37 -51l-107 -347 q-74 -213 -176 -256q66 -25 103 -85t71 -168l125 -398q16 -51 -37 -51h-233q-45 0 -60.5 11.5t-29.5 49.5l-105 363q-27 84 -70.5 112.5t-107.5 28.5h-80v-520q0 -45 -43 -45h-239q-45 0 -45 45v520h-80q-63 0 -107.5 -28.5t-70.5 -112.5l-105 -363q-12 -37 -28.5 -49 t-61.5 -12h-233q-53 0 -37 51z" />
<glyph unicode="&#x417;" horiz-adv-x="1163" d="M33 109q0 14 2 22l22 113q4 27 14.5 37t32.5 10q14 0 23 -2q199 -31 350 -31q252 0 252 174q0 160 -182 160h-152q-37 0 -48 11t-11 46v133q0 35 12 49.5t45 14.5h150q70 0 121 33.5t51 91.5q0 141 -213 141q-133 0 -305 -31q-25 -4 -33 -4q-31 0 -41 39q-14 76 -27 127 q-2 8 -2 23q0 35 64 61q160 61 391 62q250 0 371.5 -100.5t121.5 -282.5q0 -86 -47 -163t-123 -116q88 -35 138.5 -112.5t50.5 -188.5q0 -219 -149.5 -331.5t-409.5 -112.5q-78 0 -202 15t-200 42q-67 27 -67 70z" />
<glyph unicode="&#x418;" horiz-adv-x="1396" d="M135 43v1270q0 47 45 47h236q45 0 45 -47v-717l8 -4q8 12 29.5 46t33.5 52l390 615q16 23 21 28.5t24.5 16t46.5 10.5h200q43 0 43 -45v-1272q0 -43 -45 -43h-235q-45 0 -45 43v756h-2l-473 -744q-37 -55 -101 -55h-176q-45 0 -45 43z" />
<glyph unicode="&#x419;" horiz-adv-x="1396" d="M135 43v1270q0 47 45 47h236q45 0 45 -47v-733q14 20 37.5 58t33.5 52l390 615q16 23 21 28.5t24.5 16t46.5 10.5h200q43 0 43 -45v-1272q0 -43 -45 -43h-235q-45 0 -45 43v756h-2l-473 -744q-37 -55 -101 -55h-176q-45 0 -45 43zM294 1689.5q-1 6.5 0 9.5t3 8t6 9l8 8 l74 60q31 14 40 10t34 -29q68 -82 121 -114.5t127 -32.5q68 0 122 32.5t119 114.5q18 25 32.5 28t39.5 -11l74 -45q16 -10 19 -26.5t-1 -29t-18 -39.5q-63 -121 -164 -185t-223.5 -64t-233.5 63.5t-162 179.5q-2 2 -5 11.5t-4 11.5t-4 9t-3 11t-1 10.5z" />
<glyph unicode="&#x41a;" horiz-adv-x="1292" d="M135 45v1270q0 47 47 47h244q43 0 43 -47v-473h113q133 0 176 139l100 313q12 37 28.5 49.5t61.5 12.5h217q53 0 37 -51l-108 -347q-70 -213 -174 -256q66 -25 100.5 -83t73.5 -170l125 -398q16 -51 -37 -51h-234q-45 0 -61.5 12.5t-28.5 48.5l-104 363q-27 84 -71 112.5 t-108 28.5h-106v-520q0 -45 -43 -45h-244q-47 0 -47 45z" />
<glyph unicode="&#x41b;" horiz-adv-x="1298" d="M25 166q0 27 8 35t37 16q106 25 145 87.5t49 240.5q35 547 47 768q0 47 45 47h762q43 0 43 -47v-1268q0 -45 -43 -45h-244q-47 0 -47 45v1038h-223q-6 -100 -14 -278t-13.5 -259t-22.5 -199t-46 -167t-81 -105.5t-129 -75.5t-187 -22q-49 0 -64.5 11.5t-15.5 42.5 q0 23 -3 67.5t-3 67.5z" />
<glyph unicode="&#x41c;" horiz-adv-x="1597" d="M139 45v1272q0 45 43 45h176q39 0 57.5 -10.5t33.5 -38.5l198 -404l152 -317h8l156 321l198 398q16 29 32.5 40t55.5 11h168q41 0 41 -45v-1272q0 -45 -41 -45h-229q-45 0 -45 45v627l-6 2l-72 -160l-129 -264q-31 -53 -86 -53h-100q-57 0 -86 49l-134 274l-71 156l-4 -2 v-629q0 -45 -43 -45h-230q-43 0 -43 45z" />
<glyph unicode="&#x41d;" horiz-adv-x="1325" d="M137 45v1270q0 47 45 47h238q43 0 43 -47v-471h399v471q0 47 45 47h238q43 0 43 -47v-1270q0 -45 -43 -45h-238q-45 0 -45 45v524h-399v-524q0 -45 -43 -45h-238q-45 0 -45 45z" />
<glyph unicode="&#x41e;" horiz-adv-x="1411" d="M117 698q0 86 10 165t46 177.5t95.5 169t171 119.5t260.5 49q182 0 306 -58t183.5 -163.5t81 -212t21.5 -246.5q0 -109 -10 -195.5t-46 -189t-97.5 -171t-174 -114.5t-266 -46t-264 47t-171 114.5t-94.5 171t-43 188t-9 195.5zM461 676q0 -215 53 -314.5t188 -99.5 q141 0 198.5 99.5t57.5 314.5q0 225 -56 323.5t-200 98.5q-133 0 -187 -100.5t-54 -321.5z" />
<glyph unicode="&#x41f;" horiz-adv-x="1327" d="M139 45v1270q0 47 43 47h965q41 0 41 -47v-1270q0 -45 -41 -45h-238q-45 0 -45 45v1042h-401v-1042q0 -45 -43 -45h-238q-43 0 -43 45z" />
<glyph unicode="&#x420;" horiz-adv-x="1161" d="M137 45v1272q0 45 45 45h475q203 0 333 -109.5t130 -314.5q0 -78 -20.5 -148.5t-68.5 -139t-144 -109.5t-230 -41h-194v-455q0 -45 -43 -45h-238q-45 0 -45 45zM463 764h151q82 0 127 42t45 124q0 80 -47 120t-129 40h-147v-326z" />
<glyph unicode="&#x421;" horiz-adv-x="1214" d="M119 674q0 702 594 702q233 0 385 -65q35 -16 48 -35t7 -53l-27 -119q-6 -29 -19 -37t-50 -4q-211 23 -314 22q-160 0 -219 -106.5t-59 -298.5q0 -209 58.5 -310.5t217.5 -101.5q115 0 318 23q39 4 51 -3t20 -38l27 -109q16 -61 -51 -92q-162 -70 -391 -69 q-596 0 -596 694z" />
<glyph unicode="&#x422;" horiz-adv-x="1067" d="M25 1130v187q0 45 45 45h927q45 0 45 -45v-187q0 -43 -45 -43h-303v-1042q0 -45 -43 -45h-235q-45 0 -45 45v1042h-301q-45 0 -45 43z" />
<glyph unicode="&#x423;" horiz-adv-x="1275" d="M47 1346.5q6 15.5 29 15.5h243q35 0 49.5 -9.5t30.5 -39.5l123 -320l127 -342h8l131 353l111 296q14 25 21.5 35.5t21.5 18.5t37 8h229q23 0 30 -14.5t-3 -30.5l-395 -977q-31 -68 -50.5 -109t-48 -90t-57.5 -77.5t-66.5 -55t-84 -38t-103.5 -11.5q-113 0 -178 16 q-39 8 -49 24.5t-6 55.5l14 117q2 29 15.5 35t56.5 4q102 -8 139 5t57 56l21 43l-449 996q-10 20 -4 35.5z" />
<glyph unicode="&#x424;" horiz-adv-x="1699" d="M115 711q0 61 13 125.5t53 142.5t101.5 139.5t169 107.5t244.5 56v33q0 47 45 47h236q45 0 45 -47v-33q164 -12 279.5 -69.5t174 -144.5t83 -173t24.5 -184q0 -100 -24.5 -191.5t-83 -180.5t-175 -150.5t-278.5 -75.5v-68q0 -45 -45 -45h-236q-45 0 -45 45v66 q-174 10 -295.5 71.5t-180 154.5t-82 183.5t-23.5 190.5zM453 696q0 -281 243 -315v635q-243 -33 -243 -320zM1022 385q233 31 233 309q0 287 -233 318v-627z" />
<glyph unicode="&#x425;" horiz-adv-x="1206" d="M32 17.5q-5 17.5 9 39.5l377 637l-355 609q-12 23 -4.5 41t33.5 18h254q29 0 41 -8t27 -37l94 -182l90 -181l92 191l88 170q23 45 66 45h260q37 2 43 -16.5t-8 -34.5l-365 -615l379 -641q12 -16 7 -34.5t-34 -18.5h-256q-47 0 -71 43l-101 193l-102 202l-100 -202 l-99 -187q-25 -49 -78 -49h-256q-26 0 -31 17.5z" />
<glyph unicode="&#x426;" horiz-adv-x="1396" d="M137 45v1270q0 47 45 47h244q45 0 45 -47v-1034h389v1034q0 47 45 47h244q45 0 45 -47v-1028l119 -13q49 -4 45 -67l-25 -461q-2 -47 -11 -59.5t-40 -12.5h-178q-31 0 -40 10.5t-11 49.5l-15 266h-856q-45 0 -45 45z" />
<glyph unicode="&#x427;" horiz-adv-x="1277" d="M70 879v438q0 45 45 45h235q45 0 45 -45v-410q0 -78 37 -120t127 -42q121 0 256 43v529q0 45 43 45h238q45 0 45 -45v-1272q0 -43 -45 -43h-238q-45 0 -45 43l2 481q-156 -53 -317 -53q-428 0 -428 406z" />
<glyph unicode="&#x428;" horiz-adv-x="1843" d="M139 47v1270q0 45 43 45h238q43 0 43 -45v-1043h291v1041q0 47 45 47h237q43 0 43 -47v-1041h301v1043q0 45 45 45h236q45 0 45 -45v-1270q0 -47 -43 -47h-1481q-43 0 -43 47z" />
<glyph unicode="&#x429;" horiz-adv-x="1918" d="M137 47v1270q0 45 45 45h244q45 0 45 -45v-1036h283v1034q0 47 45 47h243q45 0 45 -47v-1034h295v1036q0 45 43 45h246q43 0 43 -45v-1030l119 -13q51 -6 45 -67l-25 -461q-2 -47 -11 -59.5t-40 -12.5h-176q-31 0 -41 10.5t-12 49.5l-14 266h-1377q-45 0 -45 47z" />
<glyph unicode="&#x42a;" horiz-adv-x="1531" d="M16 1128v187q0 45 45 45h664q45 0 45 -45v-469h215q111 0 197 -26.5t138 -68.5t86 -100.5t46 -115t12 -117.5q0 -205 -137 -311.5t-344 -106.5h-496q-45 0 -45 43l-2 1044h-379q-45 0 -45 41zM768 266h190q80 0 128.5 41t48.5 113q0 166 -170 166h-197v-320z" />
<glyph unicode="&#x42b;" horiz-adv-x="1744" d="M135 43v1272q0 45 47 45h236q45 0 45 -45v-467h215q137 0 235.5 -39t148.5 -105.5t72.5 -137t22.5 -148.5q0 -203 -137 -310.5t-342 -107.5h-496q-47 0 -47 43zM461 266h192q80 0 127 41t47 113q0 166 -168 166h-198v-320zM1282 45v1270q0 47 45 47h238q43 0 43 -47 v-1270q0 -45 -43 -45h-238q-45 0 -45 45z" />
<glyph unicode="&#x42c;" horiz-adv-x="1218" d="M135 43v1272q0 45 47 45h236q45 0 45 -45v-467h215q137 0 235.5 -39t148.5 -105.5t72.5 -137t22.5 -148.5q0 -203 -137 -310.5t-342 -107.5h-496q-47 0 -47 43zM461 266h192q80 0 127 41t47 113q0 166 -168 166h-198v-320z" />
<glyph unicode="&#x42d;" horiz-adv-x="1228" d="M88 141l29 109q8 31 22.5 38t48.5 3q168 -23 318 -23q137 0 200.5 75t75.5 220h-450q-45 0 -45 41v172q0 45 45 45h446q-6 127 -63.5 195.5t-184.5 68.5q-154 0 -305 -22q-63 -10 -73 41l-25 117q-12 61 55 90q150 66 379 65q143 0 250 -41t168 -105.5t98 -159.5 t48.5 -185t11.5 -201q0 -702 -602 -702q-236 0 -392 65q-69 33 -55 94z" />
<glyph unicode="&#x42e;" horiz-adv-x="1839" d="M139 45v1270q0 47 43 47h238q43 0 43 -47v-475h135q63 532 551 532q143 0 249.5 -41t167 -103.5t97.5 -155.5t48 -181t11 -196.5t-9 -194.5t-44 -187.5t-94 -170t-169 -114.5t-257 -46q-129 0 -226.5 34.5t-155.5 90t-97 136.5t-55.5 157.5t-22.5 170.5h-129v-526 q0 -45 -43 -45h-238q-43 0 -43 45zM930 674q0 -213 51 -313.5t172 -100.5q123 0 178 101.5t55 312.5q0 225 -51 322.5t-182 97.5q-123 0 -173 -100.5t-50 -319.5z" />
<glyph unicode="&#x42f;" horiz-adv-x="1275" d="M82 51l115 352q27 84 56.5 129.5t80.5 73.5q-102 37 -150.5 131t-48.5 203q0 207 133 314.5t322 107.5h504q45 0 45 -45v-1272q0 -45 -45 -45h-244q-45 0 -45 45v487h-121q-106 -4 -154 -139l-106 -332q-12 -37 -28.5 -49t-61.5 -12h-215q-53 0 -37 51zM479 934 q0 -143 164 -143h162v290h-162q-68 0 -116 -36.5t-48 -110.5z" />
<glyph unicode="&#x430;" horiz-adv-x="1173" d="M80 285q-6 340 393 340h236v32q0 68 -36 94.5t-145 26.5q-88 0 -268 -18q-43 -6 -56.5 0t-21.5 35l-22 106q-4 29 8 45.5t57 34.5q131 49 353 49q141 0 230 -24.5t133 -79t59.5 -119t15.5 -164.5v-324q0 -61 13 -76.5t63 -21.5q27 -2 35 -9t8 -26v-131q0 -41 -60 -53 q-57 -14 -127 -14q-178 0 -211 133l-4 2q-74 -70 -176 -104.5t-190 -34.5q-164 0 -225.5 82t-61.5 219zM395 301q0 -47 19.5 -65.5t72.5 -18.5q96 0 215 72v137h-184q-61 0 -92 -27.5t-31 -97.5z" />
<glyph unicode="&#x431;" horiz-adv-x="1134" d="M86 567q0 307 47 455q72 229 273 338q41 23 98 44t88 30.5t125 36t114 32.5q43 10 56 -26l51 -146q18 -59 -18 -69l-191 -54q-166 -49 -235.5 -112.5t-83.5 -190.5h2q90 74 225 74q418 0 418 -498q0 -500 -486 -499q-129 0 -221 34.5t-142 86t-78 135.5t-35 155.5 t-7 173.5zM420 475.5q0 -106.5 30.5 -163t116.5 -56.5q96 0 128 60.5t32 168.5q-2 113 -31.5 169.5t-117.5 56.5q-92 0 -125 -64.5t-33 -171z" />
<glyph unicode="&#x432;" horiz-adv-x="1097" d="M96 45v924q0 43 49 43h480q184 0 275 -75t91 -212q0 -45 -26.5 -99.5t-92.5 -88.5q150 -63 150 -226q0 -143 -107.5 -227t-267.5 -84h-500q-51 0 -51 45zM410 244h180q55 0 81.5 26.5t26.5 61.5q0 90 -100 90h-188v-178zM410 621h168q41 0 64.5 22.5t23.5 52.5 q0 74 -95 74h-161v-149z" />
<glyph unicode="&#x433;" horiz-adv-x="944" d="M98 43v922q0 47 47 47h727q41 0 41 -47v-156q0 -45 -43 -45h-458v-721q0 -43 -45 -43h-220q-49 0 -49 43z" />
<glyph unicode="&#x434;" horiz-adv-x="1294" d="M23 180q0 53 51 62l57 8q53 47 79 107.5t42 162.5l51 340q12 88 47 120t119 32h600q57 0 57 -58v-708l64 -6q51 -6 51 -72l-20 -385q-2 -39 -15.5 -49t-46.5 -10h-149q-29 0 -39 10t-13 39l-10 227h-631l-20 -227q-2 -31 -11.5 -40t-31.5 -9h-176q-27 0 -35 11t-10 44z M489 252h316v504h-211l-21 -181q-29 -235 -84 -323z" />
<glyph unicode="&#x435;" horiz-adv-x="1091" d="M86 498q0 532 467 532q461 0 465 -467q0 -68 -24.5 -99.5t-88.5 -31.5h-499q6 -113 58 -151.5t163 -38.5q74 0 241 20q25 4 39.5 2t19.5 -11t11 -36l16 -96q4 -23 3 -39t-13 -28.5t-43 -24.5q-135 -47 -330 -47q-147 0 -247.5 40.5t-149.5 117.5t-68.5 161t-19.5 197z M410 616h284q0 174 -141 175q-133 -1 -143 -175z" />
<glyph unicode="&#x436;" horiz-adv-x="1597" d="M37 49l78 242q37 106 79 155.5t113 69.5v6q-59 16 -99 69.5t-77 166.5l-70 203q-8 20 1.5 34.5t33.5 14.5h199q43 0 58.5 -10.5t27.5 -43.5l74 -190q29 -74 59.5 -92.5t87.5 -18.5h39v314q0 43 45 43h229q41 0 41 -43v-314h41q39 0 58.5 4.5t45 30t44.5 76.5l76 190 q12 33 27.5 43.5t58.5 10.5h198q25 0 33 -14.5t2 -34.5l-70 -203q-39 -111 -79.5 -165t-98.5 -71v-6q70 -20 112 -69.5t77 -155.5l78 -242q10 -16 0.5 -32.5t-35.5 -16.5h-213q-41 0 -57.5 10t-28.5 43l-68 211q-43 129 -160 129h-41v-350q0 -43 -41 -43h-229q-45 0 -45 43 v350h-41q-117 0 -160 -129l-69 -211q-12 -33 -27.5 -43t-58.5 -10h-213q-25 0 -33 15.5t-2 33.5z" />
<glyph unicode="&#x437;" horiz-adv-x="974" d="M35 123l20 98q8 27 18.5 34t43.5 3q162 -23 299 -22q139 0 139 94q0 90 -131 90h-100q-27 0 -36 8t-9 33v123q0 23 8 30t37 7h84q139 0 139 79q0 78 -115 78q-74 0 -258 -18q-29 -4 -44 -2t-21.5 10t-10.5 31l-22 106q-4 31 7 45.5t40 28.5q123 55 354 55 q109 0 194 -26.5t142 -96t57 -174.5q0 -51 -31.5 -111.5t-95.5 -88.5v-7q147 -63 148 -223q0 -96 -45 -163.5t-120 -100.5t-150.5 -47t-159.5 -14q-203 0 -328 49q-43 16 -51 33.5t-2 58.5z" />
<glyph unicode="&#x438;" horiz-adv-x="1175" d="M98 47v918q0 47 47 47h220q45 0 45 -47v-486h6q63 86 200 283l148 207q33 43 90 43h178q45 0 45 -47v-918q0 -47 -47 -47h-217q-47 0 -47 47v506h-6l-217 -303q-106 -147 -150 -203q-33 -47 -90 -47h-158q-47 0 -47 47z" />
<glyph unicode="&#x439;" horiz-adv-x="1175" d="M98 47v918q0 47 47 47h220q45 0 45 -47v-486h6q63 86 200 283l148 207q33 43 90 43h178q45 0 45 -47v-918q0 -47 -47 -47h-217q-47 0 -47 47v506h-6l-217 -303q-106 -147 -150 -203q-33 -47 -90 -47h-158q-47 0 -47 47zM175 1388.5q-1 6.5 0 9.5t3 8t6 9l9 8l73 60 q31 14 40 10t34 -29q68 -82 121 -114.5t127 -32.5q68 0 122 32.5t119 114.5q18 25 33 28t39 -11l74 -45q16 -10 19 -26.5t-1 -29t-18 -39.5q-63 -121 -163.5 -185t-223.5 -64t-233.5 63.5t-161.5 179.5q-2 2 -5.5 11.5t-4.5 11.5t-4 9t-3 11t-1 10.5z" />
<glyph unicode="&#x43a;" horiz-adv-x="1083" d="M98 43v926q0 43 43 43h236q41 0 41 -43v-314h51q37 0 57.5 4.5t47 30t44.5 76.5l74 190q12 33 28.5 43.5t59.5 10.5h197q25 0 34 -14.5t1 -34.5l-70 -203q-68 -207 -180 -236v-6q72 -20 114 -69.5t76 -155.5l78 -242q8 -18 -1 -33.5t-34 -15.5h-213q-43 0 -58 10t-28 43 l-67 211q-43 129 -160 129h-51v-350q0 -43 -41 -43h-236q-43 0 -43 43z" />
<glyph unicode="&#x43b;" horiz-adv-x="1163" d="M12 160q0 25 8.5 36t36.5 19q86 25 121 63.5t47 149.5l49 440q8 86 45 115t130 29h567q47 0 47 -45v-924q0 -43 -45 -43h-227q-47 0 -48 43v713h-194l-39 -361q-10 -102 -27.5 -163.5t-61.5 -128t-130 -98.5t-219 -32q-31 0 -38 9.5t-9 37.5z" />
<glyph unicode="&#x43c;" horiz-adv-x="1323" d="M98 43v922q0 43 43 43h185q41 0 57 -8.5t29 -32.5l112 -226q25 -45 71 -137t71 -137q18 35 63 124t72 138l121 236q20 43 86 43h172q43 0 43 -41v-924q0 -43 -45 -43h-207q-47 0 -47 43v430h-4l-76 -160l-62 -123q-18 -41 -71 -40h-93q-59 0 -77 40l-66 132l-74 151h-4 v-430q0 -43 -47 -43h-207q-45 0 -45 43z" />
<glyph unicode="&#x43d;" horiz-adv-x="1146" d="M98 45v918q0 47 45 47h224q43 0 43 -47v-322h325v322q0 47 47 47h222q45 0 45 -47v-918q0 -45 -45 -45h-222q-47 0 -47 45v365h-325v-365q0 -45 -43 -45h-224q-45 0 -45 45z" />
<glyph unicode="&#x43e;" horiz-adv-x="1124" d="M86 520q0 68 8 126.5t37 133t77 126.5t137 88t210 36t212 -30.5t142.5 -79t82 -119t39.5 -136t9 -145.5q0 -82 -7 -143.5t-34.5 -140t-77 -130t-143.5 -87t-223 -35.5q-127 0 -218 35.5t-138 87t-74 130t-33 140t-6 143.5zM401 508q0 -139 33 -198.5t121 -59.5 q98 0 132 59.5t34 198.5t-32 197.5t-130 58.5q-90 0 -124 -62.5t-34 -193.5z" />
<glyph unicode="&#x43f;" horiz-adv-x="1146" d="M98 45v922q0 45 45 45h863q43 0 43 -43v-924q0 -45 -45 -45h-224q-45 0 -45 45l2 715h-325v-715q0 -45 -45 -45h-224q-45 0 -45 45z" />
<glyph unicode="&#x440;" horiz-adv-x="1126" d="M98 -354v1319q0 45 43 45h226q43 0 43 -45v-50l2 -2h2q156 113 291 113q102 0 171.5 -39t106.5 -112.5t51.5 -160.5t14.5 -206q0 -266 -89.5 -397t-326.5 -131q-111 0 -221 30h-2v-364q0 -45 -43 -45h-226q-43 0 -43 45zM410 268q80 -23 159 -22q88 0 123 52t35 206 q0 139 -27.5 187t-95.5 48q-66 0 -194 -59v-412z" />
<glyph unicode="&#x441;" horiz-adv-x="978" d="M84 510q0 82 10 149.5t41 139t81 121t136 80t203 30.5q199 0 322 -51q51 -20 43 -76l-23 -125q-8 -31 -21.5 -36t-56.5 1q-143 14 -221 15q-102 0 -148.5 -58.5t-46.5 -183.5q0 -147 42 -204.5t149 -57.5q104 0 246 16q20 4 32.5 3t18.5 -9t10 -31l21 -112 q8 -37 -1.5 -55.5t-52.5 -36.5q-135 -47 -313 -47q-147 0 -245.5 43t-144.5 122.5t-63.5 163.5t-17.5 199z" />
<glyph unicode="&#x442;" horiz-adv-x="964" d="M20 807v158q0 45 41 45h844q39 0 39 -45v-158q0 -45 -41 -45h-262v-721q0 -41 -47 -41h-217q-49 0 -49 41v721h-267q-41 0 -41 45z" />
<glyph unicode="&#x443;" horiz-adv-x="1069" d="M29 961q-20 51 32 51h220q31 0 44 -7.5t21 -35.5l96 -297l86 -281h11l94 285q12 39 45 143.5t49 149.5q14 43 70 43h204q53 0 33 -54l-487 -1310q-10 -29 -24.5 -38t-49.5 -9h-197q-31 0 -38 11t6 40l139 375z" />
<glyph unicode="&#x444;" horiz-adv-x="1495" d="M84 508q0 72 14.5 138.5t50 133t91 117.5t145.5 88t207 47v283q0 47 43 47h227q41 0 41 -47v-279q143 -10 247.5 -61t159 -128t78 -159t23.5 -176q0 -96 -23.5 -179t-77 -160t-157.5 -128t-250 -68v-296q0 -43 -39 -43h-229q-43 0 -43 45v294q-147 10 -251.5 59.5 t-158 128.5t-76 162t-22.5 181zM393 500q0 -238 199 -258v522q-199 -16 -199 -264zM903 242q197 20 197 258q0 252 -197 266v-524z" />
<glyph unicode="&#x445;" horiz-adv-x="1060" d="M15.5 14.5q-7.5 14.5 11.5 40.5l323 461l-303 442q-14 18 -8 36t33 18h239q27 0 38 -6.5t26 -28.5l153 -248l154 246q20 37 55 37h254q68 0 31 -54l-315 -442l323 -461q14 -23 7 -39t-36 -16h-239q-45 0 -66 35l-168 268l-166 -266q-23 -37 -71 -37h-242 q-26 0 -33.5 14.5z" />
<glyph unicode="&#x446;" horiz-adv-x="1185" d="M98 47v918q0 47 45 47h232q43 0 43 -47v-711h299v711q0 47 45 47h229q23 0 34 -9.5t11 -37.5v-709l72 -6q31 -4 37 -17.5t2 -50.5l-21 -395q-2 -41 -10 -50t-39 -9h-159q-33 0 -43.5 9t-12.5 40l-6 223h-713q-45 0 -45 47z" />
<glyph unicode="&#x447;" horiz-adv-x="1101" d="M61 672v293q0 45 39 45h236q37 0 37 -45v-263q0 -154 123 -153q53 0 194 53v363q0 45 39 45h234q39 0 38 -45v-922q0 -23 -7 -33t-31 -10h-236q-39 0 -39 43v315q-205 -76 -297 -75q-88 0 -151.5 24.5t-97 60t-53 92t-24 103t-4.5 109.5z" />
<glyph unicode="&#x448;" horiz-adv-x="1583" d="M98 49v916q0 47 43 47h228q43 0 43 -47v-713h225v713q0 47 43 47h227q41 0 41 -47v-713h221v713q0 47 48 47h225q41 0 41 -47v-916q0 -49 -41 -49h-1301q-43 0 -43 49z" />
<glyph unicode="&#x449;" horiz-adv-x="1642" d="M98 49v916q0 47 45 47h232q43 0 43 -47v-711h219v711q0 47 45 47h231q43 0 43 -47v-711h220v711q0 47 45 47h231q20 0 30.5 -9.5t10.5 -37.5v-711l74 -6q29 -4 35 -17.5t4 -50.5l-21 -395q-2 -39 -11 -49t-40 -10h-160q-33 0 -43 10t-12 41l-6 223h-1170q-45 0 -45 49z " />
<glyph unicode="&#x44a;" horiz-adv-x="1306" d="M16 801v168q0 27 9.5 35t27.5 8h565q47 0 48 -43v-301h188q119 0 202 -31t124 -85t57 -108.5t16 -117.5q0 -158 -112.5 -242t-292.5 -84h-449q-49 0 -49 41v717h-297q-23 0 -30 8t-7 35zM668 252h163q57 0 89 22.5t32 63.5q0 92 -118 92h-166v-178z" />
<glyph unicode="&#x44b;" horiz-adv-x="1523" d="M98 39v934q0 23 9.5 31t37.5 8h232q18 0 27.5 -6.5t11.5 -13.5t2 -19v-305h184q119 0 202 -31t124 -85t57 -108.5t16 -117.5q0 -158 -112.5 -242t-292.5 -84h-455q-29 0 -36 8t-7 31zM420 252h158q57 0 89.5 23.5t32.5 62.5q0 92 -118 92h-162v-178zM1104 39v932 q0 41 47 41h231q43 0 43 -41v-932q0 -39 -43 -39h-231q-27 0 -37 8t-10 31z" />
<glyph unicode="&#x44c;" horiz-adv-x="1054" d="M98 41v934q0 23 9.5 30t37.5 7h232q18 0 27.5 -5.5t11.5 -12.5t2 -19v-307h184q119 0 202 -31t124 -85t57 -108.5t16 -117.5q0 -158 -112.5 -242t-292.5 -84h-455q-27 0 -35 9t-8 32zM420 252h158q57 0 89.5 23.5t32.5 62.5q0 92 -118 92h-162v-178z" />
<glyph unicode="&#x44d;" horiz-adv-x="991" d="M70 121l14 98q4 23 10 31t17.5 9t31.5 -3q141 -16 248 -16q86 0 129 36.5t55 133.5h-307q-55 0 -55 49v123q0 27 10 36t45 9h299q-10 84 -51 117.5t-121 33.5q-70 0 -213 -14q-29 -2 -44 -2t-22 8t-12 31l-18 102q-12 55 43 76q119 51 326 51q143 0 238 -43t139.5 -124 t59.5 -161.5t15 -191.5q0 -115 -18.5 -201t-67.5 -164.5t-146 -120.5t-243 -42q-174 0 -309 47q-43 18 -52 36.5t-1 55.5z" />
<glyph unicode="&#x44e;" horiz-adv-x="1503" d="M98 47v918q0 47 43 47h230q41 0 41 -47v-324h106q10 72 35 134.5t72 122.5t133 95t200.5 35t200.5 -31.5t134 -80t77 -119t38 -135t9 -142.5q0 -80 -6 -140.5t-32.5 -140t-72.5 -131t-135.5 -88t-212.5 -36.5q-127 0 -217 36.5t-135 104.5t-65.5 135.5t-26.5 153.5h-102 v-367q0 -47 -41 -47h-230q-43 0 -43 47zM813 508q0 -139 29.5 -198.5t115.5 -59.5q92 0 123 60.5t31 197.5q0 133 -29.5 193.5t-121.5 60.5q-86 0 -117 -63.5t-31 -190.5z" />
<glyph unicode="&#x44f;" horiz-adv-x="1099" d="M59 49l62 195q53 154 129 194q-143 61 -144 248q0 158 110 243t286 85h454q45 0 45 -41v-930q0 -43 -45 -43h-229q-47 0 -47 43v324h-100q-47 -2 -79 -29t-55 -100l-57 -179q-12 -37 -28.5 -48t-59.5 -11h-207q-51 0 -35 49zM424 686q0 -88 111 -88h145v176h-145 q-51 0 -81 -24.5t-30 -63.5z" />
<glyph unicode="&#x450;" horiz-adv-x="1091" d="M86 498q0 532 467 532q461 0 465 -467q0 -68 -24.5 -99.5t-88.5 -31.5h-499q6 -113 58 -151.5t163 -38.5q74 0 241 20q25 4 39.5 2t19.5 -11t11 -36l16 -96q4 -23 3 -39t-13 -28.5t-43 -24.5q-135 -47 -330 -47q-147 0 -247.5 40.5t-149.5 117.5t-68.5 161t-19.5 197z M274 1405q-33 37 5 61l141 109q37 20 59 -12l228 -326q23 -29 -7 -49l-96 -76q-23 -20 -51 8zM410 616h284q0 174 -141 175q-133 -1 -143 -175z" />
<glyph unicode="&#x451;" horiz-adv-x="1091" d="M86 498q0 532 467 532q461 0 465 -467q0 -68 -24.5 -99.5t-88.5 -31.5h-499q6 -113 58 -151.5t163 -38.5q74 0 241 20q25 4 39.5 2t19.5 -11t11 -36l16 -96q4 -23 3 -39t-13 -28.5t-43 -24.5q-135 -47 -330 -47q-147 0 -247.5 40.5t-149.5 117.5t-68.5 161t-19.5 197z M197 1278q0 68 31.5 103.5t117.5 35.5q88 0 120 -34.5t32 -104.5q0 -68 -32 -106.5t-120 -38.5q-92 0 -120.5 37.5t-28.5 107.5zM410 616h284q0 174 -141 175q-133 -1 -143 -175zM625 1278q0 68 32.5 103.5t116.5 35.5q90 0 121 -34.5t31 -104.5t-31 -107.5t-121 -37.5 t-119.5 38.5t-29.5 106.5z" />
<glyph unicode="&#x452;" horiz-adv-x="1296" d="M70 1114v105q0 23 6 28.5t28 5.5h82v148q0 45 43 45h240q39 0 39 -45v-148h369q20 0 26 -7t6 -27v-107q0 -20 -6 -27.5t-26 -7.5h-369v-211q145 74 319 74q193 0 288 -136t95 -372q0 -213 -107.5 -397.5t-318.5 -284.5q-37 -16 -53 -16q-25 0 -43 33l-61 106 q-14 29 -15 37q0 16 47 51q236 158 236 483q0 217 -182 218q-92 0 -205 -54v-563q0 -45 -39 -45h-240q-43 0 -43 45v1032h-82q-20 0 -27 7t-7 30z" />
<glyph unicode="&#x453;" horiz-adv-x="944" d="M98 43v922q0 47 47 47h727q41 0 41 -47v-156q0 -45 -43 -45h-458v-721q0 -43 -45 -43h-220q-49 0 -49 43zM326 1210l190 353q23 39 57 18l156 -88q43 -23 10 -61l-241 -310q-23 -33 -52 -18l-106 57q-30 18 -14 49z" />
<glyph unicode="&#x454;" horiz-adv-x="993" d="M84 510q0 82 10 149.5t40 139t80 121t137 80t204 30.5q199 0 322 -51q51 -20 43 -76l-21 -102q-4 -23 -11 -31t-22.5 -8t-44.5 2q-143 14 -219 14q-80 0 -124 -34.5t-54 -116.5h299q35 0 45 -9.5t10 -35.5v-123q0 -49 -55 -49h-307q12 -96 55 -133t129 -37q106 0 248 16 q20 4 32.5 3t17.5 -9t9 -31l15 -98q8 -37 -1.5 -55.5t-52.5 -36.5q-135 -47 -313 -47q-119 0 -206 29.5t-137 75.5t-80 119t-39 142.5t-9 161.5z" />
<glyph unicode="&#x455;" horiz-adv-x="999" d="M80 125l22 98q6 29 19.5 35t46.5 0q154 -27 293 -27q78 0 110.5 17.5t32.5 58.5q0 43 -23.5 59.5t-91.5 24.5q-98 14 -158.5 28.5t-123 47.5t-92 91t-29.5 144q0 158 114.5 243t303.5 85q190 0 317 -45q47 -16 62.5 -32.5t7.5 -51.5l-23 -104q-8 -29 -18 -35t-43 -2 q-184 25 -291 24q-72 2 -94.5 -15t-22.5 -54q0 -25 19.5 -39t40 -19.5t67.5 -13.5q94 -12 153.5 -26.5t122 -48t92.5 -95t30 -154.5q0 -176 -128 -256.5t-325 -80.5q-182 0 -321 45q-51 18 -65.5 37.5t-4.5 60.5z" />
<glyph unicode="&#x456;" horiz-adv-x="567" d="M121 1278q0 152 164 152q92 0 126.5 -39t34.5 -113q0 -70 -33.5 -112t-127.5 -42q-96 0 -130 42t-34 112zM125 45v922q0 45 45 45h225q41 0 41 -45v-922q0 -45 -41 -45h-225q-45 0 -45 45z" />
<glyph unicode="&#x457;" horiz-adv-x="548" d="M-86 1264q0 68 31.5 103.5t117.5 35.5q88 0 120 -35t32 -104q0 -68 -31.5 -107t-120.5 -39q-92 0 -120.5 38t-28.5 108zM119 45v922q0 45 45 45h223q43 0 43 -45v-922q0 -45 -43 -45h-223q-45 0 -45 45zM342 1263.5q0 67.5 33 103.5t117 36q90 0 120.5 -35t30.5 -104.5 t-30.5 -107.5t-121 -38t-120 39t-29.5 106.5z" />
<glyph unicode="&#x458;" horiz-adv-x="598" d="M-139 -229q-2 31 3 38t36 13q160 35 207 68.5t47 142.5v934q0 45 47 45h223q43 0 43 -45v-928q0 -266 -134 -374.5t-405 -98.5q-51 0 -53 45zM150 1278q0 152 161 152q94 0 129 -39t35 -113q0 -154 -164 -154q-96 0 -128.5 42t-32.5 112z" />
<glyph unicode="&#x459;" horiz-adv-x="1677" d="M14 162q0 25 8.5 35t36.5 20q84 23 119 62.5t47 150.5l49 440q10 84 47 113t130 29h553q37 0 36 -47v-297h183q119 0 202.5 -31t123.5 -85t56.5 -108.5t16.5 -117.5q0 -158 -112.5 -242t-292.5 -84h-449q-49 0 -49 41v717h-170l-39 -389q-10 -96 -27.5 -156.5t-61.5 -120 t-130 -89.5t-217 -30q-29 0 -38 10.5t-11 36.5zM1040 252h166q49 0 81 23.5t32 62.5q0 92 -109 92h-170v-178z" />
<glyph unicode="&#x45a;" horiz-adv-x="1611" d="M98 39v932q0 23 9.5 32t33.5 9h234q27 0 35 -10.5t8 -30.5v-316h239v318q0 20 9.5 29.5t35.5 9.5h232q45 0 45 -39v-309h182q119 0 203 -31t124 -84t56.5 -106.5t16.5 -116.5q0 -158 -113 -242t-293 -84h-453q-27 0 -36 9t-9 30v379h-239v-379q0 -39 -43 -39h-234 q-25 0 -34 9.5t-9 29.5zM979 252h166q113 0 112 84q0 94 -108 94h-170v-178z" />
<glyph unicode="&#x45b;" horiz-adv-x="1153" d="M-10 1114v103q0 23 6 28.5t27 5.5h83v150q0 45 39 45h234q41 0 41 -45v-150h358q20 0 27.5 -7t7.5 -27v-103q0 -20 -6 -27.5t-27 -7.5h-360v-209q160 92 305 93q88 0 151.5 -25t97.5 -61.5t52 -95t23.5 -106.5t5.5 -116v-518q0 -41 -45 -41h-224q-45 0 -45 41v489 q0 80 -28.5 116t-94.5 36q-70 0 -200 -59v-582q0 -41 -41 -41h-232q-39 0 -39 41v1038h-83q-20 0 -26.5 7.5t-6.5 27.5z" />
<glyph unicode="&#x45c;" horiz-adv-x="1083" d="M98 43v926q0 43 43 43h236q41 0 41 -43v-314h51q37 0 57.5 4.5t47 30t44.5 76.5l74 190q12 33 28.5 43.5t59.5 10.5h197q25 0 34 -14.5t1 -34.5l-70 -203q-68 -207 -180 -236v-6q72 -20 114 -69.5t76 -155.5l78 -242q8 -18 -1 -33.5t-34 -15.5h-213q-43 0 -58 10t-28 43 l-67 211q-43 129 -160 129h-51v-350q0 -43 -41 -43h-236q-43 0 -43 43zM406 1210l190 353q23 39 57 18l156 -88q43 -23 10 -61l-241 -310q-23 -33 -52 -18l-106 57q-30 18 -14 49z" />
<glyph unicode="&#x45d;" horiz-adv-x="1175" d="M98 47v918q0 47 47 47h220q45 0 45 -47v-486h6q63 86 200 283l148 207q33 43 90 43h178q45 0 45 -47v-918q0 -47 -47 -47h-217q-47 0 -47 47v506h-6l-217 -303q-106 -147 -150 -203q-33 -47 -90 -47h-158q-47 0 -47 47zM324 1405q-33 37 4 61l141 109q37 20 59 -12 l228 -326q23 -29 -6 -49l-97 -76q-23 -20 -51 8z" />
<glyph unicode="&#x45e;" horiz-adv-x="1069" d="M29 961q-20 51 32 51h220q31 0 44 -7.5t21 -35.5l96 -297l86 -281h11l94 285q12 39 45 143.5t49 149.5q14 43 70 43h204q53 0 33 -54l-487 -1310q-10 -29 -24.5 -38t-49.5 -9h-197q-31 0 -38 11t6 40l139 375zM154 1339q-31 66 0 88l73 60q31 14 40 10t32 -29 q72 -82 124 -114.5t126 -32.5q70 0 124 32.5t118 114.5q18 25 32.5 28t38.5 -11l74 -43q25 -25 21.5 -41.5t-23.5 -52.5q-61 -119 -161.5 -184.5t-223.5 -65.5q-121 0 -229.5 62t-165.5 179z" />
<glyph unicode="&#x45f;" horiz-adv-x="1140" d="M98 47v918q0 47 45 47h232q43 0 43 -47v-707h305v707q0 47 47 47h229q23 0 33 -9.5t10 -37.5v-918q0 -47 -45 -47h-266l-12 -262q-2 -39 -11.5 -49.5t-39.5 -10.5h-168q-33 0 -44.5 10.5t-13.5 41.5l-12 270h-287q-45 0 -45 47z" />
<glyph unicode="&#x490;" horiz-adv-x="1075" d="M131 45v1272q0 45 45 45h584l33 217q4 27 13 35t28 8h176q33 0 32 -43v-446q0 -45 -43 -46h-542v-1042q0 -45 -43 -45h-238q-45 0 -45 45z" />
<glyph unicode="&#x491;" horiz-adv-x="944" d="M106 47v918q0 47 48 47h485q16 82 33 213q6 37 39 37h174q33 0 33 -37v-414q0 -47 -46 -47h-452v-717q0 -47 -43 -47h-223q-48 0 -48 47z" />
<glyph unicode="&#x4d9;" horiz-adv-x="1093" d="M80 449q-4 133 113 133h497q-8 113 -59 150.5t-162 37.5q-94 0 -238 -20q-39 -4 -50 3t-19 42l-15 98q-6 41 2.5 58.5t49.5 33.5q135 47 327 47q147 0 247.5 -41t149 -117.5t67 -160.5t18.5 -197q0 -532 -476 -532q-139 0 -233 41t-139 114.5t-61.5 145.5t-18.5 164z M399 397q4 -174 138 -174q137 0 149 174h-287z" />
<glyph unicode="&#x1e80;" horiz-adv-x="1796" d="M31 1311q-14 51 35 51h233q33 0 49.5 -12.5t24.5 -42.5q129 -518 139 -549l74 -318h8l63 224q4 14 50.5 173.5t50.5 170.5l-96 303q-8 18 -1 34.5t27 16.5h217q66 0 78 -55q147 -559 156 -590l67 -277h11l61 301l133 566q14 55 82 55h221q51 0 33 -53l-330 -1250 q-16 -59 -88 -59h-186q-43 0 -60.5 14.5t-27.5 44.5l-94 310l-54 178h-10l-57 -178l-97 -310q-10 -31 -27.5 -45t-58.5 -14h-190q-70 0 -86 57zM524 1673l113 142q27 31 59 4l310 -252q29 -20 6 -47l-76 -97q-20 -23 -55 -4l-342 195q-46 24 -15 59z" />
<glyph unicode="&#x1e81;" horiz-adv-x="1554" d="M33 981q0 29 33 29h231q47 0 59 -43l93 -342l71 -263h10l74 232l55 162l-71 209q-6 18 1 31.5t29 13.5h205q31 0 42.5 -8.5t19.5 -40.5q66 -215 108 -367l62 -213h8l65 256l84 326q8 29 17.5 38t32.5 9h229q47 0 31 -43l-283 -904q-10 -35 -25.5 -49t-54.5 -14h-172 q-35 0 -49 11.5t-27 47.5l-49 148l-67 201h-7l-75 -207l-51 -142q-10 -31 -25.5 -45t-56.5 -14h-158q-39 0 -55.5 12.5t-26.5 44.5l-305 908q-2 6 -2 16zM465 1405q-33 37 4 61l141 109q37 20 60 -12l227 -326q23 -29 -6 -49l-96 -76q-23 -20 -52 8z" />
<glyph unicode="&#x1e82;" horiz-adv-x="1796" d="M31 1311q-14 51 35 51h233q33 0 49.5 -12.5t24.5 -42.5q129 -518 139 -549l74 -318h8l63 224q4 14 50.5 173.5t50.5 170.5l-96 303q-8 18 -1 34.5t27 16.5h217q66 0 78 -55q147 -559 156 -590l67 -277h11l61 301l133 566q14 55 82 55h221q51 0 33 -53l-330 -1250 q-16 -59 -88 -59h-186q-43 0 -60.5 14.5t-27.5 44.5l-94 310l-54 178h-10l-57 -178l-97 -310q-10 -31 -27.5 -45t-58.5 -14h-190q-70 0 -86 57zM700 1544q-18 31 13 49l334 219q39 25 59 -12l94 -151q27 -39 -18 -60l-361 -157q-35 -14 -53 10z" />
<glyph unicode="&#x1e83;" horiz-adv-x="1554" d="M33 981q0 29 33 29h231q47 0 59 -43l93 -342l71 -263h10l74 232l55 162l-71 209q-6 18 1 31.5t29 13.5h205q31 0 42.5 -8.5t19.5 -40.5q66 -215 108 -367l62 -213h8l65 256l84 326q8 29 17.5 38t32.5 9h229q47 0 31 -43l-283 -904q-10 -35 -25.5 -49t-54.5 -14h-172 q-35 0 -49 11.5t-27 47.5l-49 148l-67 201h-7l-75 -207l-51 -142q-10 -31 -25.5 -45t-56.5 -14h-158q-39 0 -55.5 12.5t-26.5 44.5l-305 908q-2 6 -2 16zM621 1210l190 353q23 39 57 18l156 -88q43 -23 10 -61l-241 -310q-23 -33 -52 -18l-106 57q-30 18 -14 49z" />
<glyph unicode="&#x1e84;" horiz-adv-x="1796" d="M31 1311q-14 51 35 51h233q33 0 49.5 -12.5t24.5 -42.5q129 -518 139 -549l74 -318h8l63 224q4 14 50.5 173.5t50.5 170.5l-96 303q-8 18 -1 34.5t27 16.5h217q66 0 78 -55q147 -559 156 -590l67 -277h11l61 301l133 566q14 55 82 55h221q51 0 33 -53l-330 -1250 q-16 -59 -88 -59h-186q-43 0 -60.5 14.5t-27.5 44.5l-94 310l-54 178h-10l-57 -178l-97 -310q-10 -31 -27.5 -45t-58.5 -14h-190q-70 0 -86 57zM528 1585q0 68 32 103.5t118 35.5q88 0 119.5 -34.5t31.5 -104.5q0 -68 -31.5 -106.5t-119.5 -38.5q-92 0 -121 37.5t-29 107.5z M948 1585q0 68 33 103.5t119 35.5q88 0 118.5 -34.5t30.5 -104t-30.5 -107.5t-118.5 -38q-92 0 -122 37.5t-30 107.5z" />
<glyph unicode="&#x1e85;" horiz-adv-x="1554" d="M33 981q0 29 33 29h231q47 0 59 -43l93 -342l71 -263h10l74 232l55 162l-71 209q-6 18 1 31.5t29 13.5h205q31 0 42.5 -8.5t19.5 -40.5q66 -215 108 -367l62 -213h8l65 256l84 326q8 29 17.5 38t32.5 9h229q47 0 31 -43l-283 -904q-10 -35 -25.5 -49t-54.5 -14h-172 q-35 0 -49 11.5t-27 47.5l-49 148l-67 201h-7l-75 -207l-51 -142q-10 -31 -25.5 -45t-56.5 -14h-158q-39 0 -55.5 12.5t-26.5 44.5l-305 908q-2 6 -2 16zM420 1264q0 68 31.5 103.5t117.5 35.5q88 0 120 -35t32 -104q0 -68 -32 -107t-120 -39q-92 0 -120.5 38t-28.5 108z M848 1263.5q0 67.5 32.5 103.5t116.5 36q90 0 121 -35t31 -104.5t-31 -107.5t-121 -38t-119.5 39t-29.5 106.5z" />
<glyph unicode="&#x1ea0;" horiz-adv-x="1265" d="M18.5 10q-6.5 10 1.5 43l396 1250q10 33 25.5 46t54.5 13h258q39 0 53 -13.5t27 -48.5l411 -1251q12 -49 -24 -49h-254q-33 0 -46.5 14.5t-23.5 48.5l-68 244h-407l-74 -250q-16 -57 -72 -57h-227q-24 0 -30.5 10zM461 -285q0 154 164 154q94 0 128.5 -39t34.5 -115 q0 -70 -34.5 -112.5t-128.5 -42.5q-96 0 -130 42.5t-34 112.5zM492 557h266l-62 225l-65 250h-10l-68 -248z" />
</font>
</defs>
</svg>
